<svg class="wave-top" viewBox="0 0 1439 74" version="1.1" xmlns="http://www.w3.org/2000/svg" xmlns:xlink="http://www.w3.org/1999/xlink">
  <g stroke="none" stroke-width="1" fill="none" fill-rule="evenodd">
    <g transform="translate(-1.000000, -7.000000)" fill-rule="nonzero">
      <g class="wave" fill="#FFFFFF">
        <path d="M1440,42 C1383.555,32.15 1342.555,25.65 1317,22.5 C1259.5,15.412 1206.707,12.763 1169,11 C1129.711,9.163 1044.426,9.238 980,11 C954.25,11.705 922.25,13.371 884,16 C845.122,18.893 818.455,21.061 804,22.5 C776.833,25.205 728.136,30.885 713,32.5 C660.023,38.1545 621.544,43.8645 584,47 C517.525,52.552 484.525,53.219 429,54 C379.49,53.242 342.823,52.242 319,51 C278.571,48.8915 231.737,44.368 205,42 C154.629,37.538 86.296,28.8715 0,16 L0,0 L1440,0 L1440,42 Z"></path>
      </g>
      <g transform="translate(1.000000, 7.500000)" fill="#FFFFFF">
        <g transform="translate(719.500000, 34.250000) rotate(-180.000000) translate(-719.500000, -34.250000)">
          <path d="M0,0 C90.7283404,0.463763956 147.912752,13.5939635 291.910178,29.9559502 C387.908462,40.8639413 543.605069,44.6673926 759,41.3663039 C469.336065,78.127176 216.336065,76.83395 0,37.4866248" opacity="0.100000001"></path>
          <path d="M100,52.354249 C277.413333,36.1172975 426.147877,26.2623329 546.203633,22.789355 C666.259389,19.3163773 810.524845,20.8989534 979,27.5370834 C931.069965,28.0612555 810.303266,37.422757 616.699903,55.621588 C423.096539,73.820419 250.863238,72.731306 100,52.354249 Z" opacity="0.100000001"></path>
          <path d="M1046,25.8260638 C1130.83045,14.664406 1279.08318,8.8039415 1439,20.0828403 L1439,60 C1271.17211,38.9717656 1140.17211,27.5804536 1046,25.8260638 Z" opacity="0.200000003"></path>
        </g>
      </g>
    </g>
  </g>
</svg>
