<svg class="wave-top" viewBox="0 0 1439 50" version="1.1" xmlns="http://www.w3.org/2000/svg" xmlns:xlink="http://www.w3.org/1999/xlink">
  <g stroke="none" stroke-width="1" fill="none" fill-rule="evenodd">
    <g transform="translate(-1.000000, -7.000000)" fill-rule="nonzero">
      <g class="wave" fill="#FFFFFF">
        <path d="M1440,28 C1383.555,21.15 1342.555,17.1 1317,15 C1259.5,10.275 1206.707,8.509 1169,7 C1129.711,5.382 1044.426,5.428 980,7 C954.25,7.537 922.25,8.985 884,10.8 C845.122,12.595 818.455,14.04 804,15 C776.833,16.87 728.136,20.59 713,21.7 C660.023,25.436 621.544,29.243 584,31.3 C517.525,35.035 484.525,35.479 429,36 C379.49,35.55 342.823,34.828 319,34 C278.571,32.594 231.737,29.579 205,28 C154.629,25.026 86.296,19.246 0,10 L0,0 L1440,0 L1440,28 Z"></path>
      </g>
      <g transform="translate(1.000000, 5.000000)" fill="#FFFFFF">
        <g transform="translate(719.500000, 20.000000) rotate(-180.000000) translate(-719.500000, -20.000000)">
          <path d="M0,0 C90.7283404,0.309174051 147.912752,9.06614162 291.910178,19.9673548 C387.908462,27.2426275 543.605069,29.7467336 759,27.5656001 C469.336065,52.084784 216.336065,51.222634 0,24.990683" opacity="0.100000001"></path>
          <path d="M100,34.9028325 C277.413333,24.0781988 426.147877,17.508222 546.203633,15.2211767 C666.259389,12.9341314 810.524845,13.9618888 979,18.3027474 C931.069965,18.598118 810.303266,24.9485046 616.699903,37.0805627 C423.096539,49.2126209 250.863238,48.4875373 100,34.9028325 Z" opacity="0.100000001"></path>
          <path d="M1046,17.217372 C1130.83045,9.77627296 1279.08318,5.87596143 1439,13.3885602 L1439,40 C1271.17211,25.981177 1140.17211,18.3879735 1046,17.217372 Z" opacity="0.200000003"></path>
        </g>
      </g>
    </g>
  </g>
</svg>
