<svg version="1.1" id="Layer_1" xmlns="http://www.w3.org/2000/svg" xmlns:xlink="http://www.w3.org/1999/xlink" x="0px" y="0px"
	 width="100%" viewBox="0 0 582 164" enable-background="new 0 0 582 164" xml:space="preserve">
<path fill="fff" opacity="0" stroke="none" 
	d="
M383.000000,165.000000 
	C255.333328,165.000000 128.166672,165.000000 1.000000,165.000000 
	C1.000000,110.333336 1.000000,55.666668 1.000000,1.000000 
	C195.000000,1.000000 389.000000,1.000000 583.000000,1.000000 
	C583.000000,55.666668 583.000000,110.333336 583.000000,165.000000 
	C516.500000,165.000000 450.000000,165.000000 383.000000,165.000000 
M521.980286,59.072880 
	C521.986877,56.950443 522.081177,54.823921 521.982727,52.706371 
	C521.738220,47.452698 521.405823,42.203117 521.013428,36.138409 
	C520.747070,29.795004 517.161133,25.288837 511.748627,25.053885 
	C506.309357,24.817768 500.851837,25.001957 495.253662,25.001957 
	C495.253662,40.519356 495.253662,55.574474 495.253662,71.000000 
	C499.126129,71.000000 502.768982,70.797661 506.382080,71.039673 
	C515.556824,71.654205 519.371582,69.043945 521.980286,59.072880 
M123.999809,133.494629 
	C123.999809,123.061539 123.999809,112.628441 123.999809,102.433235 
	C120.153061,102.433235 116.937408,102.433235 113.661163,102.433235 
	C113.661163,109.330208 113.661163,115.793945 113.661163,123.339241 
	C112.081245,118.626266 110.777641,114.884125 109.571472,111.110832 
	C106.500748,101.504547 106.518036,101.496376 96.293472,102.067627 
	C95.999176,102.084068 95.715759,102.295258 95.242523,102.492744 
	C95.242523,117.496422 95.242523,132.558075 95.242523,147.726089 
	C98.885880,147.726089 102.280098,147.726089 105.958893,147.726089 
	C105.958893,141.545029 105.958893,135.628952 105.958893,129.712875 
	C106.213043,129.663330 106.467201,129.613770 106.721352,129.564209 
	C108.614143,135.625351 110.506943,141.686478 112.386017,147.703674 
	C116.229645,147.703674 119.977730,147.703674 123.999809,147.703674 
	C123.999809,143.105286 123.999809,138.798187 123.999809,133.494629 
M50.999802,43.500626 
	C50.999802,37.396580 50.999802,31.292536 50.999802,25.432846 
	C47.153675,25.432846 43.938072,25.432846 40.660839,25.432846 
	C40.660839,32.329803 40.660839,38.793915 40.660839,46.337605 
	C39.080978,41.624538 37.778084,37.883850 36.572338,34.112103 
	C33.501450,24.505924 33.518681,24.497765 23.295321,25.067385 
	C23.000885,25.083792 22.717268,25.294327 22.241623,25.492086 
	C22.241623,40.494862 22.241623,55.556339 22.241623,70.727097 
	C25.883913,70.727097 29.278069,70.727097 32.956459,70.727097 
	C32.956459,64.546150 32.956459,58.629143 32.956459,52.712139 
	C33.211334,52.662258 33.466209,52.612377 33.721085,52.562496 
	C35.613842,58.623451 37.506596,64.684402 39.386734,70.704956 
	C43.226658,70.704956 46.974976,70.704956 50.999802,70.704956 
	C50.999802,61.775032 50.999802,53.137745 50.999802,43.500626 
M493.010559,103.740730 
	C493.010559,118.456909 493.010559,133.173096 493.010559,148.000031 
	C498.737366,148.000031 503.723175,148.013260 508.708923,147.996719 
	C515.087524,147.975540 519.860474,143.442673 519.967407,137.008789 
	C520.100098,129.027435 520.058228,121.041588 519.976501,113.058861 
	C519.929749,108.488052 516.077820,102.456253 512.253784,102.256546 
	C505.895355,101.924507 499.486572,102.556999 493.010559,103.740730 
M143.190338,148.999588 
	C150.932419,147.632568 154.986450,142.947937 154.996552,135.331009 
	C155.006058,128.181046 154.944244,121.030533 155.013855,113.881233 
	C155.085068,106.568352 149.520905,101.927460 144.383438,101.100540 
	C137.620255,100.011955 129.232071,102.516891 128.184479,109.674225 
	C127.023071,117.609131 127.165848,125.756714 127.042358,133.816315 
	C126.882469,144.251663 131.763855,148.962524 143.190338,148.999588 
M463.424805,24.999994 
	C459.671143,24.999994 455.917480,24.999994 452.366882,24.999994 
	C452.366882,40.765472 452.366882,55.830578 452.366882,70.778503 
	C455.687500,70.778503 458.637207,70.778503 462.209900,70.778503 
	C462.209900,64.763756 462.209900,58.949184 462.209900,53.134613 
	C462.634735,53.080135 463.059570,53.025658 463.484406,52.971180 
	C465.185242,58.987385 466.886078,65.003586 468.518341,70.777130 
	C472.196045,70.777130 475.493591,70.777130 479.613251,70.777130 
	C477.872620,64.978966 476.126831,59.635635 474.730042,54.202599 
	C474.346802,52.712036 474.391937,50.379364 475.292236,49.411854 
	C480.389435,43.934254 479.915771,37.753052 477.743042,31.536951 
	C475.543060,25.243031 470.175659,24.457832 463.424805,24.999994 
M403.981567,69.629791 
	C402.538849,64.499672 400.925110,59.408104 399.754822,54.216568 
	C399.391357,52.604206 399.652954,50.265484 400.618866,49.040108 
	C404.838348,43.687359 405.541718,34.190983 401.363922,29.005081 
	C399.998291,27.309958 397.810577,25.365793 395.868286,25.214743 
	C389.653687,24.731445 383.377930,25.035294 377.010620,25.035294 
	C377.010620,40.219997 377.007874,54.710789 377.023224,69.201561 
	C377.023712,69.665306 377.210175,70.128853 377.344879,70.754761 
	C380.498352,70.754761 383.559814,70.754761 387.267212,70.754761 
	C387.267212,64.727722 387.267212,58.927685 387.267212,53.127647 
	C387.685547,53.078613 388.103882,53.029575 388.522217,52.980541 
	C390.173584,58.899998 391.824982,64.819458 393.596252,71.168671 
	C396.979645,70.953331 400.419800,70.734383 403.981567,69.629791 
M168.000336,52.372932 
	C168.000336,43.295872 168.000336,34.218811 168.000336,25.000034 
	C166.002441,25.000034 164.654083,25.169209 163.362503,24.970064 
	C158.392441,24.203741 156.553528,26.016504 156.904266,31.212343 
	C157.570877,41.086979 157.549942,51.005939 158.040970,60.895252 
	C158.365646,67.434486 162.650452,71.451164 169.327850,71.997467 
	C176.902863,72.617195 183.461487,69.176727 183.803970,62.865662 
	C184.479965,50.408974 184.003311,37.889732 184.003311,25.262615 
	C181.125443,25.262615 177.735703,25.262615 173.999649,25.262615 
	C173.999649,36.131214 174.112625,46.742954 173.900620,57.348198 
	C173.860107,59.374828 172.538208,61.375839 171.807480,63.388668 
	C170.975800,63.279606 170.144119,63.170547 169.312439,63.061485 
	C168.875076,59.816658 168.437714,56.571827 168.000336,52.372932 
M304.999756,52.404064 
	C304.313965,56.047901 307.044067,60.825306 300.358795,63.596020 
	C299.856384,59.783333 299.117035,56.540501 299.059235,53.285564 
	C298.892426,43.891056 299.000305,34.491673 299.000305,25.000036 
	C296.934143,25.000036 295.578522,25.173056 294.282013,24.969494 
	C289.207428,24.172733 287.572021,26.206614 287.907593,31.291384 
	C288.559326,41.166428 288.553528,51.082962 289.040131,60.971481 
	C289.357880,67.428177 293.743164,71.491821 300.402069,71.997810 
	C308.007660,72.575737 314.458649,69.155701 314.805359,62.793533 
	C315.483765,50.344513 315.004639,37.832413 315.004639,25.286865 
	C312.076019,25.286865 308.685822,25.286865 304.999756,25.286865 
	C304.999756,34.189800 304.999756,42.808640 304.999756,52.404064 
M420.999847,52.469841 
	C420.999908,54.961369 420.983459,57.453026 421.003143,59.944401 
	C421.060974,67.265221 426.307526,71.983749 434.389771,71.999603 
	C443.119690,72.016731 447.937531,67.885330 447.987885,60.220131 
	C448.041351,52.081490 448.039734,43.941971 447.988373,35.803303 
	C447.939972,28.132990 443.124329,23.986616 434.413208,24.000406 
	C426.352936,24.013166 421.051056,28.752739 421.006195,36.032177 
	C420.974457,41.181141 420.999908,46.330456 420.999847,52.469841 
M211.999878,123.506378 
	C211.999863,120.173386 212.008102,116.840378 211.998138,113.507416 
	C211.975723,106.005493 206.686661,101.027550 198.719742,100.999832 
	C189.722855,100.968544 185.031815,105.138893 185.005554,113.247017 
	C184.980179,121.079475 184.954483,128.912567 185.038208,136.744202 
	C185.055115,138.326157 185.464188,139.927658 185.858795,141.477798 
	C187.714539,148.767822 196.451141,149.777634 202.188004,148.821487 
	C208.081604,147.839188 211.993500,142.371704 211.999191,136.001022 
	C212.002609,132.168076 211.999847,128.335129 211.999878,123.506378 
M238.281738,25.837986 
	C237.384293,25.517725 236.489166,25.190815 235.589050,24.878239 
	C227.196609,21.963858 215.888809,25.532705 216.896973,38.057533 
	C217.468826,45.161865 216.989609,52.349979 217.003128,59.500324 
	C217.016174,66.405937 219.374725,69.558281 226.035919,71.541588 
	C235.582733,74.384048 245.249222,67.378014 244.149948,58.322803 
	C243.374115,51.931770 243.680939,45.349903 244.099869,38.891857 
	C244.440445,33.641895 243.016846,29.530212 238.281738,25.837986 
M214.998566,127.483749 
	C214.998718,130.476883 215.117950,133.475754 214.973694,136.461914 
	C214.692810,142.276566 219.279755,147.752518 224.766785,148.788696 
	C230.182190,149.811356 239.309723,149.037888 240.818573,142.018723 
	C242.131653,135.910263 241.916275,129.473251 242.374573,123.205215 
	C236.993134,123.205215 232.714264,123.205215 228.221802,123.205215 
	C228.221802,125.816933 228.221802,128.224670 228.221802,130.592438 
	C232.093536,131.424896 233.297195,135.178848 230.759369,138.435730 
	C230.160324,139.204498 228.795853,139.962402 227.968246,139.797562 
	C227.190384,139.642654 226.113846,138.271072 226.099609,137.419266 
	C225.960800,129.107498 225.960907,120.791466 226.106552,112.479904 
	C226.120972,111.657455 227.281525,110.312912 228.061264,110.192909 
	C228.903564,110.063286 230.410110,110.865807 230.768433,111.652687 
	C231.615021,113.511688 231.952209,115.602684 232.540344,117.765198 
	C235.464188,117.765198 238.548111,117.765198 241.999893,117.765198 
	C241.999893,116.574844 241.930054,115.610397 242.010773,114.658714 
	C242.757263,105.857903 237.238861,100.957581 228.744461,100.985985 
	C220.082352,101.014946 215.029449,105.928406 215.000946,114.517776 
	C214.987701,118.508575 214.998611,122.499451 214.998566,127.483749 
M526.537415,118.968246 
	C524.455261,128.550598 522.373108,138.132935 520.276245,147.782928 
	C532.980530,148.191788 530.694031,149.020081 532.509338,141.311249 
	C539.239746,140.709381 539.239746,140.709381 540.605225,147.696365 
	C544.042664,147.696365 547.462524,147.696365 551.495605,147.696365 
	C548.241638,132.254425 545.074951,117.227188 541.866638,102.002106 
	C538.524353,102.002106 535.507324,101.741859 532.574341,102.124863 
	C531.328369,102.287575 529.502930,103.620041 529.241516,104.727753 
	C528.197510,109.153137 527.664551,113.699112 526.537415,118.968246 
M465.525391,148.000000 
	C467.172516,148.000000 468.819641,148.000000 470.583496,148.000000 
	C471.291748,145.530823 471.939575,143.272400 472.533203,141.202911 
	C474.770325,141.202911 476.729767,141.202911 478.681946,141.202911 
	C479.315979,143.529602 479.898346,145.666718 480.457886,147.720001 
	C484.029846,147.720001 487.451691,147.720001 491.270355,147.720001 
	C488.013306,132.252213 484.830017,117.134834 481.643097,102.000046 
	C478.686310,102.000046 476.185059,102.148949 473.708893,101.963318 
	C470.424225,101.717079 469.470367,102.846535 468.822083,106.317406 
	C466.242279,120.128998 463.005951,133.817963 459.915161,148.000000 
	C461.682251,148.000000 463.151672,148.000000 465.525391,148.000000 
M280.999878,108.470634 
	C280.512085,106.320160 280.024261,104.169693 279.532104,102.000046 
	C276.694427,102.000046 274.193390,102.147720 271.717041,101.963593 
	C268.440216,101.719955 267.471191,102.831207 266.821686,106.311272 
	C264.243317,120.126778 261.005615,133.819229 257.959198,147.800430 
	C261.659821,147.800430 265.106689,147.800430 268.660492,147.800430 
	C269.324005,145.473511 269.966125,143.221649 270.571045,141.100281 
	C272.718842,141.100281 274.534515,141.100281 276.644012,141.100281 
	C277.265259,143.374802 277.882416,145.634308 278.437317,147.665833 
	C282.098267,147.665833 285.496307,147.665833 289.355743,147.665833 
	C286.512665,134.614075 283.759674,121.975960 280.999878,108.470634 
M259.047455,61.133694 
	C259.470001,62.688839 259.499847,64.528786 260.384613,65.748703 
	C263.802643,70.461525 268.423767,72.702415 274.414978,72.038177 
	C279.420593,71.483231 283.092133,69.014641 284.914581,64.500977 
	C286.975769,59.396030 286.913513,54.239674 282.559937,50.069756 
	C278.757782,46.427986 274.643524,43.095806 271.035675,39.278530 
	C270.093262,38.281418 270.334595,35.973881 270.446533,34.295822 
	C270.477661,33.828960 272.629395,32.988766 272.727936,33.121555 
	C273.620605,34.324455 274.400146,35.655697 274.947937,37.053181 
	C275.266815,37.866577 275.101685,38.869698 275.150055,39.712887 
	C279.026520,39.712887 282.449738,39.712887 285.855408,39.712887 
	C286.248962,29.745550 281.239838,23.989100 272.443481,23.999916 
	C265.834290,24.008043 261.878815,26.493145 259.979370,31.830645 
	C257.843140,37.833466 259.476959,44.041191 264.168823,48.031979 
	C267.540619,50.899952 271.051880,53.651051 274.069244,56.860191 
	C274.985077,57.834225 274.601746,60.169979 274.497375,61.862568 
	C274.471954,62.275200 272.699677,63.050503 272.578003,62.912415 
	C271.604706,61.807774 270.258911,60.592075 270.103455,59.282612 
	C269.453583,53.808964 265.351624,56.558136 262.747833,56.066891 
	C259.533661,55.460484 258.726288,57.523438 259.047455,61.133694 
M356.007294,130.385483 
	C354.716095,124.383430 353.498596,118.364365 352.117645,112.383034 
	C349.612457,101.532043 349.571808,101.540619 338.968170,102.070198 
	C338.816986,102.077744 338.671906,102.207588 338.179199,102.449944 
	C335.032806,117.297714 331.837616,132.375809 328.572449,147.784058 
	C332.804962,147.784058 336.225006,147.784058 339.620758,147.784058 
	C340.410004,140.382950 340.410004,140.382950 347.689667,141.499252 
	C348.368958,148.792038 349.111053,149.189819 359.529846,147.306656 
	C358.372223,141.945908 357.217804,136.599823 356.007294,130.385483 
M296.702667,148.203400 
	C304.418030,150.346542 311.022766,148.313614 313.670471,142.737854 
	C316.506927,136.764572 315.718506,128.866501 308.864746,124.239647 
	C305.754669,122.140099 302.880188,119.536766 300.419403,116.708977 
	C299.478333,115.627563 299.821045,113.269196 299.943420,111.518242 
	C299.980774,110.983856 301.234161,110.534462 301.930664,110.046143 
	C302.621063,111.521957 303.386902,112.968880 303.967773,114.486633 
	C304.230438,115.172897 304.125214,115.999977 304.181671,116.698715 
	C308.006897,116.698715 311.426086,116.698715 314.823456,116.698715 
	C315.193024,109.164268 312.730133,103.866547 307.828857,102.054482 
	C301.986359,99.894409 294.728516,100.571609 291.171722,105.291405 
	C286.982178,110.850807 287.009888,117.716438 291.726898,123.080711 
	C294.973480,126.772766 299.016663,129.756241 302.620697,133.144775 
	C305.293884,135.658127 305.229645,138.013138 301.215240,140.626266 
	C300.131592,138.003998 299.205780,135.763702 298.155609,133.222458 
	C295.587128,133.222458 292.492249,133.222458 289.426239,133.222458 
	C288.350067,142.426849 289.194733,144.311646 296.702667,148.203400 
M57.039829,46.251854 
	C58.182953,47.443653 59.229588,48.750832 60.488731,49.803905 
	C63.356201,52.202103 66.553764,54.258465 69.122475,56.929493 
	C69.913734,57.752274 69.282860,60.154648 68.926552,61.749611 
	C68.808144,62.279652 67.512634,62.546738 66.755272,62.934044 
	C66.169312,61.694065 65.582359,60.454556 64.997726,59.213951 
	C64.535286,58.232635 64.117332,56.429401 63.607956,56.403549 
	C60.703903,56.256168 57.417587,55.807747 55.026367,56.998386 
	C53.976383,57.521202 54.082703,61.887058 54.804695,64.142868 
	C56.499722,69.438873 60.781044,71.845276 66.826775,72.022705 
	C72.381050,72.185699 76.742043,70.314758 79.321693,65.185188 
	C82.229233,59.403614 81.434669,54.518257 77.280945,49.950665 
	C74.467812,46.857246 70.826767,44.495842 67.460808,41.932026 
	C64.226181,39.468246 64.031769,36.054485 67.790092,32.443226 
	C68.855362,34.992413 69.790413,37.230007 70.857521,39.783592 
	C73.411957,39.783592 76.501419,39.783592 79.562759,39.783592 
	C80.604507,31.138050 79.057785,27.441423 73.590752,25.232210 
	C67.478325,22.762196 59.208988,24.184704 56.360184,28.196251 
	C52.847519,33.142616 53.091213,40.651161 57.039829,46.251854 
M551.002747,116.988792 
	C551.054016,117.483788 550.913452,118.162521 551.185242,118.446213 
	C555.285339,122.725624 559.208496,127.216301 563.649414,131.114960 
	C567.676147,134.650009 567.889465,137.434830 562.987854,140.120041 
	C562.042053,137.736511 561.121399,135.416534 560.255371,133.234070 
	C557.241150,133.234070 554.293274,133.234070 551.312805,133.234070 
	C550.306885,138.447052 551.101562,143.124939 555.065308,146.431366 
	C560.506104,150.969940 571.647217,149.403381 575.539978,143.951660 
	C579.199097,138.827225 576.895325,127.981232 571.422791,124.044617 
	C568.519836,121.956398 565.504272,119.910484 563.031128,117.367439 
	C559.791260,114.036079 560.298340,112.458618 564.925232,109.924385 
	C565.835938,112.298836 566.730225,114.630569 567.547058,116.760300 
	C570.773499,116.760300 573.720398,116.760300 576.590393,116.760300 
	C578.535400,109.508240 574.328491,103.427048 569.925049,101.966957 
	C558.324036,98.120300 550.999023,103.495544 551.002747,116.988792 
M371.999939,140.449615 
	C371.999939,136.689240 371.999939,132.928864 371.999939,129.000092 
	C373.965637,129.000092 375.303101,128.857269 376.600677,129.024338 
	C382.872192,129.831802 386.818726,126.971977 388.879700,119.072777 
	C390.545807,112.686897 386.986847,104.238129 381.242920,103.019341 
	C374.794830,101.651146 367.969574,102.060593 361.297058,101.696007 
	C361.297058,117.639404 361.297058,132.685211 361.297058,147.676392 
	C364.992279,147.676392 368.383728,147.676392 371.999939,147.676392 
	C371.999939,145.377304 371.999939,143.400131 371.999939,140.449615 
M330.000000,65.392685 
	C330.000000,60.968765 330.000000,56.544842 330.000000,53.125996 
	C334.405823,51.922798 338.244293,51.533604 341.413391,49.869560 
	C347.683350,46.577255 347.122467,36.053947 344.679962,31.635571 
	C343.223694,29.001259 340.458405,25.730062 337.889954,25.342857 
	C331.782806,24.422163 325.442688,25.046362 319.319885,25.046362 
	C319.319885,40.703011 319.319885,55.744080 319.319885,70.835602 
	C322.915192,70.835602 326.189331,70.835602 329.777649,70.835602 
	C329.856537,69.247833 329.928284,67.804321 330.000000,65.392685 
M64.999840,136.209229 
	C65.094246,144.975906 70.983337,149.781494 80.672386,148.998245 
	C88.094849,148.398209 92.725128,142.079086 91.440811,134.248260 
	C88.012177,134.248260 84.581551,134.248260 80.997032,134.248260 
	C80.997032,135.322327 81.282318,136.304321 80.934265,136.939011 
	C80.317429,138.063843 79.315872,138.977707 78.475296,139.979858 
	C77.651299,138.967117 76.138405,137.971527 76.112732,136.938934 
	C75.914352,128.961304 75.914093,120.974258 76.116066,112.996803 
	C76.141647,111.986107 77.694519,111.014076 78.539803,110.024132 
	C79.354942,110.880264 80.424904,111.614738 80.909103,112.628876 
	C81.339699,113.530754 81.121124,114.742592 81.180611,115.683731 
	C85.062958,115.683731 88.472870,115.683731 91.804451,115.683731 
	C93.553215,107.738396 86.076645,101.017960 79.613365,100.866219 
	C71.268539,100.670311 64.103767,105.570763 64.887489,114.825508 
	C65.460785,121.595413 64.999763,128.452896 64.999840,136.209229 
M56.997150,126.393539 
	C56.997150,124.647636 56.997150,122.901733 56.997150,121.180428 
	C53.562939,121.014091 50.827202,120.881584 48.217873,120.755203 
	C48.217873,116.974007 48.217873,113.699364 48.217873,109.983612 
	C53.155819,109.983612 57.896076,109.983612 62.745613,109.983612 
	C62.745613,107.135323 62.745613,104.744255 62.745613,102.270615 
	C54.104469,102.270615 45.719910,102.270615 37.266373,102.270615 
	C37.266373,117.579842 37.266373,132.616928 37.266373,147.730927 
	C45.923252,147.730927 54.312271,147.730927 62.706451,147.730927 
	C62.706451,145.061142 62.706451,142.668579 62.706451,139.831802 
	C57.687191,139.831802 52.951614,139.831802 48.330803,139.831802 
	C48.330803,135.970932 48.330803,132.574356 48.330803,129.986740 
	C51.553833,128.994690 54.270134,128.158600 56.997150,126.393539 
M443.000275,128.414673 
	C443.000275,124.589134 442.604889,120.706894 443.142426,116.958435 
	C443.488068,114.548302 445.205750,112.334930 446.308441,110.033363 
	C447.533386,111.837830 448.758331,113.642296 450.173737,115.727310 
	C452.990540,115.727310 456.420441,115.727310 459.832245,115.727310 
	C460.228790,107.121162 455.131836,101.156860 447.492493,101.000290 
	C437.448669,100.794426 433.000366,104.876297 433.000275,114.298698 
	C433.000214,121.450829 433.273590,128.616089 432.930573,135.751740 
	C432.508331,144.536087 438.334473,149.478516 447.678253,149.032120 
	C455.202301,148.672653 460.309174,142.616074 459.683411,134.211426 
	C456.262573,134.211426 452.823914,134.211426 449.162354,134.211426 
	C449.094696,135.102493 449.260284,136.007690 448.925903,136.654373 
	C448.311981,137.841705 447.403412,138.876694 446.617676,139.975189 
	C445.518219,138.918381 443.772552,138.023453 443.458527,136.769897 
	C442.868835,134.416000 443.106628,131.854797 443.000275,128.414673 
M524.999878,41.502064 
	C524.999878,51.263020 524.999878,61.023975 524.999878,70.655960 
	C533.728821,70.655960 541.804565,70.655960 549.800415,70.655960 
	C549.800415,68.024216 549.800415,65.738335 549.800415,62.991589 
	C545.207520,62.991589 540.792786,62.991589 536.261841,62.991589 
	C536.261841,59.120689 536.261841,55.719151 536.261841,52.181831 
	C538.926392,52.035767 541.340027,51.903458 543.684692,51.774929 
	C543.684692,49.012386 543.684692,46.609230 543.684692,44.158230 
	C540.965088,44.024761 538.557739,43.906616 536.379578,43.799721 
	C536.379578,39.900372 536.379578,36.504528 536.379578,32.831551 
	C541.044556,32.831551 545.330139,32.831551 549.742798,32.831551 
	C549.742798,30.140720 549.742798,27.746082 549.742798,25.293163 
	C541.417908,25.293163 533.352356,25.293163 524.999878,25.293163 
	C524.999878,30.556852 524.999878,35.530277 524.999878,41.502064 
M367.230377,44.097229 
	C364.619781,44.097229 362.009216,44.097229 359.252075,44.097229 
	C359.252075,40.149719 359.252075,36.758537 359.252075,32.918953 
	C364.227417,32.918953 368.968933,32.918953 373.706665,32.918953 
	C373.706665,30.065294 373.706665,27.675428 373.706665,25.305559 
	C365.360901,25.305559 357.310303,25.305559 349.299072,25.305559 
	C349.299072,40.649914 349.299072,55.686859 349.299072,70.698349 
	C357.659363,70.698349 365.717468,70.698349 373.667206,70.698349 
	C373.667206,67.994095 373.667206,65.600433 373.667206,62.999912 
	C371.028656,62.999912 368.716858,62.999912 366.405029,62.999912 
	C363.983307,62.999912 361.561615,62.999912 359.184357,62.999912 
	C358.700195,52.653461 358.700195,52.653461 367.898041,51.550068 
	C367.898041,49.313084 367.898041,47.030216 367.230377,44.097229 
M196.011276,69.242081 
	C199.477066,70.060661 202.942856,70.879250 207.095047,71.859955 
	C207.095047,58.091629 207.095047,45.690739 207.095047,32.852203 
	C210.284576,32.852203 213.023209,32.852203 215.667191,32.852203 
	C215.667191,29.994001 215.667191,27.603228 215.667191,25.340342 
	C205.930008,25.340342 196.527435,25.340342 187.372955,25.340342 
	C187.372955,28.092747 187.372955,30.496901 187.372955,33.162796 
	C190.360535,33.162796 192.972916,33.162796 196.001236,33.162796 
	C196.001236,45.053398 196.001236,56.668095 196.011276,69.242081 
M30.491970,109.999878 
	C31.927910,109.914795 33.363853,109.829720 34.652992,109.753334 
	C34.652992,106.972618 34.652992,104.578598 34.652992,102.356567 
	C24.903645,102.356567 15.503154,102.356567 6.208134,102.356567 
	C6.208134,105.000221 6.208134,107.285263 6.208134,110.019943 
	C9.143434,110.019943 11.880815,110.019943 15.063920,110.019943 
	C15.063920,122.866333 15.063920,135.266556 15.063920,147.709885 
	C18.923594,147.709885 22.317450,147.709885 26.000360,147.709885 
	C26.000360,136.124374 26.090786,124.825340 25.937019,113.529625 
	C25.898396,110.692421 26.740322,109.539818 30.491970,109.999878 
M134.998566,38.619759 
	C134.998566,49.366192 134.998566,60.112621 134.998566,70.797028 
	C138.981339,70.797028 142.261017,70.797028 145.988403,70.797028 
	C145.988403,58.205551 145.988403,45.807735 145.988403,32.965862 
	C149.171890,32.965862 151.909378,32.965862 154.729218,32.965862 
	C154.729218,30.112597 154.729218,27.718899 154.729218,25.288017 
	C145.056305,25.288017 135.656235,25.288017 126.317230,25.288017 
	C126.317230,27.984613 126.317230,30.384619 126.317230,33.047203 
	C129.245300,33.047203 131.859421,33.047203 134.769318,33.047203 
	C134.853912,34.745792 134.926224,36.197914 134.998566,38.619759 
M178.310333,140.000031 
	C175.240555,140.000031 172.170776,140.000031 168.691788,140.000031 
	C168.691788,126.862747 168.691788,114.484917 168.691788,102.212357 
	C164.986359,102.212357 161.710648,102.212357 158.371979,102.212357 
	C158.371979,117.576462 158.371979,132.725403 158.371979,147.642944 
	C167.134460,147.642944 175.520447,147.642944 183.977753,147.642944 
	C183.703384,143.987976 185.708755,139.290924 178.310333,140.000031 
M390.998657,112.526443 
	C390.998657,124.254555 390.998657,135.982666 390.998657,147.733688 
	C399.971130,147.733688 408.362457,147.733688 416.729309,147.733688 
	C417.305237,140.001404 417.305237,140.001282 410.003052,140.000076 
	C407.410156,139.999664 404.817261,140.000015 401.829529,140.000015 
	C401.829529,127.006897 401.829529,114.633705 401.829529,102.316719 
	C398.010529,102.316719 394.622589,102.316719 390.998657,102.316719 
	C390.998657,105.600288 390.998657,108.569344 390.998657,112.526443 
M91.000366,53.498829 
	C91.000366,59.262077 91.000366,65.025322 91.000366,70.655914 
	C94.694221,70.655914 97.756371,70.655914 101.000305,70.655914 
	C101.000305,60.837173 101.000298,51.361252 101.000313,41.885330 
	C101.000328,33.380665 101.000748,33.388466 109.681053,32.931091 
	C110.112991,32.908333 110.527184,32.548840 110.776405,32.429260 
	C110.776405,29.963121 110.776405,27.684427 110.776405,25.245850 
	C101.152969,25.245850 91.754242,25.245850 82.268997,25.245850 
	C82.268997,27.894600 82.268997,30.291414 82.268997,33.138771 
	C85.265640,33.138771 87.998131,33.138771 91.000366,33.138771 
	C91.000366,39.895412 91.000366,46.197578 91.000366,53.498829 
M418.000671,122.500206 
	C418.000671,130.911087 418.000671,139.321960 418.000671,147.685822 
	C421.981781,147.685822 425.370270,147.685822 428.708130,147.685822 
	C428.708130,132.338943 428.708130,117.308136 428.708130,102.313995 
	C425.020508,102.313995 421.632080,102.313995 418.000671,102.313995 
	C418.000671,108.917625 418.000671,115.209038 418.000671,122.500206 
M112.999878,39.505363 
	C112.999878,49.911011 112.999878,60.316658 112.999878,70.690506 
	C116.973198,70.690506 120.362053,70.690506 123.711639,70.690506 
	C123.711639,55.347450 123.711639,40.315449 123.711639,25.309402 
	C120.027130,25.309402 116.638214,25.309402 112.999878,25.309402 
	C112.999878,29.913847 112.999878,34.211372 112.999878,39.505363 
M245.000702,108.589859 
	C245.000702,121.649445 245.000702,134.709030 245.000702,147.665375 
	C249.019516,147.665375 252.408997,147.665375 255.684937,147.665375 
	C255.684937,132.294754 255.684937,117.260864 255.684937,102.339844 
	C251.971237,102.339844 248.584488,102.339844 245.000702,102.339844 
	C245.000702,104.324852 245.000702,105.970879 245.000702,108.589859 
M17.998625,68.282906 
	C17.998625,53.902527 17.998625,39.522148 17.998625,25.379650 
	C13.897601,25.379650 10.507103,25.379650 7.360793,25.379650 
	C7.360793,40.797615 7.360793,55.834038 7.360793,71.000191 
	C9.542957,71.000191 11.403322,71.228508 13.176682,70.933617 
	C14.828765,70.658890 16.388271,69.827438 17.998625,68.282906 
M407.000336,33.551189 
	C407.000336,45.950142 407.000336,58.349094 407.000336,70.678612 
	C410.660339,70.678612 413.718414,70.678612 416.700256,70.678612 
	C416.700256,55.320526 416.700256,40.285603 416.700256,25.324587 
	C413.334778,25.324587 410.276825,25.324587 407.000336,25.324587 
	C407.000336,27.955050 407.000336,30.262760 407.000336,33.551189 
z"/>
<path fill="#E9C070" opacity="1.000000" stroke="none" 
	d="
M123.999809,133.992859 
	C123.999809,138.798187 123.999809,143.105286 123.999809,147.703674 
	C119.977730,147.703674 116.229645,147.703674 112.386017,147.703674 
	C110.506943,141.686478 108.614143,135.625351 106.721352,129.564209 
	C106.467201,129.613770 106.213043,129.663330 105.958893,129.712875 
	C105.958893,135.628952 105.958893,141.545029 105.958893,147.726089 
	C102.280098,147.726089 98.885880,147.726089 95.242523,147.726089 
	C95.242523,132.558075 95.242523,117.496422 95.242523,102.492744 
	C95.715759,102.295258 95.999176,102.084068 96.293472,102.067627 
	C106.518036,101.496376 106.500748,101.504547 109.571472,111.110832 
	C110.777641,114.884125 112.081245,118.626266 113.661163,123.339241 
	C113.661163,115.793945 113.661163,109.330208 113.661163,102.433235 
	C116.937408,102.433235 120.153061,102.433235 123.999809,102.433235 
	C123.999809,112.628441 123.999809,123.061539 123.999809,133.992859 
z"/>
<path fill="#E9C070" opacity="1.000000" stroke="none" 
	d="
M50.999802,44.000542 
	C50.999802,53.137745 50.999802,61.775032 50.999802,70.704956 
	C46.974976,70.704956 43.226658,70.704956 39.386734,70.704956 
	C37.506596,64.684402 35.613842,58.623451 33.721085,52.562496 
	C33.466209,52.612377 33.211334,52.662258 32.956459,52.712139 
	C32.956459,58.629143 32.956459,64.546150 32.956459,70.727097 
	C29.278069,70.727097 25.883913,70.727097 22.241623,70.727097 
	C22.241623,55.556339 22.241623,40.494862 22.241623,25.492086 
	C22.717268,25.294327 23.000885,25.083792 23.295321,25.067385 
	C33.518681,24.497765 33.501450,24.505924 36.572338,34.112103 
	C37.778084,37.883850 39.080978,41.624538 40.660839,46.337605 
	C40.660839,38.793915 40.660839,32.329803 40.660839,25.432846 
	C43.938072,25.432846 47.153675,25.432846 50.999802,25.432846 
	C50.999802,31.292536 50.999802,37.396580 50.999802,44.000542 
z"/>
<path fill="#E9C070" opacity="1.000000" stroke="none" 
	d="
M493.054779,103.262009 
	C499.486572,102.556999 505.895355,101.924507 512.253784,102.256546 
	C516.077820,102.456253 519.929749,108.488052 519.976501,113.058861 
	C520.058228,121.041588 520.100098,129.027435 519.967407,137.008789 
	C519.860474,143.442673 515.087524,147.975540 508.708923,147.996719 
	C503.723175,148.013260 498.737366,148.000031 493.010559,148.000031 
	C493.010559,133.173096 493.010559,118.456909 493.054779,103.262009 
M504.039307,138.909927 
	C507.998871,141.079468 508.880219,138.464584 508.948425,135.461853 
	C509.106873,128.487778 509.220734,121.495651 508.844635,114.538307 
	C508.749054,112.770134 506.752502,111.104729 505.629425,109.392097 
	C505.087402,109.665359 504.545380,109.938622 504.003357,110.211891 
	C504.003357,119.477440 504.003357,128.742996 504.039307,138.909927 
z"/>
<path fill="#E9C070" opacity="1.000000" stroke="none" 
	d="
M142.758759,148.999725 
	C131.763855,148.962524 126.882469,144.251663 127.042358,133.816315 
	C127.165848,125.756714 127.023071,117.609131 128.184479,109.674225 
	C129.232071,102.516891 137.620255,100.011955 144.383438,101.100540 
	C149.520905,101.927460 155.085068,106.568352 155.013855,113.881233 
	C154.944244,121.030533 155.006058,128.181046 154.996552,135.331009 
	C154.986450,142.947937 150.932419,147.632568 142.758759,148.999725 
M137.999939,115.880280 
	C138.000031,122.205872 137.788300,128.542816 138.126480,134.850281 
	C138.230927,136.798141 139.833588,138.665665 141.081741,141.258545 
	C145.106216,135.322433 144.867645,113.657921 140.820297,109.094307 
	C139.747864,111.329895 138.874069,113.151413 137.999939,115.880280 
z"/>
<path fill="#E9C070" opacity="1.000000" stroke="none" 
	d="
M463.903870,24.999977 
	C470.175659,24.457832 475.543060,25.243031 477.743042,31.536951 
	C479.915771,37.753052 480.389435,43.934254 475.292236,49.411854 
	C474.391937,50.379364 474.346802,52.712036 474.730042,54.202599 
	C476.126831,59.635635 477.872620,64.978966 479.613251,70.777130 
	C475.493591,70.777130 472.196045,70.777130 468.518341,70.777130 
	C466.886078,65.003586 465.185242,58.987385 463.484406,52.971180 
	C463.059570,53.025658 462.634735,53.080135 462.209900,53.134613 
	C462.209900,58.949184 462.209900,64.763756 462.209900,70.778503 
	C458.637207,70.778503 455.687500,70.778503 452.366882,70.778503 
	C452.366882,55.830578 452.366882,40.765472 452.366882,24.999994 
	C455.917480,24.999994 459.671143,24.999994 463.903870,24.999977 
M467.995056,36.821957 
	C466.397614,35.333805 464.800171,33.845657 463.202728,32.357506 
	C462.802032,32.731453 462.401337,33.105400 462.000641,33.479347 
	C462.000641,35.961010 461.780365,38.470245 462.086273,40.913616 
	C462.259766,42.299702 463.295563,43.577839 463.943024,44.904602 
	C465.215118,43.809017 466.799744,42.910110 467.654480,41.551876 
	C468.271942,40.570656 467.919342,38.978981 467.995056,36.821957 
z"/>
<path fill="#E9C070" opacity="1.000000" stroke="none" 
	d="
M403.920776,70.072609 
	C400.419800,70.734383 396.979645,70.953331 393.596252,71.168671 
	C391.824982,64.819458 390.173584,58.899998 388.522217,52.980541 
	C388.103882,53.029575 387.685547,53.078613 387.267212,53.127647 
	C387.267212,58.927685 387.267212,64.727722 387.267212,70.754761 
	C383.559814,70.754761 380.498352,70.754761 377.344879,70.754761 
	C377.210175,70.128853 377.023712,69.665306 377.023224,69.201561 
	C377.007874,54.710789 377.010620,40.219997 377.010620,25.035294 
	C383.377930,25.035294 389.653687,24.731445 395.868286,25.214743 
	C397.810577,25.365793 399.998291,27.309958 401.363922,29.005081 
	C405.541718,34.190983 404.838348,43.687359 400.618866,49.040108 
	C399.652954,50.265484 399.391357,52.604206 399.754822,54.216568 
	C400.925110,59.408104 402.538849,64.499672 403.920776,70.072609 
M388.429932,44.864372 
	C393.298004,44.290264 393.555176,40.565948 392.802490,37.221924 
	C392.374603,35.321079 389.989227,33.860859 388.485413,32.202209 
	C387.894531,32.549763 387.303650,32.897316 386.712769,33.244869 
	C387.086823,36.916965 387.460907,40.589062 388.429932,44.864372 
z"/>
<path fill="#E9C070" opacity="1.000000" stroke="none" 
	d="
M168.000336,52.849964 
	C168.437714,56.571827 168.875076,59.816658 169.312439,63.061485 
	C170.144119,63.170547 170.975800,63.279606 171.807480,63.388668 
	C172.538208,61.375839 173.860107,59.374828 173.900620,57.348198 
	C174.112625,46.742954 173.999649,36.131214 173.999649,25.262615 
	C177.735703,25.262615 181.125443,25.262615 184.003311,25.262615 
	C184.003311,37.889732 184.479965,50.408974 183.803970,62.865662 
	C183.461487,69.176727 176.902863,72.617195 169.327850,71.997467 
	C162.650452,71.451164 158.365646,67.434486 158.040970,60.895252 
	C157.549942,51.005939 157.570877,41.086979 156.904266,31.212343 
	C156.553528,26.016504 158.392441,24.203741 163.362503,24.970064 
	C164.654083,25.169209 166.002441,25.000034 168.000336,25.000034 
	C168.000336,34.218811 168.000336,43.295872 168.000336,52.849964 
z"/>
<path fill="#E9C070" opacity="1.000000" stroke="none" 
	d="
M304.999756,51.915771 
	C304.999756,42.808640 304.999756,34.189800 304.999756,25.286865 
	C308.685822,25.286865 312.076019,25.286865 315.004639,25.286865 
	C315.004639,37.832413 315.483765,50.344513 314.805359,62.793533 
	C314.458649,69.155701 308.007660,72.575737 300.402069,71.997810 
	C293.743164,71.491821 289.357880,67.428177 289.040131,60.971481 
	C288.553528,51.082962 288.559326,41.166428 287.907593,31.291384 
	C287.572021,26.206614 289.207428,24.172733 294.282013,24.969494 
	C295.578522,25.173056 296.934143,25.000036 299.000305,25.000036 
	C299.000305,34.491673 298.892426,43.891056 299.059235,53.285564 
	C299.117035,56.540501 299.856384,59.783333 300.358795,63.596020 
	C307.044067,60.825306 304.313965,56.047901 304.999756,51.915771 
z"/>
<path fill="#E9C070" opacity="1.000000" stroke="none" 
	d="
M420.999847,51.974728 
	C420.999908,46.330456 420.974457,41.181141 421.006195,36.032177 
	C421.051056,28.752739 426.352936,24.013166 434.413208,24.000406 
	C443.124329,23.986616 447.939972,28.132990 447.988373,35.803303 
	C448.039734,43.941971 448.041351,52.081490 447.987885,60.220131 
	C447.937531,67.885330 443.119690,72.016731 434.389771,71.999603 
	C426.307526,71.983749 421.060974,67.265221 421.003143,59.944401 
	C420.983459,57.453026 420.999908,54.961369 420.999847,51.974728 
M432.000000,41.623108 
	C432.000122,47.285606 431.856323,52.954266 432.098053,58.606434 
	C432.161255,60.084461 433.423157,61.511223 434.134552,62.961521 
	C435.395111,61.672970 437.685394,60.430473 437.745422,59.088242 
	C438.079559,51.617001 438.032776,44.114346 437.694855,36.641510 
	C437.638123,35.386261 435.520996,34.224190 434.355896,33.019054 
	C433.570740,34.401672 432.580963,35.713531 432.070099,37.190990 
	C431.709991,38.232330 432.000153,39.498535 432.000000,41.623108 
z"/>
<path fill="#E9C070" opacity="1.000000" stroke="none" 
	d="
M211.999878,124.004288 
	C211.999847,128.335129 212.002609,132.168076 211.999191,136.001022 
	C211.993500,142.371704 208.081604,147.839188 202.188004,148.821487 
	C196.451141,149.777634 187.714539,148.767822 185.858795,141.477798 
	C185.464188,139.927658 185.055115,138.326157 185.038208,136.744202 
	C184.954483,128.912567 184.980179,121.079475 185.005554,113.247017 
	C185.031815,105.138893 189.722855,100.968544 198.719742,100.999832 
	C206.686661,101.027550 211.975723,106.005493 211.998138,113.507416 
	C212.008102,116.840378 211.999863,120.173386 211.999878,124.004288 
M201.000900,122.527328 
	C201.000870,120.030296 201.309616,117.480835 200.897522,115.053772 
	C200.598587,113.293175 199.345047,111.694664 198.517181,110.023888 
	C197.345779,111.763535 195.279007,113.446228 195.164062,115.253075 
	C194.752716,121.719193 194.969681,128.227753 195.040710,134.719254 
	C195.050690,135.632553 195.344193,136.728378 195.907623,137.406311 
	C196.742722,138.411163 197.936508,139.117905 198.977615,139.951553 
	C199.651352,138.800873 200.841782,137.678329 200.906250,136.494461 
	C201.141266,132.179031 201.000214,127.843124 201.000900,122.527328 
z"/>
<path fill="#E9C070" opacity="1.000000" stroke="none" 
	d="
M238.581100,26.088993 
	C243.016846,29.530212 244.440445,33.641895 244.099869,38.891857 
	C243.680939,45.349903 243.374115,51.931770 244.149948,58.322803 
	C245.249222,67.378014 235.582733,74.384048 226.035919,71.541588 
	C219.374725,69.558281 217.016174,66.405937 217.003128,59.500324 
	C216.989609,52.349979 217.468826,45.161865 216.896973,38.057533 
	C215.888809,25.532705 227.196609,21.963858 235.589050,24.878239 
	C236.489166,25.190815 237.384293,25.517725 238.581100,26.088993 
M233.000900,42.585552 
	C233.000900,41.253609 233.290421,39.837730 232.934250,38.609035 
	C232.375092,36.680092 231.380417,34.877399 230.570175,33.021244 
	C229.380630,34.910912 227.308807,36.736210 227.165375,38.702206 
	C226.718307,44.829826 226.961044,51.011219 227.038940,57.170464 
	C227.052612,58.251259 227.302277,59.512684 227.908615,60.355785 
	C228.662720,61.404331 229.900650,62.104897 230.929626,62.955742 
	C231.619308,61.819492 232.857742,60.705391 232.904648,59.543201 
	C233.119324,54.224072 233.000153,48.891464 233.000900,42.585552 
z"/>
<path fill="#E9C070" opacity="1.000000" stroke="none" 
	d="
M214.998566,126.987022 
	C214.998611,122.499451 214.987701,118.508575 215.000946,114.517776 
	C215.029449,105.928406 220.082352,101.014946 228.744461,100.985985 
	C237.238861,100.957581 242.757263,105.857903 242.010773,114.658714 
	C241.930054,115.610397 241.999893,116.574844 241.999893,117.765198 
	C238.548111,117.765198 235.464188,117.765198 232.540344,117.765198 
	C231.952209,115.602684 231.615021,113.511688 230.768433,111.652687 
	C230.410110,110.865807 228.903564,110.063286 228.061264,110.192909 
	C227.281525,110.312912 226.120972,111.657455 226.106552,112.479904 
	C225.960907,120.791466 225.960800,129.107498 226.099609,137.419266 
	C226.113846,138.271072 227.190384,139.642654 227.968246,139.797562 
	C228.795853,139.962402 230.160324,139.204498 230.759369,138.435730 
	C233.297195,135.178848 232.093536,131.424896 228.221802,130.592438 
	C228.221802,128.224670 228.221802,125.816933 228.221802,123.205215 
	C232.714264,123.205215 236.993134,123.205215 242.374573,123.205215 
	C241.916275,129.473251 242.131653,135.910263 240.818573,142.018723 
	C239.309723,149.037888 230.182190,149.811356 224.766785,148.788696 
	C219.279755,147.752518 214.692810,142.276566 214.973694,136.461914 
	C215.117950,133.475754 214.998718,130.476883 214.998566,126.987022 
z"/>
<path fill="#E9C070" opacity="1.000000" stroke="none" 
	d="
M521.834045,60.000004 
	C519.371582,69.043945 515.556824,71.654205 506.382080,71.039673 
	C502.768982,70.797661 499.126129,71.000000 495.253662,71.000000 
	C495.253662,55.574474 495.253662,40.519356 495.253662,25.001957 
	C500.851837,25.001957 506.309357,24.817768 511.748627,25.053885 
	C517.161133,25.288837 520.747070,29.795004 520.809692,36.880562 
	C520.436646,44.350750 520.212830,51.078499 520.176575,57.807247 
	C520.172729,58.535172 521.255371,59.268944 521.834045,60.000004 
M510.147888,60.377525 
	C510.389496,52.501686 510.882080,44.618538 510.652985,36.756420 
	C510.609131,35.251465 507.723083,33.829327 505.296021,31.578676 
	C505.296021,43.105053 505.296021,52.964897 505.296021,63.623714 
	C507.210022,62.635246 508.577637,61.928967 510.147888,60.377525 
z"/>
<path fill="#E9C070" opacity="1.000000" stroke="none" 
	d="
M526.739990,118.584358 
	C527.664551,113.699112 528.197510,109.153137 529.241516,104.727753 
	C529.502930,103.620041 531.328369,102.287575 532.574341,102.124863 
	C535.507324,101.741859 538.524353,102.002106 541.866638,102.002106 
	C545.074951,117.227188 548.241638,132.254425 551.495605,147.696365 
	C547.462524,147.696365 544.042664,147.696365 540.605225,147.696365 
	C539.239746,140.709381 539.239746,140.709381 532.509338,141.311249 
	C530.694031,149.020081 532.980530,148.191788 520.276245,147.782928 
	C522.373108,138.132935 524.455261,128.550598 526.739990,118.584358 
M536.166565,124.648735 
	C536.089966,124.155289 536.033142,123.657417 535.923889,123.171326 
	C535.893921,123.038132 535.719666,122.920166 535.586548,122.833961 
	C535.508179,122.783218 535.380554,122.808655 535.175354,122.791504 
	C534.740295,126.460953 534.307800,130.108322 533.838074,134.070068 
	C535.674744,133.897842 536.777222,133.794479 537.891418,133.690002 
	C537.477966,130.691376 537.101257,127.959404 536.166565,124.648735 
z"/>
<path fill="#E9C070" opacity="1.000000" stroke="none" 
	d="
M465.073242,148.000000 
	C463.151672,148.000000 461.682251,148.000000 459.915161,148.000000 
	C463.005951,133.817963 466.242279,120.128998 468.822083,106.317406 
	C469.470367,102.846535 470.424225,101.717079 473.708893,101.963318 
	C476.185059,102.148949 478.686310,102.000046 481.643097,102.000046 
	C484.830017,117.134834 488.013306,132.252213 491.270355,147.720001 
	C487.451691,147.720001 484.029846,147.720001 480.457886,147.720001 
	C479.898346,145.666718 479.315979,143.529602 478.681946,141.202911 
	C476.729767,141.202911 474.770325,141.202911 472.533203,141.202911 
	C471.939575,143.272400 471.291748,145.530823 470.583496,148.000000 
	C468.819641,148.000000 467.172516,148.000000 465.073242,148.000000 
M473.241791,133.411331 
	C474.754578,133.621780 476.267365,133.832214 477.856750,134.053314 
	C477.038269,129.175644 476.325256,124.926567 475.386688,119.333290 
	C474.735870,124.698929 474.247406,128.725861 473.241791,133.411331 
z"/>
<path fill="#E9C070" opacity="1.000000" stroke="none" 
	d="
M281.003296,108.904236 
	C283.759674,121.975960 286.512665,134.614075 289.355743,147.665833 
	C285.496307,147.665833 282.098267,147.665833 278.437317,147.665833 
	C277.882416,145.634308 277.265259,143.374802 276.644012,141.100281 
	C274.534515,141.100281 272.718842,141.100281 270.571045,141.100281 
	C269.966125,143.221649 269.324005,145.473511 268.660492,147.800430 
	C265.106689,147.800430 261.659821,147.800430 257.959198,147.800430 
	C261.005615,133.819229 264.243317,120.126778 266.821686,106.311272 
	C267.471191,102.831207 268.440216,101.719955 271.717041,101.963593 
	C274.193390,102.147720 276.694427,102.000046 279.532104,102.000046 
	C280.024261,104.169693 280.512085,106.320160 281.003296,108.904236 
M274.943237,126.795570 
	C274.465149,124.767151 273.987061,122.738739 273.362701,120.089775 
	C272.688568,125.024963 272.094055,129.377457 271.458405,134.031067 
	C273.104858,133.919937 274.511261,133.825012 275.684326,133.745834 
	C275.425598,131.466431 275.209015,129.558472 274.943237,126.795570 
z"/>
<path fill="#E9C070" opacity="1.000000" stroke="none" 
	d="
M259.027039,60.713623 
	C258.726288,57.523438 259.533661,55.460484 262.747833,56.066891 
	C265.351624,56.558136 269.453583,53.808964 270.103455,59.282612 
	C270.258911,60.592075 271.604706,61.807774 272.578003,62.912415 
	C272.699677,63.050503 274.471954,62.275200 274.497375,61.862568 
	C274.601746,60.169979 274.985077,57.834225 274.069244,56.860191 
	C271.051880,53.651051 267.540619,50.899952 264.168823,48.031979 
	C259.476959,44.041191 257.843140,37.833466 259.979370,31.830645 
	C261.878815,26.493145 265.834290,24.008043 272.443481,23.999916 
	C281.239838,23.989100 286.248962,29.745550 285.855408,39.712887 
	C282.449738,39.712887 279.026520,39.712887 275.150055,39.712887 
	C275.101685,38.869698 275.266815,37.866577 274.947937,37.053181 
	C274.400146,35.655697 273.620605,34.324455 272.727936,33.121555 
	C272.629395,32.988766 270.477661,33.828960 270.446533,34.295822 
	C270.334595,35.973881 270.093262,38.281418 271.035675,39.278530 
	C274.643524,43.095806 278.757782,46.427986 282.559937,50.069756 
	C286.913513,54.239674 286.975769,59.396030 284.914581,64.500977 
	C283.092133,69.014641 279.420593,71.483231 274.414978,72.038177 
	C268.423767,72.702415 263.802643,70.461525 260.384613,65.748703 
	C259.499847,64.528786 259.470001,62.688839 259.027039,60.713623 
z"/>
<path fill="#E9C070" opacity="1.000000" stroke="none" 
	d="
M356.035339,130.819611 
	C357.217804,136.599823 358.372223,141.945908 359.529846,147.306656 
	C349.111053,149.189819 348.368958,148.792038 347.689667,141.499252 
	C340.410004,140.382950 340.410004,140.382950 339.620758,147.784058 
	C336.225006,147.784058 332.804962,147.784058 328.572449,147.784058 
	C331.837616,132.375809 335.032806,117.297714 338.179199,102.449944 
	C338.671906,102.207588 338.816986,102.077744 338.968170,102.070198 
	C349.571808,101.540619 349.612457,101.532043 352.117645,112.383034 
	C353.498596,118.364365 354.716095,124.383430 356.035339,130.819611 
M342.009552,131.556900 
	C343.006592,132.499832 344.003632,133.442764 345.000671,134.385681 
	C345.410706,134.009216 345.820740,133.632751 346.230804,133.256287 
	C345.625671,129.825378 345.020538,126.394485 344.415405,122.963585 
	C344.126251,123.020943 343.837067,123.078300 343.547913,123.135658 
	C343.056091,125.648643 342.564301,128.161636 342.009552,131.556900 
z"/>
<path fill="#E9C070" opacity="1.000000" stroke="none" 
	d="
M296.310181,148.095459 
	C289.194733,144.311646 288.350067,142.426849 289.426239,133.222458 
	C292.492249,133.222458 295.587128,133.222458 298.155609,133.222458 
	C299.205780,135.763702 300.131592,138.003998 301.215240,140.626266 
	C305.229645,138.013138 305.293884,135.658127 302.620697,133.144775 
	C299.016663,129.756241 294.973480,126.772766 291.726898,123.080711 
	C287.009888,117.716438 286.982178,110.850807 291.171722,105.291405 
	C294.728516,100.571609 301.986359,99.894409 307.828857,102.054482 
	C312.730133,103.866547 315.193024,109.164268 314.823456,116.698715 
	C311.426086,116.698715 308.006897,116.698715 304.181671,116.698715 
	C304.125214,115.999977 304.230438,115.172897 303.967773,114.486633 
	C303.386902,112.968880 302.621063,111.521957 301.930664,110.046143 
	C301.234161,110.534462 299.980774,110.983856 299.943420,111.518242 
	C299.821045,113.269196 299.478333,115.627563 300.419403,116.708977 
	C302.880188,119.536766 305.754669,122.140099 308.864746,124.239647 
	C315.718506,128.866501 316.506927,136.764572 313.670471,142.737854 
	C311.022766,148.313614 304.418030,150.346542 296.310181,148.095459 
z"/>
<path fill="#E9C070" opacity="1.000000" stroke="none" 
	d="
M56.980698,45.872574 
	C53.091213,40.651161 52.847519,33.142616 56.360184,28.196251 
	C59.208988,24.184704 67.478325,22.762196 73.590752,25.232210 
	C79.057785,27.441423 80.604507,31.138050 79.562759,39.783592 
	C76.501419,39.783592 73.411957,39.783592 70.857521,39.783592 
	C69.790413,37.230007 68.855362,34.992413 67.790092,32.443226 
	C64.031769,36.054485 64.226181,39.468246 67.460808,41.932026 
	C70.826767,44.495842 74.467812,46.857246 77.280945,49.950665 
	C81.434669,54.518257 82.229233,59.403614 79.321693,65.185188 
	C76.742043,70.314758 72.381050,72.185699 66.826775,72.022705 
	C60.781044,71.845276 56.499722,69.438873 54.804695,64.142868 
	C54.082703,61.887058 53.976383,57.521202 55.026367,56.998386 
	C57.417587,55.807747 60.703903,56.256168 63.607956,56.403549 
	C64.117332,56.429401 64.535286,58.232635 64.997726,59.213951 
	C65.582359,60.454556 66.169312,61.694065 66.755272,62.934044 
	C67.512634,62.546738 68.808144,62.279652 68.926552,61.749611 
	C69.282860,60.154648 69.913734,57.752274 69.122475,56.929493 
	C66.553764,54.258465 63.356201,52.202103 60.488731,49.803905 
	C59.229588,48.750832 58.182953,47.443653 56.980698,45.872574 
z"/>
<path fill="#E9C070" opacity="1.000000" stroke="none" 
	d="
M551.001587,116.555862 
	C550.999023,103.495544 558.324036,98.120300 569.925049,101.966957 
	C574.328491,103.427048 578.535400,109.508240 576.590393,116.760300 
	C573.720398,116.760300 570.773499,116.760300 567.547058,116.760300 
	C566.730225,114.630569 565.835938,112.298836 564.925232,109.924385 
	C560.298340,112.458618 559.791260,114.036079 563.031128,117.367439 
	C565.504272,119.910484 568.519836,121.956398 571.422791,124.044617 
	C576.895325,127.981232 579.199097,138.827225 575.539978,143.951660 
	C571.647217,149.403381 560.506104,150.969940 555.065308,146.431366 
	C551.101562,143.124939 550.306885,138.447052 551.312805,133.234070 
	C554.293274,133.234070 557.241150,133.234070 560.255371,133.234070 
	C561.121399,135.416534 562.042053,137.736511 562.987854,140.120041 
	C567.889465,137.434830 567.676147,134.650009 563.649414,131.114960 
	C559.208496,127.216301 555.285339,122.725624 551.185242,118.446213 
	C550.913452,118.162521 551.054016,117.483788 551.001587,116.555862 
z"/>
<path fill="#E9C070" opacity="1.000000" stroke="none" 
	d="
M371.999939,140.936295 
	C371.999939,143.400131 371.999939,145.377304 371.999939,147.676392 
	C368.383728,147.676392 364.992279,147.676392 361.297058,147.676392 
	C361.297058,132.685211 361.297058,117.639404 361.297058,101.696007 
	C367.969574,102.060593 374.794830,101.651146 381.242920,103.019341 
	C386.986847,104.238129 390.545807,112.686897 388.879700,119.072777 
	C386.818726,126.971977 382.872192,129.831802 376.600677,129.024338 
	C375.303101,128.857269 373.965637,129.000092 371.999939,129.000092 
	C371.999939,132.928864 371.999939,136.689240 371.999939,140.936295 
M371.999969,114.634735 
	C371.999969,117.041916 371.999969,119.449097 371.999969,122.204361 
	C376.462799,121.244774 378.368958,119.113945 377.991089,115.177551 
	C377.663391,111.763855 375.954773,109.908607 372.182373,110.170845 
	C372.117645,111.435486 372.058807,112.585373 371.999969,114.634735 
z"/>
<path fill="#E9C070" opacity="1.000000" stroke="none" 
	d="
M330.000000,65.876747 
	C329.928284,67.804321 329.856537,69.247833 329.777649,70.835602 
	C326.189331,70.835602 322.915192,70.835602 319.319885,70.835602 
	C319.319885,55.744080 319.319885,40.703011 319.319885,25.046362 
	C325.442688,25.046362 331.782806,24.422163 337.889954,25.342857 
	C340.458405,25.730062 343.223694,29.001259 344.679962,31.635571 
	C347.122467,36.053947 347.683350,46.577255 341.413391,49.869560 
	C338.244293,51.533604 334.405823,51.922798 330.000000,53.125996 
	C330.000000,56.544842 330.000000,60.968765 330.000000,65.876747 
M334.999969,41.492023 
	C336.439850,36.689621 335.032104,34.105473 330.252991,33.169796 
	C330.252991,37.059124 330.252991,40.901398 330.252991,45.646469 
	C332.197571,44.251572 333.568787,43.267979 334.999969,41.492023 
z"/>
<path fill="#E9C070" opacity="1.000000" stroke="none" 
	d="
M64.999802,135.740295 
	C64.999763,128.452896 65.460785,121.595413 64.887489,114.825508 
	C64.103767,105.570763 71.268539,100.670311 79.613365,100.866219 
	C86.076645,101.017960 93.553215,107.738396 91.804451,115.683731 
	C88.472870,115.683731 85.062958,115.683731 81.180611,115.683731 
	C81.121124,114.742592 81.339699,113.530754 80.909103,112.628876 
	C80.424904,111.614738 79.354942,110.880264 78.539810,110.024139 
	C77.694519,111.014076 76.141647,111.986107 76.116066,112.996803 
	C75.914093,120.974258 75.914352,128.961304 76.112732,136.938934 
	C76.138405,137.971527 77.651299,138.967117 78.475296,139.979858 
	C79.315872,138.977707 80.317429,138.063843 80.934265,136.939011 
	C81.282318,136.304321 80.997032,135.322327 80.997032,134.248260 
	C84.581551,134.248260 88.012177,134.248260 91.440811,134.248260 
	C92.725128,142.079086 88.094849,148.398209 80.672386,148.998245 
	C70.983337,149.781494 65.094246,144.975906 64.999802,135.740295 
z"/>
<path fill="#E9C070" opacity="1.000000" stroke="none" 
	d="
M56.991791,126.858032 
	C54.270134,128.158600 51.553833,128.994690 48.330803,129.986740 
	C48.330803,132.574356 48.330803,135.970932 48.330803,139.831802 
	C52.951614,139.831802 57.687191,139.831802 62.706451,139.831802 
	C62.706451,142.668579 62.706451,145.061142 62.706451,147.730927 
	C54.312271,147.730927 45.923252,147.730927 37.266373,147.730927 
	C37.266373,132.616928 37.266373,117.579842 37.266373,102.270615 
	C45.719910,102.270615 54.104469,102.270615 62.745613,102.270615 
	C62.745613,104.744255 62.745613,107.135323 62.745613,109.983612 
	C57.896076,109.983612 53.155819,109.983612 48.217873,109.983612 
	C48.217873,113.699364 48.217873,116.974007 48.217873,120.755203 
	C50.827202,120.881584 53.562939,121.014091 56.997150,121.180428 
	C56.997150,122.901733 56.997150,124.647636 56.991791,126.858032 
z"/>
<path fill="#E9C070" opacity="1.000000" stroke="none" 
	d="
M443.000275,128.897247 
	C443.106628,131.854797 442.868835,134.416000 443.458527,136.769897 
	C443.772552,138.023453 445.518219,138.918381 446.617676,139.975189 
	C447.403412,138.876694 448.311981,137.841705 448.925903,136.654373 
	C449.260284,136.007690 449.094696,135.102493 449.162354,134.211426 
	C452.823914,134.211426 456.262573,134.211426 459.683411,134.211426 
	C460.309174,142.616074 455.202301,148.672653 447.678253,149.032120 
	C438.334473,149.478516 432.508331,144.536087 432.930573,135.751740 
	C433.273590,128.616089 433.000214,121.450829 433.000275,114.298698 
	C433.000366,104.876297 437.448669,100.794426 447.492493,101.000290 
	C455.131836,101.156860 460.228790,107.121162 459.832245,115.727310 
	C456.420441,115.727310 452.990540,115.727310 450.173737,115.727310 
	C448.758331,113.642296 447.533386,111.837830 446.308441,110.033363 
	C445.205750,112.334930 443.488068,114.548302 443.142426,116.958435 
	C442.604889,120.706894 443.000275,124.589134 443.000275,128.897247 
z"/>
<path fill="#E9C070" opacity="1.000000" stroke="none" 
	d="
M524.999878,41.002884 
	C524.999878,35.530277 524.999878,30.556852 524.999878,25.293163 
	C533.352356,25.293163 541.417908,25.293163 549.742798,25.293163 
	C549.742798,27.746082 549.742798,30.140720 549.742798,32.831551 
	C545.330139,32.831551 541.044556,32.831551 536.379578,32.831551 
	C536.379578,36.504528 536.379578,39.900372 536.379578,43.799721 
	C538.557739,43.906616 540.965088,44.024761 543.684692,44.158230 
	C543.684692,46.609230 543.684692,49.012386 543.684692,51.774929 
	C541.340027,51.903458 538.926392,52.035767 536.261841,52.181831 
	C536.261841,55.719151 536.261841,59.120689 536.261841,62.991589 
	C540.792786,62.991589 545.207520,62.991589 549.800415,62.991589 
	C549.800415,65.738335 549.800415,68.024216 549.800415,70.655960 
	C541.804565,70.655960 533.728821,70.655960 524.999878,70.655960 
	C524.999878,61.023975 524.999878,51.263020 524.999878,41.002884 
z"/>
<path fill="#E9C070" opacity="1.000000" stroke="none" 
	d="
M367.564209,44.422287 
	C367.898041,47.030216 367.898041,49.313084 367.898041,51.550068 
	C358.700195,52.653461 358.700195,52.653461 359.184357,62.999912 
	C361.561615,62.999912 363.983307,62.999912 366.405029,62.999912 
	C368.716858,62.999912 371.028656,62.999912 373.667206,62.999912 
	C373.667206,65.600433 373.667206,67.994095 373.667206,70.698349 
	C365.717468,70.698349 357.659363,70.698349 349.299072,70.698349 
	C349.299072,55.686859 349.299072,40.649914 349.299072,25.305559 
	C357.310303,25.305559 365.360901,25.305559 373.706665,25.305559 
	C373.706665,27.675428 373.706665,30.065294 373.706665,32.918953 
	C368.968933,32.918953 364.227417,32.918953 359.252075,32.918953 
	C359.252075,36.758537 359.252075,40.149719 359.252075,44.097229 
	C362.009216,44.097229 364.619781,44.097229 367.564209,44.422287 
z"/>
<path fill="#E9C070" opacity="1.000000" stroke="none" 
	d="
M196.006256,68.762436 
	C196.001236,56.668095 196.001236,45.053398 196.001236,33.162796 
	C192.972916,33.162796 190.360535,33.162796 187.372955,33.162796 
	C187.372955,30.496901 187.372955,28.092747 187.372955,25.340342 
	C196.527435,25.340342 205.930008,25.340342 215.667191,25.340342 
	C215.667191,27.603228 215.667191,29.994001 215.667191,32.852203 
	C213.023209,32.852203 210.284576,32.852203 207.095047,32.852203 
	C207.095047,45.690739 207.095047,58.091629 207.095047,71.859955 
	C202.942856,70.879250 199.477066,70.060661 196.006256,68.762436 
z"/>
<path fill="#E9C070" opacity="1.000000" stroke="none" 
	d="
M30.021149,109.999992 
	C26.740322,109.539818 25.898396,110.692421 25.937019,113.529625 
	C26.090786,124.825340 26.000360,136.124374 26.000360,147.709885 
	C22.317450,147.709885 18.923594,147.709885 15.063920,147.709885 
	C15.063920,135.266556 15.063920,122.866333 15.063920,110.019943 
	C11.880815,110.019943 9.143434,110.019943 6.208134,110.019943 
	C6.208134,107.285263 6.208134,105.000221 6.208134,102.356567 
	C15.503154,102.356567 24.903645,102.356567 34.652992,102.356567 
	C34.652992,104.578598 34.652992,106.972618 34.652992,109.753334 
	C33.363853,109.829720 31.927910,109.914795 30.021149,109.999992 
z"/>
<path fill="#E9C070" opacity="1.000000" stroke="none" 
	d="
M134.998566,38.134895 
	C134.926224,36.197914 134.853912,34.745792 134.769318,33.047203 
	C131.859421,33.047203 129.245300,33.047203 126.317230,33.047203 
	C126.317230,30.384619 126.317230,27.984613 126.317230,25.288017 
	C135.656235,25.288017 145.056305,25.288017 154.729218,25.288017 
	C154.729218,27.718899 154.729218,30.112597 154.729218,32.965862 
	C151.909378,32.965862 149.171890,32.965862 145.988403,32.965862 
	C145.988403,45.807735 145.988403,58.205551 145.988403,70.797028 
	C142.261017,70.797028 138.981339,70.797028 134.998566,70.797028 
	C134.998566,60.112621 134.998566,49.366192 134.998566,38.134895 
z"/>
<path fill="#E9C070" opacity="1.000000" stroke="none" 
	d="
M178.776047,140.000061 
	C185.708755,139.290924 183.703384,143.987976 183.977753,147.642944 
	C175.520447,147.642944 167.134460,147.642944 158.371979,147.642944 
	C158.371979,132.725403 158.371979,117.576462 158.371979,102.212357 
	C161.710648,102.212357 164.986359,102.212357 168.691788,102.212357 
	C168.691788,114.484917 168.691788,126.862747 168.691788,140.000031 
	C172.170776,140.000031 175.240555,140.000031 178.776047,140.000061 
z"/>
<path fill="#E9C070" opacity="1.000000" stroke="none" 
	d="
M390.998657,112.032425 
	C390.998657,108.569344 390.998657,105.600288 390.998657,102.316719 
	C394.622589,102.316719 398.010529,102.316719 401.829529,102.316719 
	C401.829529,114.633705 401.829529,127.006897 401.829529,140.000015 
	C404.817261,140.000015 407.410156,139.999664 410.003052,140.000076 
	C417.305237,140.001282 417.305237,140.001404 416.729309,147.733688 
	C408.362457,147.733688 399.971130,147.733688 390.998657,147.733688 
	C390.998657,135.982666 390.998657,124.254555 390.998657,112.032425 
z"/>
<path fill="#E9C070" opacity="1.000000" stroke="none" 
	d="
M91.000366,52.999290 
	C91.000366,46.197578 91.000366,39.895412 91.000366,33.138771 
	C87.998131,33.138771 85.265640,33.138771 82.268997,33.138771 
	C82.268997,30.291414 82.268997,27.894600 82.268997,25.245850 
	C91.754242,25.245850 101.152969,25.245850 110.776405,25.245850 
	C110.776405,27.684427 110.776405,29.963121 110.776405,32.429260 
	C110.527184,32.548840 110.112991,32.908333 109.681053,32.931091 
	C101.000748,33.388466 101.000328,33.380665 101.000313,41.885330 
	C101.000298,51.361252 101.000305,60.837173 101.000305,70.655914 
	C97.756371,70.655914 94.694221,70.655914 91.000366,70.655914 
	C91.000366,65.025322 91.000366,59.262077 91.000366,52.999290 
z"/>
<path fill="#E9C070" opacity="1.000000" stroke="none" 
	d="
M418.000671,122.000336 
	C418.000671,115.209038 418.000671,108.917625 418.000671,102.313995 
	C421.632080,102.313995 425.020508,102.313995 428.708130,102.313995 
	C428.708130,117.308136 428.708130,132.338943 428.708130,147.685822 
	C425.370270,147.685822 421.981781,147.685822 418.000671,147.685822 
	C418.000671,139.321960 418.000671,130.911087 418.000671,122.000336 
z"/>
<path fill="#E9C070" opacity="1.000000" stroke="none" 
	d="
M112.999878,39.007133 
	C112.999878,34.211372 112.999878,29.913847 112.999878,25.309402 
	C116.638214,25.309402 120.027130,25.309402 123.711639,25.309402 
	C123.711639,40.315449 123.711639,55.347450 123.711639,70.690506 
	C120.362053,70.690506 116.973198,70.690506 112.999878,70.690506 
	C112.999878,60.316658 112.999878,49.911011 112.999878,39.007133 
z"/>
<path fill="#E9C070" opacity="1.000000" stroke="none" 
	d="
M245.000702,108.103378 
	C245.000702,105.970879 245.000702,104.324852 245.000702,102.339844 
	C248.584488,102.339844 251.971237,102.339844 255.684937,102.339844 
	C255.684937,117.260864 255.684937,132.294754 255.684937,147.665375 
	C252.408997,147.665375 249.019516,147.665375 245.000702,147.665375 
	C245.000702,134.709030 245.000702,121.649445 245.000702,108.103378 
z"/>
<path fill="#E9C070" opacity="1.000000" stroke="none" 
	d="
M17.993578,68.761986 
	C16.388271,69.827438 14.828765,70.658890 13.176682,70.933617 
	C11.403322,71.228508 9.542957,71.000191 7.360793,71.000191 
	C7.360793,55.834038 7.360793,40.797615 7.360793,25.379650 
	C10.507103,25.379650 13.897601,25.379650 17.998625,25.379650 
	C17.998625,39.522148 17.998625,53.902527 17.993578,68.761986 
z"/>
<path fill="#E9C070" opacity="1.000000" stroke="none" 
	d="
M407.000336,33.060829 
	C407.000336,30.262760 407.000336,27.955050 407.000336,25.324587 
	C410.276825,25.324587 413.334778,25.324587 416.700256,25.324587 
	C416.700256,40.285603 416.700256,55.320526 416.700256,70.678612 
	C413.718414,70.678612 410.660339,70.678612 407.000336,70.678612 
	C407.000336,58.349094 407.000336,45.950142 407.000336,33.060829 
z"/>
<path fill="#E9C070" opacity="1.000000" stroke="none" 
	d="
M521.907166,59.536438 
	C521.255371,59.268944 520.172729,58.535172 520.176575,57.807247 
	C520.212830,51.078499 520.436646,44.350750 520.857300,37.287300 
	C521.405823,42.203117 521.738220,47.452698 521.982727,52.706371 
	C522.081177,54.823921 521.986877,56.950443 521.907166,59.536438 
z"/>
<path fill="#000000" opacity="0" stroke="none" 
	d="
M504.021332,138.459229 
	C504.003357,128.742996 504.003357,119.477440 504.003357,110.211891 
	C504.545380,109.938622 505.087402,109.665359 505.629425,109.392097 
	C506.752502,111.104729 508.749054,112.770134 508.844635,114.538307 
	C509.220734,121.495651 509.106873,128.487778 508.948425,135.461853 
	C508.880219,138.464584 507.998871,141.079468 504.021332,138.459229 
z"/>
<path fill="#000000" opacity="0" stroke="none" 
	d="
M138.000107,115.426605 
	C138.874069,113.151413 139.747864,111.329895 140.820297,109.094307 
	C144.867645,113.657921 145.106216,135.322433 141.081741,141.258545 
	C139.833588,138.665665 138.230927,136.798141 138.126480,134.850281 
	C137.788300,128.542816 138.000031,122.205872 138.000107,115.426605 
z"/>
<path fill="#000000" opacity="0" stroke="none" 
	d="
M467.997192,37.240753 
	C467.919342,38.978981 468.271942,40.570656 467.654480,41.551876 
	C466.799744,42.910110 465.215118,43.809017 463.943024,44.904594 
	C463.295563,43.577839 462.259766,42.299702 462.086273,40.913616 
	C461.780365,38.470245 462.000641,35.961010 462.000641,33.479347 
	C462.401337,33.105400 462.802032,32.731453 463.202728,32.357506 
	C464.800171,33.845657 466.397614,35.333805 467.997192,37.240753 
z"/>
<path fill="#000000" opacity="0" stroke="none" 
	d="
M388.132446,44.562767 
	C387.460907,40.589062 387.086823,36.916965 386.712769,33.244869 
	C387.303650,32.897316 387.894531,32.549763 388.485413,32.202209 
	C389.989227,33.860859 392.374603,35.321079 392.802490,37.221924 
	C393.555176,40.565948 393.298004,44.290264 388.132446,44.562767 
z"/>
<path fill="#000000" opacity="0" stroke="none" 
	d="
M432.000000,41.143726 
	C432.000153,39.498535 431.709991,38.232330 432.070099,37.190990 
	C432.580963,35.713531 433.570740,34.401672 434.355896,33.019062 
	C435.520996,34.224190 437.638123,35.386261 437.694855,36.641510 
	C438.032776,44.114346 438.079559,51.617001 437.745422,59.088242 
	C437.685394,60.430473 435.395111,61.672970 434.134552,62.961525 
	C433.423157,61.511223 432.161255,60.084461 432.098053,58.606434 
	C431.856323,52.954266 432.000122,47.285606 432.000000,41.143726 
z"/>
<path fill="#000000" opacity="0" stroke="none" 
	d="
M201.000900,123.021133 
	C201.000214,127.843124 201.141266,132.179031 200.906250,136.494461 
	C200.841782,137.678329 199.651352,138.800873 198.977600,139.951553 
	C197.936508,139.117905 196.742722,138.411163 195.907623,137.406311 
	C195.344193,136.728378 195.050690,135.632553 195.040710,134.719254 
	C194.969681,128.227753 194.752716,121.719193 195.164062,115.253075 
	C195.279007,113.446228 197.345779,111.763535 198.517181,110.023880 
	C199.345047,111.694664 200.598587,113.293175 200.897522,115.053772 
	C201.309616,117.480835 201.000870,120.030296 201.000900,123.021133 
z"/>
<path fill="#000000" opacity="0" stroke="none" 
	d="
M233.000900,43.074623 
	C233.000153,48.891464 233.119324,54.224072 232.904648,59.543201 
	C232.857742,60.705391 231.619308,61.819492 230.929626,62.955742 
	C229.900650,62.104897 228.662720,61.404331 227.908615,60.355785 
	C227.302277,59.512684 227.052612,58.251259 227.038940,57.170464 
	C226.961044,51.011219 226.718307,44.829826 227.165375,38.702206 
	C227.308807,36.736210 229.380630,34.910912 230.570190,33.021240 
	C231.380417,34.877399 232.375092,36.680092 232.934250,38.609035 
	C233.290421,39.837730 233.000900,41.253609 233.000900,43.074623 
z"/>
<path fill="#000000" opacity="0" stroke="none" 
	d="
M510.046570,60.800106 
	C508.577637,61.928967 507.210022,62.635246 505.296021,63.623714 
	C505.296021,52.964897 505.296021,43.105053 505.296021,31.578676 
	C507.723083,33.829327 510.609131,35.251465 510.652985,36.756420 
	C510.882080,44.618538 510.389496,52.501686 510.046570,60.800106 
z"/>
<path fill="#000000" opacity="0" stroke="none" 
	d="
M536.445557,124.938080 
	C537.101257,127.959404 537.477966,130.691376 537.891418,133.690002 
	C536.777222,133.794479 535.674744,133.897842 533.838074,134.070068 
	C534.307800,130.108322 534.740295,126.460953 535.175354,122.791504 
	C535.380554,122.808655 535.508179,122.783218 535.586548,122.833961 
	C535.719666,122.920166 535.893921,123.038132 535.923889,123.171326 
	C536.033142,123.657417 536.089966,124.155289 536.445557,124.938080 
z"/>
<path fill="#000000" opacity="0" stroke="none" 
	d="
M473.500366,133.082062 
	C474.247406,128.725861 474.735870,124.698929 475.386688,119.333290 
	C476.325256,124.926567 477.038269,129.175644 477.856750,134.053314 
	C476.267365,133.832214 474.754578,133.621780 473.500366,133.082062 
z"/>
<path fill="#000000" opacity="0" stroke="none" 
	d="
M274.967834,127.223038 
	C275.209015,129.558472 275.425598,131.466431 275.684326,133.745834 
	C274.511261,133.825012 273.104858,133.919937 271.458405,134.031067 
	C272.094055,129.377457 272.688568,125.024963 273.362701,120.089775 
	C273.987061,122.738739 274.465149,124.767151 274.967834,127.223038 
z"/>
<path fill="#000000" opacity="0" stroke="none" 
	d="
M342.041016,131.115753 
	C342.564301,128.161636 343.056091,125.648643 343.547913,123.135658 
	C343.837067,123.078300 344.126251,123.020943 344.415405,122.963585 
	C345.020538,126.394485 345.625671,129.825378 346.230804,133.256287 
	C345.820740,133.632751 345.410706,134.009216 345.000671,134.385681 
	C344.003632,133.442764 343.006592,132.499832 342.041016,131.115753 
z"/>
<path fill="#000000" opacity="0" stroke="none" 
	d="
M371.999969,114.184998 
	C372.058807,112.585373 372.117645,111.435486 372.182373,110.170845 
	C375.954773,109.908607 377.663391,111.763855 377.991089,115.177551 
	C378.368958,119.113945 376.462799,121.244774 371.999969,122.204361 
	C371.999969,119.449097 371.999969,117.041916 371.999969,114.184998 
z"/>
<path fill="#000000" opacity="0" stroke="none" 
	d="
M334.969971,41.888206 
	C333.568787,43.267979 332.197571,44.251572 330.252991,45.646469 
	C330.252991,40.901398 330.252991,37.059124 330.252991,33.169796 
	C335.032104,34.105473 336.439850,36.689621 334.969971,41.888206 
z"/>
</svg>