<?xml version="1.0" encoding="utf-8"?>
<!-- Generator: Adobe Illustrator 27.5.0, SVG Export Plug-In . SVG Version: 6.00 Build 0)  -->
<svg version="1.1" xmlns="http://www.w3.org/2000/svg" xmlns:xlink="http://www.w3.org/1999/xlink" x="0px" y="0px"
	 viewBox="0 0 2475 1650" style="enable-background:new 0 0 2475 1650;" xml:space="preserve">
<g id="Background">
	<rect style="fill:none;" width="2475" height="1650"/>
</g>
<g id="Illustration">
	<g>
		<g>
			
				<linearGradient id="SVGID_1_" gradientUnits="userSpaceOnUse" x1="1965.7589" y1="822.1434" x2="25.2208" y2="829.4658" gradientTransform="matrix(0.9998 -0.0186 0.0186 0.9998 0.2557 23.3991)">
				<stop  offset="0" style="stop-color:#B37CFF"/>
				<stop  offset="1" style="stop-color:#F895E7"/>
			</linearGradient>
			<path style="opacity:0.26;fill:url(#SVGID_1_);" d="M2173.026,908.612l-42.765-48.837c0,0-192.012-169.815-198.85-361.435
				s-91.862-217.377-295.328-229.412c-172.019-10.175-370.862-39.024-530.689,69.721c-70.14,47.723-153.155,71.979-237.323,69.078
				l-185.515-6.396c-88.511-3.051-175.614,23.851-247.586,76.692c-106.697,78.335-221.595,222.535-174.721,467.786
				c7.959,41.644,12.992,85.298,13.783,127.72l1.941,104.204c1.705,91.514,73.14,165.391,162.385,167.344l1392.416,30.489
				c143.146,3.133,280.755-55.875,379.096-162.48c26.224-28.427,40.453-66.284,39.724-105.426
				C2248.223,1034.063,2221.008,963.408,2173.026,908.612z"/>
			
				<linearGradient id="SVGID_00000057832134199984725340000009843570846833036456_" gradientUnits="userSpaceOnUse" x1="1921.3306" y1="813.806" x2="94.4358" y2="820.6997" gradientTransform="matrix(0.9998 -0.0186 0.019 1.0182 0.5943 18.9207)">
				<stop  offset="0" style="stop-color:#B37CFF"/>
				<stop  offset="1" style="stop-color:#F895E7"/>
			</linearGradient>
			<path style="opacity:0.26;fill:url(#SVGID_00000057832134199984725340000009843570846833036456_);" d="M2118.007,903.547
				l-40.217-44.894c0,0-180.59-156.089-186.947-332.303c-6.358-176.214-86.344-199.867-277.771-210.854
				c-161.842-9.29-348.914-35.74-499.332,64.326c-66.011,43.914-144.125,66.254-223.315,63.619l-174.541-5.808
				c-83.276-2.771-165.238,22.004-232.974,70.625c-100.418,72.08-209.928,204.759-165.923,430.278
				c7.471,38.293,10.839,78.462,11.566,117.473l1.785,95.827c1.568,84.157,70.1,152.042,154.066,153.803l1310.732,27.474
				c134.678,2.825,264.511-51.501,357.078-149.576c24.684-26.153,38.255-60.975,37.585-96.97
				C2188.538,1018.887,2163.129,953.919,2118.007,903.547z"/>
		</g>
		<g>
			
				<linearGradient id="SVGID_00000108308003415610085190000017433808976296823212_" gradientUnits="userSpaceOnUse" x1="2056.3677" y1="-5783.9419" x2="2675.697" y2="-5783.9419" gradientTransform="matrix(-0.4745 -0.8803 -0.8803 0.4745 -2018.493 5725.7808)">
				<stop  offset="0" style="stop-color:#A737D5"/>
				<stop  offset="1" style="stop-color:#EF497A"/>
			</linearGradient>
			<path style="fill:url(#SVGID_00000108308003415610085190000017433808976296823212_);" d="M2208.575,420.993
				c22.908,104.593,127.66,720.035-516.101,955.994c0,0-188.414-381.289,499.132-960.023
				C2197.62,411.901,2207.078,414.16,2208.575,420.993z"/>
			<path style="opacity:0.86;fill:#FFFFFF;" d="M2154.927,522.503c-7.167,36.744-15.901,73.081-25.272,109.274
				c-9.468,36.161-19.776,72.104-30.921,107.788c-22.215,71.393-48.06,141.672-77.573,210.414
				c-14.937,34.294-30.851,68.165-47.795,101.533c-17.202,33.237-35.52,65.899-55.081,97.835
				c-19.897,31.726-41.022,62.698-63.764,92.504c-23.057,29.562-47.67,57.924-74.097,84.599c-1.471,1.485-3.867,1.496-5.352,0.026
				c-1.485-1.471-1.496-3.868-0.025-5.352l0.013-0.013l0.041-0.041c26.289-26.283,50.834-54.283,73.866-83.518
				c22.722-29.485,43.871-60.166,63.818-91.629c19.614-31.678,38.011-64.106,55.308-97.132
				c17.041-33.159,33.068-66.84,48.128-100.963c29.762-68.4,55.895-138.4,78.415-209.554
				c11.298-35.564,21.764-71.397,31.392-107.454c9.527-36.07,18.435-72.362,25.748-108.907l0.006-0.032
				c0.174-0.869,1.019-1.431,1.887-1.257C2154.537,520.797,2155.101,521.635,2154.927,522.503z"/>
		</g>
		<g>
			
				<linearGradient id="SVGID_00000049918372792148628780000005330774405346273979_" gradientUnits="userSpaceOnUse" x1="2613.751" y1="-203.2695" x2="2281.3301" y2="1310.6705" gradientTransform="matrix(0.9943 0.1064 -0.1064 0.9943 -561.0618 -22.3314)">
				<stop  offset="0" style="stop-color:#CB236D"/>
				<stop  offset="1" style="stop-color:#4C246D"/>
			</linearGradient>
			<path style="fill:url(#SVGID_00000049918372792148628780000005330774405346273979_);" d="M1931.614,220.71
				c55.666,109.882,349.159,761.55-313.532,1127.727c0,0-321.834-382.723,293.153-1129.223
				C1916.615,212.683,1927.977,213.531,1931.614,220.71z"/>
			
				<linearGradient id="SVGID_00000049904621634101064960000010679476056196101275_" gradientUnits="userSpaceOnUse" x1="1663.5298" y1="814.1992" x2="1902.7837" y2="814.1992">
				<stop  offset="0" style="stop-color:#B37CFF"/>
				<stop  offset="1" style="stop-color:#F895E7"/>
			</linearGradient>
			<path style="opacity:0.6;fill:url(#SVGID_00000049904621634101064960000010679476056196101275_);" d="M1899.228,340.092
				c1.501,20.749,2.299,41.48,2.874,62.237c0.547,20.753,0.749,41.514,0.663,62.272c-0.16,41.519-1.55,83.032-4.073,124.478
				c-5.142,82.876-14.875,165.549-30.884,247.104c-16.043,81.494-38.261,162.03-69.942,239.024
				c-15.824,38.475-34.137,75.983-55.334,111.852c-10.674,17.884-21.906,35.457-34.081,52.384
				c-12.194,16.908-25.124,33.292-38.819,49.035c-1.26,1.449-3.457,1.601-4.906,0.341s-1.601-3.457-0.341-4.905l0.009-0.01
				l0.021-0.024c13.599-15.506,26.454-31.662,38.595-48.351c12.121-16.709,23.32-34.076,33.975-51.766
				c21.162-35.481,39.499-72.651,55.383-110.834c31.803-76.408,54.267-156.532,70.585-237.707
				c16.287-81.239,26.334-163.689,31.799-246.391c2.686-41.359,4.24-82.798,4.567-124.249c0.169-20.725,0.051-41.453-0.412-62.173
				c-0.489-20.711-1.206-41.451-2.615-62.086l-0.001-0.023c-0.055-0.812,0.557-1.515,1.369-1.57
				C1898.47,338.673,1899.172,339.28,1899.228,340.092z"/>
		</g>
		<g>
			
				<linearGradient id="SVGID_00000067947721464874617560000003684582636019315855_" gradientUnits="userSpaceOnUse" x1="2607.2581" y1="-4727.6904" x2="3010.6951" y2="-4727.6904" gradientTransform="matrix(-0.0949 -0.9954 -0.9954 0.0949 -2443.6472 4388.4473)">
				<stop  offset="0" style="stop-color:#CB236D"/>
				<stop  offset="1" style="stop-color:#4C246D"/>
			</linearGradient>
			<path style="fill:url(#SVGID_00000067947721464874617560000003684582636019315855_);" d="M2231.914,925.912
				c-11.768,66.77-96.117,452.536-472.331,438.408c0,0-9.846-268.259,464.696-444.791
				C2228.43,917.985,2232.683,921.55,2231.914,925.912z"/>
			<path style="opacity:0.86;fill:#FFFFFF;" d="M2183.313,973.099c-10.853,19.713-23.072,38.43-35.777,56.871
				c-12.759,18.388-26.23,36.277-40.26,53.715c-14.038,17.432-28.665,34.392-43.824,50.871
				c-15.213,16.427-30.983,32.339-47.228,47.759c-16.216,15.455-33.167,30.123-50.411,44.429
				c-8.725,7.029-17.415,14.108-26.401,20.807c-8.834,6.901-18.019,13.331-27.1,19.904c-36.684,25.788-75.364,48.772-115.573,68.736
				c-2.25,1.117-4.979,0.199-6.096-2.052c-1.117-2.249-0.199-4.978,2.051-6.095l0.04-0.02l0.03-0.015
				c39.958-19.356,78.483-41.735,115.097-66.94c9.065-6.428,18.236-12.714,27.064-19.473c8.979-6.557,17.667-13.496,26.394-20.386
				c17.25-14.028,34.224-28.427,50.481-43.621c16.285-15.158,32.112-30.817,47.396-47c15.229-16.232,29.941-32.957,44.075-50.16
				c14.125-17.209,27.702-34.876,40.574-53.044c12.8-18.189,25.196-36.797,36.07-56.1l0.033-0.058
				c0.522-0.927,1.696-1.255,2.623-0.733C2183.492,971.011,2183.821,972.175,2183.313,973.099z"/>
		</g>
		<g>
			
				<linearGradient id="SVGID_00000134239232380819489700000013953554792490791843_" gradientUnits="userSpaceOnUse" x1="1016.0454" y1="1564.1685" x2="302.2491" y2="172.2667">
				<stop  offset="0" style="stop-color:#A737D5"/>
				<stop  offset="1" style="stop-color:#EF497A"/>
			</linearGradient>
			<path style="fill:url(#SVGID_00000134239232380819489700000013953554792490791843_);" d="M453.236,238.877
				c-34.436,112.919-208.001,778.229,387.06,1053.242c0,0,227.015-408.584-370.171-1057.123
				C464.9,229.322,455.485,231.499,453.236,238.877z"/>
			<path style="opacity:0.86;fill:#FFFFFF;" d="M496.352,350.333c2.309,39.558,6.274,79.085,11.014,118.463
				c4.775,39.386,10.501,78.656,17.2,117.756c13.426,78.185,30.554,155.772,52.704,231.915
				c22.223,76.077,49.381,150.864,84.368,221.919c8.686,17.786,18.046,35.229,27.84,52.41c9.771,17.197,20.2,34.012,31.25,50.394
				c21.969,32.851,46.774,63.786,74.378,91.95l0.023,0.023c1.438,1.467,1.414,3.821-0.053,5.259
				c-1.467,1.438-3.821,1.414-5.259-0.052l-0.011-0.013c-27.859-28.678-52.792-60.079-74.813-93.327
				c-11.077-16.582-21.514-33.583-31.28-50.952c-9.789-17.353-19.132-34.957-27.79-52.89
				c-34.876-71.645-61.79-146.847-83.738-223.253c-21.873-76.472-38.684-154.298-51.782-232.682
				c-6.534-39.199-12.092-78.556-16.697-118.024c-4.571-39.476-8.361-79.023-10.501-118.753c-0.047-0.868,0.619-1.611,1.488-1.658
				c0.869-0.047,1.611,0.62,1.658,1.488L496.352,350.333z"/>
		</g>
		<g>
			
				<linearGradient id="SVGID_00000103239816694571074890000012205312876736128924_" gradientUnits="userSpaceOnUse" x1="3630.6064" y1="1840.9506" x2="4030.3049" y2="1840.9506" gradientTransform="matrix(0.3139 -0.9494 0.9494 0.3139 -2440.6125 4101.8521)">
				<stop  offset="0" style="stop-color:#CB236D"/>
				<stop  offset="1" style="stop-color:#4C246D"/>
			</linearGradient>
			<path style="fill:url(#SVGID_00000103239816694571074890000012205312876736128924_);" d="M329.402,780.642
				c-3.343,67.091-6.856,458.318,359.673,527.558c0,0,68.615-256.964-350.891-532.042
				C334.514,773.752,329.62,776.259,329.402,780.642z"/>
			<path style="opacity:0.86;fill:#FFFFFF;" d="M369.267,835.966c6.877,20.945,14.604,41.677,22.634,62.245
				c8.072,20.562,16.607,40.941,25.552,61.134c8.932,20.2,18.369,40.172,28.239,59.921c9.903,19.73,20.138,39.298,31.09,58.458
				c21.774,38.377,45.689,75.569,72.615,110.438c3.266,4.437,6.858,8.611,10.28,12.921l5.191,6.418
				c1.728,2.141,3.581,4.176,5.364,6.269c3.621,4.14,7.154,8.359,10.844,12.433l11.239,12.065
				c15.262,15.811,31.39,30.758,48.568,44.375l0.038,0.031c1.577,1.25,1.842,3.541,0.592,5.118c-1.25,1.577-3.541,1.842-5.118,0.592
				l-0.023-0.017c-17.389-14.007-33.635-29.31-48.961-45.442l-11.276-12.299c-3.699-4.15-7.236-8.44-10.861-12.652
				c-1.785-2.129-3.64-4.202-5.368-6.376l-5.19-6.519c-3.419-4.377-7.011-8.622-10.268-13.119
				c-26.876-35.38-50.623-72.976-72.19-111.696c-10.848-19.332-20.966-39.056-30.746-58.931
				c-9.746-19.894-19.053-40.001-27.849-60.325c-8.809-20.319-17.203-40.815-25.131-61.491
				c-7.891-20.696-15.457-41.489-22.212-62.626c-0.26-0.812,0.188-1.68,1-1.939c0.808-0.258,1.672,0.183,1.936,0.988
				L369.267,835.966z"/>
		</g>
		<g>
			<g>
				
					<linearGradient id="SVGID_00000077308152758699443250000004095184755576166281_" gradientUnits="userSpaceOnUse" x1="1129.1617" y1="1267.6744" x2="1409.353" y2="427.0981">
					<stop  offset="0" style="stop-color:#2B3582"/>
					<stop  offset="1" style="stop-color:#150E42"/>
				</linearGradient>
				<path style="fill:url(#SVGID_00000077308152758699443250000004095184755576166281_);" d="M1852.639,1298.168
					c0,12.055-9.872,21.918-21.939,21.918H644.345c-12.066,0-21.939-9.863-21.939-21.918l-9.872-681.765
					c0-12.055,14.202-35.588,40.231-33.82l1159.437-30.001c15.14-0.392,29.778,5.435,40.499,16.122
					c10.721,10.686,16.587,25.297,16.229,40.422L1852.639,1298.168z"/>
				
					<linearGradient id="SVGID_00000028287914040237642570000008719146564973053359_" gradientUnits="userSpaceOnUse" x1="1870.1335" y1="622.2194" x2="-768.2318" y2="2026.6052">
					<stop  offset="0" style="stop-color:#FDF53F"/>
					<stop  offset="1" style="stop-color:#D93C65"/>
				</linearGradient>
				<path style="fill:url(#SVGID_00000028287914040237642570000008719146564973053359_);" d="M1830.979,1277.141
					c0,11.416-9.34,20.755-20.755,20.755H672.954c-11.416,0-20.755-9.34-20.755-20.755l-9.315-618.913
					c1.097-37.245,33.75-50.631,53.544-49.84l1111.248-29.813c10.636-0.286,20.923,3.81,28.454,11.327s11.643,17.797,11.376,28.434
					L1830.979,1277.141z"/>
				<g>
					<path style="fill:#FFFFFF;" d="M664.49,982.029c-1.068,0-1.942-0.858-1.958-1.93l-0.737-50.193
						c-0.016-1.081,0.848-1.971,1.93-1.987c1.046-0.058,1.971,0.848,1.987,1.93l0.737,50.193c0.016,1.081-0.848,1.971-1.93,1.987
						C664.509,982.029,664.499,982.029,664.49,982.029z"/>
					<path style="fill:#FFFFFF;" d="M662.683,859.031c-1.068,0-1.942-0.858-1.958-1.93l-2.823-192.238
						c0.059-12.924,4.043-23.248,11.843-30.722c14.172-13.579,36.331-12.898,37.267-12.861l354.843-9.523
						c1.071-0.097,1.981,0.823,2.011,1.905c0.029,1.081-0.824,1.981-1.905,2.01l-354.957,9.523
						c-1.009-0.04-21.562-0.669-34.547,11.775c-7.004,6.711-10.583,16.09-10.636,27.873l2.823,192.2
						c0.016,1.082-0.848,1.971-1.93,1.987C662.703,859.031,662.693,859.031,662.683,859.031z"/>
				</g>
				<defs>
					<filter id="Adobe_OpacityMaskFilter" filterUnits="userSpaceOnUse" x="730.849" y="632.784" width="937.997" height="543.931">
						<feFlood  style="flood-color:white;flood-opacity:1" result="back"/>
						<feBlend  in="SourceGraphic" in2="back" mode="normal"/>
					</filter>
				</defs>
				
					<mask maskUnits="userSpaceOnUse" x="730.849" y="632.784" width="937.997" height="543.931" id="SVGID_00000042011767992030765290000007286422811872715707_">
					<g style="filter:url(#Adobe_OpacityMaskFilter);">
						<defs>
							
								<filter id="Adobe_OpacityMaskFilter_00000021098428238750416530000001960578917716639632_" filterUnits="userSpaceOnUse" x="730.849" y="632.784" width="937.997" height="543.931">
								<feFlood  style="flood-color:white;flood-opacity:1" result="back"/>
								<feBlend  in="SourceGraphic" in2="back" mode="normal"/>
							</filter>
						</defs>
						
							<mask maskUnits="userSpaceOnUse" x="730.849" y="632.784" width="937.997" height="543.931" id="SVGID_00000042011767992030765290000007286422811872715707_">
							<g style="filter:url(#Adobe_OpacityMaskFilter_00000021098428238750416530000001960578917716639632_);">
							</g>
						</mask>
						
							<linearGradient id="SVGID_00000071538709170547815390000000136678052396305037_" gradientUnits="userSpaceOnUse" x1="730.8486" y1="904.7496" x2="1668.8456" y2="904.7496">
							<stop  offset="0" style="stop-color:#333333"/>
							<stop  offset="0.9974" style="stop-color:#999999"/>
						</linearGradient>
						
							<path style="mask:url(#SVGID_00000042011767992030765290000007286422811872715707_);fill:url(#SVGID_00000071538709170547815390000000136678052396305037_);" d="
							M732.789,1156.51c1.01-43.369,0.634-427.409-1.855-460.577c-2.488-33.167,49.168-39.388,128.476-43.121
							c79.308-3.733,748.459-18.51,765.688-19.907c38.728-3.14,46.744,54.745,42.869,180.411
							c-2.911,94.411-7.735,249.937-9.955,321.459c-0.661,21.296-18.067,38.193-39.374,38.252
							c-161.025,0.443-778.188,2.211-819.272,3.435C752.086,1177.87,732.389,1173.707,732.789,1156.51z"/>
					</g>
				</mask>
				
					<linearGradient id="SVGID_00000170971216286475150460000009687919530646824878_" gradientUnits="userSpaceOnUse" x1="730.8486" y1="904.7496" x2="1668.8456" y2="904.7496">
					<stop  offset="0" style="stop-color:#FFFFFF"/>
					<stop  offset="0.9974" style="stop-color:#FFFFFF"/>
				</linearGradient>
				<path style="fill:url(#SVGID_00000170971216286475150460000009687919530646824878_);" d="M732.789,1156.51
					c1.01-43.369,0.634-427.409-1.855-460.577c-2.488-33.167,49.168-39.388,128.476-43.121
					c79.308-3.733,748.459-18.51,765.688-19.907c38.728-3.14,46.744,54.745,42.869,180.411
					c-2.911,94.411-7.735,249.937-9.955,321.459c-0.661,21.296-18.067,38.193-39.374,38.252
					c-161.025,0.443-778.188,2.211-819.272,3.435C752.086,1177.87,732.389,1173.707,732.789,1156.51z"/>
			</g>
			
				<linearGradient id="SVGID_00000173159155185992307770000005088533155426591383_" gradientUnits="userSpaceOnUse" x1="1197.2489" y1="1632.688" x2="1302.8352" y2="1055.3673">
				<stop  offset="0" style="stop-color:#2B3582"/>
				<stop  offset="1" style="stop-color:#150E42"/>
			</linearGradient>
			<path style="fill:url(#SVGID_00000173159155185992307770000005088533155426591383_);" d="M1918.93,1376.68H580.166
				c-16.473,0-29.951-13.478-29.951-29.951l0,0c0-16.473,13.478-29.951,29.951-29.951H1918.93c16.473,0,29.951,13.478,29.951,29.951
				l0,0C1948.881,1363.202,1935.403,1376.68,1918.93,1376.68z"/>
		</g>
		<g>
			<g>
				
					<linearGradient id="SVGID_00000147182266546158176130000008347413779836401059_" gradientUnits="userSpaceOnUse" x1="1997.8292" y1="1153.4397" x2="1808.3892" y2="1883.1335">
					<stop  offset="0" style="stop-color:#2B3582"/>
					<stop  offset="1" style="stop-color:#150E42"/>
				</linearGradient>
				
					<rect x="1935.924" y="1298.736" style="fill:url(#SVGID_00000147182266546158176130000008347413779836401059_);" width="12.703" height="137.375"/>
				
					<linearGradient id="SVGID_00000028325382339038253070000015937802476340522680_" gradientUnits="userSpaceOnUse" x1="2016.8064" y1="1148.8685" x2="1821.6392" y2="1900.6224">
					<stop  offset="0" style="stop-color:#2B3582"/>
					<stop  offset="1" style="stop-color:#150E42"/>
				</linearGradient>
				<path style="fill:url(#SVGID_00000028325382339038253070000015937802476340522680_);" d="M1997.906,1438.759h-111.26v-5.228
					c0-1.679,1.361-3.041,3.041-3.041h105.178c1.679,0,3.041,1.361,3.041,3.041V1438.759z"/>
				
					<linearGradient id="SVGID_00000130645002418942909820000013381190053049056185_" gradientUnits="userSpaceOnUse" x1="1980.5203" y1="1148.9465" x2="1791.0796" y2="1878.6428">
					<stop  offset="0" style="stop-color:#2B3582"/>
					<stop  offset="1" style="stop-color:#150E42"/>
				</linearGradient>
				<path style="fill:url(#SVGID_00000130645002418942909820000013381190053049056185_);" d="M2014.418,1293.967
					c0,7.514-6.147,13.661-13.661,13.661h-112.566c-7.514,0-13.661-6.147-13.661-13.661v-12.352c0-7.513,6.147-13.661,13.661-13.661
					h112.566c7.514,0,13.661,6.148,13.661,13.661V1293.967z"/>
			</g>
			<g>
				
					<linearGradient id="SVGID_00000162327280382863042350000003374073517060749244_" gradientUnits="userSpaceOnUse" x1="1803.6462" y1="1319.8383" x2="1893.9689" y2="1319.8383">
					<stop  offset="0" style="stop-color:#F9B776"/>
					<stop  offset="1" style="stop-color:#F47960"/>
				</linearGradient>
				<path style="fill:url(#SVGID_00000162327280382863042350000003374073517060749244_);" d="M1848.496,1207.138
					c0,0-18.876,2.926-40.099,17.113c-3.34,2.233-5.172,6.125-4.669,10.111c2.541,20.13,12.99,85.283,47.445,148.918
					c1.817,3.355,2.339,7.262,1.537,10.992l-5.986,27.857l-11.101,10.409h28.594l19.038-51.521l-8.141-2.574
					c-6.312-1.996-10.642-7.802-10.757-14.42l-0.955-55.267c0.815-24.623-15.098-41.612-15.098-41.612l45.665-2.222
					L1848.496,1207.138z"/>
				
					<linearGradient id="SVGID_00000035509353833547767190000013458031724190730891_" gradientUnits="userSpaceOnUse" x1="1858.9111" y1="1378.6923" x2="1845.6261" y2="1582.3958">
					<stop  offset="0" style="stop-color:#CB236D"/>
					<stop  offset="1" style="stop-color:#4C246D"/>
				</linearGradient>
				<path style="fill:url(#SVGID_00000035509353833547767190000013458031724190730891_);" d="M1824.459,1437.564
					c-2.604,3.408,28.027,7.905,43.502,0.451c0,0,21.452-37.324,21.452-56.541c0,0-1.703-3.919-14.299-3.03
					c0,0-7.203,44.194-14.809,49.144c-7.606,4.95-21.279,0.501-21.279,0.501S1828.301,1432.536,1824.459,1437.564z"/>
				
					<linearGradient id="SVGID_00000106831653165708736840000006795912708019233691_" gradientUnits="userSpaceOnUse" x1="1699.4719" y1="1325.4169" x2="1888.1913" y2="1325.4169">
					<stop  offset="0" style="stop-color:#F9B776"/>
					<stop  offset="1" style="stop-color:#F47960"/>
				</linearGradient>
				<path style="fill:url(#SVGID_00000106831653165708736840000006795912708019233691_);" d="M1888.191,1267.954
					c-0.243-0.42-49.165-5.882-49.165-5.882s1.601,14.875-3.403,35.351s-76.831,109.192-76.831,109.192l6.944,23.894
					c-23.286,8.111-43.725,7.392-66.264,2.119l44.795-26.013c0,0,43.682-148.86,70.439-175.417l49.038-16.966L1888.191,1267.954z"/>
				
					<linearGradient id="SVGID_00000018234834012950239740000014172167010691449221_" gradientUnits="userSpaceOnUse" x1="1792.3912" y1="1143.8701" x2="2128.3647" y2="1569.4358">
					<stop  offset="0" style="stop-color:#2C759E"/>
					<stop  offset="1" style="stop-color:#051042"/>
				</linearGradient>
				<path style="fill:url(#SVGID_00000018234834012950239740000014172167010691449221_);" d="M1997.906,1181.338
					c0,0,28.186,41.923,30.499,61.047c2.313,19.123-8.131,33.247-37.295,28.175c-96.287-0.697-119.143,35.949-125.619,82.218
					c-0.1,0.71-0.693,1.253-1.409,1.276c-33.454,1.077-67.245-5.929-97.995-21.098c-1.424-0.703-1.995-2.449-1.273-3.864
					c46.954-91.925,11.226-110.093,112.259-137.338C1890.67,1190.121,1997.906,1181.338,1997.906,1181.338z"/>
				
					<linearGradient id="SVGID_00000017518293315352879770000010225522892647005625_" gradientUnits="userSpaceOnUse" x1="1730.7123" y1="1370.3315" x2="1717.4272" y2="1574.035">
					<stop  offset="0" style="stop-color:#CB236D"/>
					<stop  offset="1" style="stop-color:#4C246D"/>
				</linearGradient>
				<path style="fill:url(#SVGID_00000017518293315352879770000010225522892647005625_);" d="M1763.478,1422.449
					c0,0,8.108,7.854,2.631,16.591c0,0-64.231,11.385-81.671,6.219c0,0,4.395-8.411,24.032-17.818l-2.223,1.258
					c-1.833,1.407-0.758,4.34,1.55,4.208C1720.737,1432.171,1747.517,1429.8,1763.478,1422.449z"/>
			</g>
			
				<linearGradient id="SVGID_00000036210192769878851370000016752168283570369195_" gradientUnits="userSpaceOnUse" x1="1955.3423" y1="1091.4258" x2="1557.2626" y2="1530.6868">
				<stop  offset="0" style="stop-color:#FDF53F"/>
				<stop  offset="1" style="stop-color:#D93C65"/>
			</linearGradient>
			<path style="fill:url(#SVGID_00000036210192769878851370000016752168283570369195_);" d="M1921.679,1175.788
				c0,0-32.823-31.254-48.98-51.955c-8.733-11.19-11.476-25.921-7.437-39.529c7.376-24.851,20.485-50.591,21.681-54.597
				c1.833-6.14,38.636-5.885,38.636-5.885s83.97,38.233,100.875,126.619l-31.956,9.949c0,0-18.909-31.723-37.592-51.893
				c0,0,32.329,42.707,33.467,60.191L1921.679,1175.788z"/>
			
				<linearGradient id="SVGID_00000079475515901901048110000000313455432803639968_" gradientUnits="userSpaceOnUse" x1="1909.7952" y1="1052.3551" x2="1900.2617" y2="991.1823">
				<stop  offset="0" style="stop-color:#F9B776"/>
				<stop  offset="1" style="stop-color:#F47960"/>
			</linearGradient>
			<path style="fill:url(#SVGID_00000079475515901901048110000000313455432803639968_);" d="M1882.493,995.39
				c0.384,1.276,9.99,33.121,10.742,33.782c0.751,0.661,21.066,1.754,30.628-4.781l-16.222-33.959L1882.493,995.39z"/>
			
				<linearGradient id="SVGID_00000131353194126500126480000008418115890649643177_" gradientUnits="userSpaceOnUse" x1="1880.4008" y1="948.6515" x2="1939.2679" y2="1023.9894">
				<stop  offset="0" style="stop-color:#F9B776"/>
				<stop  offset="1" style="stop-color:#F47960"/>
			</linearGradient>
			<path style="fill:url(#SVGID_00000131353194126500126480000008418115890649643177_);" d="M1898.272,928.505
				c0,0-17.341,7.322-29.132,32.381c-11.791,25.059-2.985,36.629,8.075,38.217c11.06,1.589,27.601,1.347,45.097-14.841
				C1939.806,968.074,1920.814,919.825,1898.272,928.505z"/>
			
				<linearGradient id="SVGID_00000080923190045984698740000016417847315298710435_" gradientUnits="userSpaceOnUse" x1="1966.4058" y1="1170.3367" x2="2145.45" y2="1170.3367">
				<stop  offset="0" style="stop-color:#F9B776"/>
				<stop  offset="1" style="stop-color:#F47960"/>
			</linearGradient>
			<path style="fill:url(#SVGID_00000080923190045984698740000016417847315298710435_);" d="M1854.812,1178.109l24.115-23.244
				l33.361,14.093c0,0,33.207,5.145,52.212,0c19.006-5.145,19.006-5.145,19.006-5.145l42.949-13.371l6.745,19.063
				c1.713,4.84-0.008,10.213-4.193,13.187c-3.716,2.64-8.071,5.542-10.847,6.757c-5.656,2.474-139.425-1.712-139.425-1.712
				L1854.812,1178.109z"/>
			<g>
				
					<linearGradient id="SVGID_00000053508181544752575530000005191032204884128958_" gradientUnits="userSpaceOnUse" x1="1400.4974" y1="1081.6892" x2="1726.8593" y2="1308.0077" gradientTransform="matrix(0.9988 -0.0494 0.0494 0.9988 8.6714 -86.798)">
					<stop  offset="0" style="stop-color:#2B3582"/>
					<stop  offset="1" style="stop-color:#150E42"/>
				</linearGradient>
				<path style="fill:url(#SVGID_00000053508181544752575530000005191032204884128958_);" d="M1946.072,1189.067
					c-0.107,0.005-0.214,0.008-0.322,0.007l-139.89-0.152c-3.458-0.003-6.258-2.809-6.255-6.268c0.003-3.459,2.82-6.317,6.269-6.255
					l139.89,0.153c3.458,0.003,6.258,2.809,6.255,6.268C1952.016,1186.17,1949.381,1188.903,1946.072,1189.067z"/>
				
					<linearGradient id="SVGID_00000056413734186452356010000012140011672496592569_" gradientUnits="userSpaceOnUse" x1="1644.5817" y1="1043.7177" x2="1970.9445" y2="1270.0367">
					<stop  offset="0" style="stop-color:#2B3582"/>
					<stop  offset="1" style="stop-color:#150E42"/>
				</linearGradient>
				<path style="fill:url(#SVGID_00000056413734186452356010000012140011672496592569_);" d="M1680.106,1062.056h116.501
					c8.594,0,16.417,4.96,20.083,12.733l53.858,114.204h-144.78c-5.538,0-10.514-3.384-12.55-8.535l-41.765-105.678
					C1669.041,1068.673,1673.541,1062.056,1680.106,1062.056z"/>
				
					<linearGradient id="SVGID_00000005955246235805706060000009983155421840719495_" gradientUnits="userSpaceOnUse" x1="1772.5188" y1="1089.4764" x2="1672.78" y2="1266.993">
					<stop  offset="0" style="stop-color:#53D8FF"/>
					<stop  offset="1" style="stop-color:#3840F7"/>
				</linearGradient>
				<path style="fill:url(#SVGID_00000005955246235805706060000009983155421840719495_);" d="M1762.182,1120.611
					c2.525,7.843,0.66,15.461-4.166,17.014c-4.825,1.553-10.783-3.546-13.308-11.39c-2.525-7.844-0.66-15.461,4.166-17.014
					C1753.7,1107.668,1759.658,1112.768,1762.182,1120.611z"/>
			</g>
			<g>
				<g>
					
						<linearGradient id="SVGID_00000087413974573805494220000008276094794180566409_" gradientUnits="userSpaceOnUse" x1="1635.7174" y1="1330.6434" x2="2697.2019" y2="1702.1621">
						<stop  offset="0" style="stop-color:#9CFFFB"/>
						<stop  offset="1" style="stop-color:#9BFFFA"/>
					</linearGradient>
					<path style="fill:url(#SVGID_00000087413974573805494220000008276094794180566409_);" d="M1584.889,1464.671
						c-0.675,0-1.361-0.138-2.022-0.428c-2.599-1.144-3.799-4.227-2.681-6.886l107.44-255.544c1.117-2.658,4.129-3.886,6.73-2.743
						c2.599,1.144,3.799,4.227,2.681,6.886l-107.44,255.544C1588.764,1463.483,1586.874,1464.671,1584.889,1464.671z"/>
					
						<linearGradient id="SVGID_00000018215351785475677440000008701061894941529492_" gradientUnits="userSpaceOnUse" x1="1637.2006" y1="1326.406" x2="2698.6772" y2="1697.9219">
						<stop  offset="0" style="stop-color:#9CFFFB"/>
						<stop  offset="1" style="stop-color:#9BFFFA"/>
					</linearGradient>
					<path style="fill:url(#SVGID_00000018215351785475677440000008701061894941529492_);" d="M1705.924,1464.671
						c-1.985,0-3.875-1.187-4.708-3.172l-107.44-255.544c-1.118-2.659,0.083-5.742,2.681-6.886c2.597-1.144,5.611,0.084,6.73,2.743
						l107.44,255.544c1.118,2.659-0.083,5.742-2.682,6.886C1707.287,1464.533,1706.6,1464.671,1705.924,1464.671z"/>
					
						<linearGradient id="SVGID_00000027589819752214668740000016369882695212278172_" gradientUnits="userSpaceOnUse" x1="1681.8864" y1="1198.7231" x2="2743.3704" y2="1570.2416">
						<stop  offset="0" style="stop-color:#9CFFFB"/>
						<stop  offset="1" style="stop-color:#9BFFFA"/>
					</linearGradient>
					<path style="fill:url(#SVGID_00000027589819752214668740000016369882695212278172_);" d="M2007.974,1464.671
						c-0.675,0-1.361-0.138-2.022-0.428c-2.599-1.144-3.8-4.227-2.682-6.886l107.44-255.544c1.118-2.658,4.128-3.886,6.73-2.743
						c2.599,1.144,3.8,4.227,2.681,6.886l-107.44,255.544C2011.849,1463.483,2009.959,1464.671,2007.974,1464.671z"/>
					
						<linearGradient id="SVGID_00000058583518913133769740000003829141389120148667_" gradientUnits="userSpaceOnUse" x1="1683.3726" y1="1194.4871" x2="2744.8486" y2="1566.0027">
						<stop  offset="0" style="stop-color:#9CFFFB"/>
						<stop  offset="1" style="stop-color:#9BFFFA"/>
					</linearGradient>
					<path style="fill:url(#SVGID_00000058583518913133769740000003829141389120148667_);" d="M2129.009,1464.671
						c-1.985,0-3.875-1.187-4.708-3.172l-107.44-255.544c-1.118-2.659,0.083-5.742,2.681-6.886c2.598-1.144,5.611,0.084,6.731,2.743
						l107.44,255.544c1.118,2.659-0.083,5.742-2.682,6.886C2130.371,1464.533,2129.684,1464.671,2129.009,1464.671z"/>
				</g>
				
					<linearGradient id="SVGID_00000123441365404988953010000012131199386104772510_" gradientUnits="userSpaceOnUse" x1="1929.4015" y1="1170.7234" x2="1277.8995" y2="1396.4305">
					<stop  offset="0" style="stop-color:#53D8FF"/>
					<stop  offset="0.7469" style="stop-color:#3840F7"/>
				</linearGradient>
				<path style="fill:url(#SVGID_00000123441365404988953010000012131199386104772510_);" d="M2141.593,1194.177
					c0.327-1.586-0.118-3.227-1.215-4.472c-1.096-1.246-2.73-1.968-4.453-1.968H1552.17c-2.266,0-4.376,1.083-5.597,2.872
					c-1.221,1.79-1.385,4.039-0.434,5.968l6.326,12.834c1.449,2.939,4.588,4.821,8.041,4.821h571.414
					c3.213,0,5.974-2.136,6.584-5.093L2141.593,1194.177z"/>
			</g>
			<path style="fill:#FFFFFF;" d="M1943.622,950.044c-11.265-10.147-14.64-34.535-4.88-44.167
				c25.296-24.954,59.359,20.044,31.26,42.652c-4.371,3.517-9.744,6.079-15.354,6.053
				C1950.444,954.563,1946.732,952.847,1943.622,950.044z"/>
			<path style="fill:#FFFFFF;" d="M1871.672,935.184c-1.331,4.841,3.017,9.338,7.911,8.213c4.926-1.133,10.988-2.156,16.236-1.951
				c35.448,1.381,21.637,24.399,21.637,28.082c0,7.532,7.403-3.921,7.826-1.381c0.921,5.524-10.465,22.161-10.465,22.161
				s29.8-4.667,37.165-15.716c7.366-11.049,4.799-35.913,0.043-44.835c-4.522-8.483-24.602-21-34.771-21.046
				C1907.417,908.666,1879.016,908.478,1871.672,935.184z"/>
			
				<linearGradient id="SVGID_00000067951353868111220270000013077646242543076746_" gradientUnits="userSpaceOnUse" x1="1894.6122" y1="937.547" x2="1953.4795" y2="1012.885">
				<stop  offset="0" style="stop-color:#F9B776"/>
				<stop  offset="1" style="stop-color:#F47960"/>
			</linearGradient>
			<path style="fill:url(#SVGID_00000067951353868111220270000013077646242543076746_);" d="M1914.195,974.967
				c0,0,6.615-18.885,15.44-11.364c8.825,7.521-7.172,17.445-13.434,20.659L1914.195,974.967z"/>
		</g>
		<g>
			<g>
				<path style="fill:#FFFFFF;" d="M782.777,887.689c-0.09,0-0.182-0.005-0.273-0.016l-19.606-2.377
					c-0.96-0.117-1.741-0.83-1.944-1.775l-3.347-15.596c-7.077-2.645-13.675-6.368-19.625-11.073l-15.086,5.212
					c-0.914,0.317-1.929,0.017-2.525-0.745l-12.182-15.543c-0.597-0.762-0.644-1.819-0.119-2.631l8.667-13.402
					c-3.147-6.902-5.185-14.198-6.062-21.702l-14.344-6.977c-0.87-0.423-1.376-1.353-1.259-2.313l2.377-19.604
					c0.116-0.96,0.83-1.742,1.775-1.945l15.596-3.347c2.646-7.078,6.368-13.675,11.072-19.624l-5.212-15.086
					c-0.316-0.915-0.017-1.93,0.745-2.526l15.543-12.181c0.762-0.597,1.82-0.644,2.63-0.119l13.403,8.667
					c6.901-3.147,14.197-5.185,21.702-6.062l6.977-14.344c0.422-0.87,1.35-1.375,2.313-1.259l19.605,2.377
					c0.959,0.116,1.741,0.83,1.944,1.775l3.347,15.596c7.078,2.646,13.675,6.368,19.625,11.073l15.086-5.213
					c0.913-0.316,1.928-0.017,2.525,0.745l12.182,15.544c0.597,0.761,0.644,1.818,0.119,2.63l-8.667,13.402
					c3.146,6.901,5.185,14.198,6.061,21.702l14.344,6.977c0.869,0.422,1.375,1.352,1.259,2.312l-2.377,19.605
					c-0.116,0.96-0.83,1.741-1.775,1.944l-15.596,3.346c-2.645,7.078-6.368,13.675-11.072,19.624l5.212,15.086
					c0.316,0.914,0.017,1.929-0.744,2.526l-15.544,12.182c-0.76,0.596-1.816,0.645-2.63,0.12l-13.403-8.667
					c-6.901,3.147-14.197,5.184-21.702,6.061l-6.978,14.344C784.433,887.2,783.636,887.689,782.777,887.689z M738.338,854.792
					l0.393,0.316c6.029,4.836,12.752,8.628,19.979,11.273l0.474,0.173l3.559,16.581c0.039,0.183,0.19,0.32,0.375,0.343l19.605,2.377
					c0.184,0.023,0.365-0.075,0.446-0.243l7.418-15.25l0.502-0.055c7.651-0.84,15.085-2.916,22.094-6.171l0.458-0.213l14.25,9.214
					c0.156,0.102,0.36,0.091,0.507-0.023l15.544-12.182c0.147-0.115,0.205-0.311,0.144-0.488l-5.542-16.039l0.316-0.394
					c4.836-6.029,8.628-12.75,11.273-19.979l0.173-0.474l16.582-3.558c0.183-0.039,0.32-0.19,0.343-0.375l2.377-19.605
					c0.023-0.185-0.075-0.365-0.243-0.446l-15.25-7.418l-0.055-0.502c-0.84-7.651-2.916-15.084-6.171-22.094l-0.212-0.458
					l9.214-14.249c0.102-0.157,0.092-0.361-0.023-0.508l-12.182-15.544c-0.115-0.146-0.31-0.205-0.487-0.144l-16.039,5.542
					l-0.394-0.316c-6.028-4.835-12.75-8.628-19.978-11.273l-0.474-0.174l-3.558-16.581c-0.039-0.182-0.19-0.32-0.375-0.342
					l-19.605-2.377c-0.186-0.023-0.365,0.075-0.446,0.243l-7.417,15.25l-0.502,0.055c-7.651,0.84-15.085,2.917-22.095,6.171
					l-0.458,0.213l-14.25-9.214c-0.156-0.101-0.36-0.092-0.507,0.023l-15.543,12.182c-0.147,0.115-0.205,0.311-0.144,0.488
					l5.542,16.039l-0.316,0.394c-4.835,6.029-8.628,12.75-11.272,19.979l-0.174,0.474l-16.581,3.558
					c-0.183,0.039-0.32,0.19-0.343,0.375v0l-2.377,19.605c-0.022,0.186,0.075,0.365,0.243,0.446l15.25,7.418l0.055,0.502
					c0.84,7.65,2.917,15.083,6.171,22.094l0.212,0.458l-9.214,14.249c-0.102,0.157-0.093,0.361,0.022,0.508l12.182,15.543
					c0.115,0.147,0.31,0.205,0.487,0.144L738.338,854.792z M698.358,779.256h0.01H698.358z M783.697,847.84
					c-1.972,0-3.955-0.119-5.944-0.36c-8.74-1.06-17.014-4.461-23.929-9.836c-0.399-0.31-0.471-0.885-0.161-1.284
					c0.31-0.4,0.885-0.471,1.284-0.161c6.653,5.172,14.616,8.444,23.027,9.464c25.588,3.104,48.922-15.188,52.024-40.771
					c3.102-25.584-15.189-48.921-40.772-52.023c-25.586-3.103-48.921,15.188-52.023,40.771c-0.401,3.31-0.452,6.658-0.149,9.951
					c0.046,0.503-0.324,0.949-0.828,0.995c-0.5,0.049-0.948-0.324-0.995-0.827c-0.315-3.422-0.262-6.901,0.155-10.339
					c3.224-26.585,27.478-45.589,54.061-42.368c26.585,3.224,45.591,27.475,42.368,54.061c-1.562,12.879-8.045,24.378-18.255,32.38
					C804.924,844.258,794.497,847.84,783.697,847.84z"/>
				<path style="fill:#FFFFFF;" d="M783.255,817.957c-2.242,0-4.488-0.414-6.643-1.245c-9.493-3.659-14.239-14.36-10.58-23.852l0,0
					c3.659-9.493,14.36-14.238,23.853-10.579c9.493,3.66,14.238,14.36,10.579,23.852c-1.773,4.598-5.23,8.232-9.735,10.229
					C788.335,817.424,785.797,817.957,783.255,817.957z M767.741,793.518c-3.296,8.551,0.978,18.19,9.53,21.487
					c4.143,1.597,8.659,1.485,12.717-0.315c4.059-1.8,7.173-5.073,8.769-9.215c3.296-8.551-0.978-18.19-9.529-21.487
					C780.676,780.692,771.038,784.966,767.741,793.518L767.741,793.518z"/>
			</g>
			<g>
				<path style="fill:#FFFFFF;" d="M923.715,761.246c-0.451,0-0.892-0.195-1.196-0.555l-4.79-5.663
					c-3.494,0.441-7.01,0.363-10.467-0.234l-5.039,5.437c-0.455,0.49-1.17,0.637-1.78,0.368l-8.69-3.833
					c-0.611-0.269-0.984-0.897-0.929-1.562l0.617-7.388c-2.772-2.151-5.201-4.694-7.231-7.572l-7.412,0.281
					c-0.659,0.023-1.278-0.376-1.519-0.999l-3.435-8.855c-0.241-0.623-0.06-1.331,0.449-1.762l5.663-4.79
					c-0.442-3.494-0.363-7.01,0.234-10.467l-5.437-5.039c-0.489-0.453-0.637-1.169-0.368-1.779l3.833-8.691
					c0.269-0.611,0.9-0.985,1.563-0.929l7.387,0.617c2.15-2.772,4.693-5.2,7.571-7.23l-0.281-7.412
					c-0.024-0.667,0.377-1.277,0.998-1.519l8.856-3.435c0.622-0.241,1.33-0.061,1.762,0.449l4.79,5.663
					c3.494-0.441,7.009-0.363,10.467,0.234l5.039-5.437c0.453-0.49,1.169-0.638,1.779-0.368l8.691,3.833
					c0.611,0.269,0.983,0.897,0.929,1.563l-0.617,7.388c2.773,2.151,5.201,4.695,7.23,7.572l7.413-0.281
					c0.672-0.021,1.277,0.375,1.519,0.998l3.435,8.856c0.241,0.623,0.061,1.331-0.449,1.761l-5.664,4.791
					c0.442,3.493,0.363,7.009-0.234,10.467l5.437,5.039c0.489,0.454,0.638,1.169,0.369,1.78l-3.833,8.691
					c-0.268,0.61-0.893,0.985-1.562,0.928l-7.388-0.617c-2.151,2.773-4.695,5.202-7.572,7.23l0.282,7.412
					c0.024,0.668-0.377,1.278-0.999,1.519l-8.855,3.434C924.097,761.212,923.905,761.246,923.715,761.246z M918.477,753.078
					l5.318,6.287l8.504-3.298l-0.313-8.229l0.417-0.285c3.024-2.069,5.671-4.597,7.868-7.513l0.304-0.403l8.201,0.685l3.681-8.345
					l-6.036-5.595l0.093-0.496c0.672-3.587,0.754-7.247,0.243-10.876l-0.07-0.5l6.288-5.318l-3.298-8.504l-8.23,0.313l-0.285-0.417
					c-2.069-3.024-4.597-5.671-7.513-7.868l-0.404-0.304l0.685-8.201l-8.345-3.681l-5.595,6.036l-0.496-0.093
					c-3.588-0.673-7.247-0.755-10.878-0.243l-0.5,0.071l-5.318-6.288l-8.504,3.298l0.313,8.229l-0.417,0.285
					c-3.025,2.071-5.673,4.599-7.868,7.513l-0.304,0.404l-8.202-0.685l-3.681,8.346l6.036,5.594l-0.093,0.497
					c-0.672,3.587-0.754,7.247-0.243,10.876l0.07,0.5l-6.287,5.318l3.298,8.504l8.229-0.312l0.286,0.417
					c2.07,3.025,4.598,5.672,7.513,7.868l0.404,0.304l-0.685,8.201l8.345,3.681l5.595-6.036l0.496,0.093
					c3.588,0.673,7.247,0.754,10.877,0.243L918.477,753.078z M877.893,698.882l-0.001,0.001L877.893,698.882z M877.056,698.513h0.01
					H877.056z M913.483,743.478c-3.268,0-6.531-0.681-9.611-2.04c-3.954-1.744-7.354-4.521-9.835-8.031
					c-0.292-0.413-0.194-0.984,0.219-1.275c0.413-0.292,0.984-0.193,1.275,0.219c2.29,3.239,5.429,5.802,9.079,7.412
					c5.378,2.372,11.357,2.508,16.837,0.382c5.479-2.125,9.804-6.257,12.175-11.635c2.372-5.378,2.508-11.357,0.383-16.837
					c-2.125-5.48-6.258-9.804-11.635-12.176c-5.377-2.372-11.356-2.507-16.837-0.382c-5.479,2.125-9.804,6.257-12.175,11.635
					c-0.634,1.437-1.115,2.938-1.429,4.463c-0.102,0.495-0.583,0.813-1.081,0.712c-0.495-0.102-0.813-0.586-0.711-1.081
					c0.34-1.651,0.86-3.277,1.546-4.832c2.569-5.825,7.253-10.3,13.188-12.603c5.936-2.302,12.412-2.155,18.237,0.414
					c5.825,2.569,10.301,7.253,12.603,13.188c2.302,5.936,2.155,12.412-0.414,18.237c-2.569,5.825-7.253,10.3-13.189,12.603
					C919.313,742.937,916.395,743.478,913.483,743.478z"/>
			</g>
		</g>
		<g>
			
				<linearGradient id="SVGID_00000142169170507532177810000000430596496908373652_" gradientUnits="userSpaceOnUse" x1="-38.6362" y1="524.2742" x2="805.0254" y2="623.0978">
				<stop  offset="0" style="stop-color:#53D8FF"/>
				<stop  offset="1" style="stop-color:#3840F7"/>
			</linearGradient>
			<path style="fill:url(#SVGID_00000142169170507532177810000000430596496908373652_);" d="M793.864,537.823l16.097,58.01
				c2.185,7.874,0.859,16.31-3.662,23.118c-11.353,17.096-39.107,47.969-97.951,63.718c-59.765,15.995-93.599-0.461-108.159-11.303
				c-5.272-3.926-9.104-9.47-10.916-15.788l-17.62-61.434L793.864,537.823z"/>
			
				<linearGradient id="SVGID_00000182496277100408920580000004411602724007346608_" gradientUnits="userSpaceOnUse" x1="696.5189" y1="651.6356" x2="651.6641" y2="428.3359">
				<stop  offset="0" style="stop-color:#53D8FF"/>
				<stop  offset="0.7469" style="stop-color:#3840F7"/>
			</linearGradient>
			<path style="fill:url(#SVGID_00000182496277100408920580000004411602724007346608_);" d="M666.457,463.156l167.388,46.89
				c8.619,2.414,11.063,13.463,4.26,19.281c-33.181,28.378-108.589,94.476-137.15,132.864c-3.055,4.107-8.514,5.598-13.243,3.64
				l-169.367-70.107c-7.661-3.171-9.34-13.279-3.109-18.749c32.859-28.849,116.48-101.079,143.663-113.274
				C661.275,462.634,663.949,462.454,666.457,463.156z"/>
			
				<linearGradient id="SVGID_00000103985044845106820150000002128010165684911256_" gradientUnits="userSpaceOnUse" x1="576.3441" y1="735.2795" x2="422.6034" y2="1174.54">
				<stop  offset="0" style="stop-color:#2B3582"/>
				<stop  offset="1" style="stop-color:#150E42"/>
			</linearGradient>
			<path style="fill:url(#SVGID_00000103985044845106820150000002128010165684911256_);" d="M670.079,549.628
				c0,0-89.239,56.289-96.039,69.15s6.889,71.32,6.889,71.32c-14.049,49.479-16.129,103.209,7.601,131.318
				c0,0,29.256-65.065,16.187-92.49c-13.07-27.424-18.107-38.666-18.107-38.666s-11.434-62.32-7.818-71.229
				C578.792,619.03,677.652,553.192,670.079,549.628z"/>
			<path style="fill:#FFFFFF;" d="M811.32,525.571l-85.667,84.504l-21.417,21.126l-5.354,5.282l-2.672,2.627
				c-0.835,0.82-1.779,1.521-2.77,2.138c-3.991,2.454-9.078,3.036-13.539,1.47l-57.05-19.111c-0.45-0.151-0.938,0.092-1.089,0.542
				c-0.15,0.449,0.09,0.933,0.536,1.087l56.903,19.543c5.015,1.804,10.845,1.205,15.423-1.571c1.14-0.696,2.226-1.493,3.189-2.423
				l2.711-2.624l5.394-5.241l21.576-20.963l86.305-83.852c0.702-0.682,0.718-1.804,0.036-2.506s-1.804-0.718-2.506-0.036
				L811.32,525.571z"/>
			<path style="fill:#FFFFFF;" d="M587.459,720.163l0.17,0.18l0.198,0.234l0.401,0.475l0.771,1.037c0.509,0.7,0.954,1.469,1.438,2.2
				l1.271,2.338c0.396,0.797,0.742,1.623,1.117,2.434c0.395,0.802,0.687,1.653,0.992,2.498c0.299,0.847,0.632,1.683,0.907,2.54
				l0.729,2.607c0.235,0.872,0.52,1.731,0.666,2.628L596.65,742c0.169,0.891,0.387,1.773,0.466,2.681
				c0.213,1.805,0.456,3.609,0.647,5.42l0.263,5.468c0.017,0.456,0.054,0.911,0.056,1.368l-0.032,1.371l-0.063,2.743
				c0.03,3.665-0.47,7.308-0.765,10.966c-0.06,0.917-0.209,1.823-0.357,2.73l-0.429,2.723c-0.294,1.814-0.552,3.635-0.876,5.445
				c-0.811,3.588-1.547,7.199-2.421,10.777l-3,10.648l-0.009,0.032c-0.092,0.328,0.098,0.668,0.426,0.76
				c0.322,0.091,0.657-0.093,0.755-0.411l3.298-10.635c0.974-3.582,1.812-7.205,2.725-10.81c0.375-1.821,0.685-3.657,1.03-5.486
				l0.505-2.747c0.173-0.915,0.348-1.83,0.434-2.759c0.398-3.706,1-7.397,1.069-11.141l0.137-2.802l0.068-1.401
				c0.01-0.468-0.015-0.936-0.02-1.404l-0.125-5.623c-0.147-1.871-0.349-3.742-0.522-5.615c-0.059-0.94-0.259-1.864-0.411-2.794
				l-0.482-2.789c-0.13-0.936-0.401-1.846-0.624-2.766l-0.696-2.755c-0.266-0.911-0.592-1.806-0.887-2.709
				c-0.3-0.903-0.589-1.81-0.986-2.682c-0.377-0.878-0.726-1.768-1.13-2.638l-1.313-2.571c-0.512-0.828-0.976-1.674-1.533-2.485
				l-0.854-1.211l-0.478-0.598L590.275,718l-0.299-0.331c-0.655-0.726-1.775-0.784-2.502-0.129
				c-0.727,0.655-0.784,1.776-0.129,2.502c0.007,0.007,0.013,0.014,0.02,0.022L587.459,720.163z"/>
			<path style="fill:#FFFFFF;" d="M584.733,743.192l0.004,3.482l-0.03,3.926l-0.103,7.867l-0.27,15.743l-0.635,31.492
				c-0.012,0.532,0.409,0.973,0.94,0.985c0.523,0.012,0.958-0.399,0.984-0.919l1.443-31.473l0.674-15.742l0.305-7.878l0.132-3.947
				l0.049-1.99l0.02-1.001c-0.003-0.43-0.032-0.939-0.075-1.401c-0.088-0.948-0.928-1.645-1.876-1.556
				c-0.893,0.083-1.563,0.833-1.564,1.711L584.733,743.192z"/>
		</g>
		<g>
			<g>
				<path style="opacity:0.69;fill:#FFFFFF;" d="M1775.482,713.711l270.993,3.675c10.436,0.141,18.663,7.846,18.153,16.999
					l-4.512,80.915c-0.482,8.633-8.594,15.416-18.438,15.416h-266.481c-10.195,0-18.46-7.257-18.46-16.209v-84.59
					C1756.737,720.868,1765.177,713.572,1775.482,713.711z"/>
				<g>
					
						<ellipse transform="matrix(0.8459 -0.5333 0.5333 0.8459 20.9271 1164.5111)" style="fill:#FFFFFF;" cx="2025.852" cy="546.038" rx="43.752" ry="43.752"/>
					
						<ellipse transform="matrix(0.3655 -0.9308 0.9308 0.3655 708.1313 2130.9172)" style="fill:#FFFFFF;" cx="1917.114" cy="546.038" rx="43.752" ry="43.752"/>
					
						<ellipse transform="matrix(0.5921 -0.8059 0.8059 0.5921 296.4557 1680.6261)" style="fill:#FFFFFF;" cx="1808.376" cy="547.47" rx="43.752" ry="43.753"/>
					<g>
						
							<linearGradient id="SVGID_00000008136091012029411160000012608147939922213048_" gradientUnits="userSpaceOnUse" x1="2235.9812" y1="443.8" x2="1437.1989" y2="844.5645">
							<stop  offset="0" style="stop-color:#53D8FF"/>
							<stop  offset="0.7009" style="stop-color:#406EFA"/>
							<stop  offset="0.844" style="stop-color:#3C58F9"/>
							<stop  offset="0.92" style="stop-color:#3A4CF8"/>
							<stop  offset="1" style="stop-color:#3840F7"/>
						</linearGradient>
						<path style="fill:url(#SVGID_00000008136091012029411160000012608147939922213048_);" d="M1999.854,536.791
							c-1.354,3.293-2.106,6.897-2.106,10.679c0,15.521,12.582,28.104,28.103,28.104c15.521,0,28.104-12.582,28.104-28.104
							c0-15.521-12.582-28.103-28.104-28.103c-0.475,0-0.948,0.013-1.417,0.036v-7.124c0.47-0.019,0.942-0.031,1.417-0.031
							c19.453,0,35.222,15.77,35.222,35.222c0,19.453-15.77,35.222-35.222,35.222s-35.222-15.769-35.222-35.222
							c0-4.79,0.958-9.355,2.69-13.518L1999.854,536.791z"/>
						
							<linearGradient id="SVGID_00000127002528810802523030000013024604039821466497_" gradientUnits="userSpaceOnUse" x1="2214.2102" y1="400.4066" x2="1415.4276" y2="801.1711">
							<stop  offset="0" style="stop-color:#53D8FF"/>
							<stop  offset="0.7009" style="stop-color:#406EFA"/>
							<stop  offset="0.844" style="stop-color:#3C58F9"/>
							<stop  offset="0.92" style="stop-color:#3A4CF8"/>
							<stop  offset="1" style="stop-color:#3840F7"/>
						</linearGradient>
						<path style="fill:url(#SVGID_00000127002528810802523030000013024604039821466497_);" d="M1902.617,571.247
							c4.336,2.737,9.468,4.326,14.974,4.326c15.521,0,28.103-12.582,28.103-28.104c0-15.521-12.582-28.103-28.103-28.103
							c-0.475,0-0.948,0.013-1.417,0.036v-7.124c0.47-0.019,0.942-0.031,1.417-0.031c19.453,0,35.222,15.77,35.222,35.222
							c0,19.453-15.77,35.222-35.222,35.222c-6.789,0-13.128-1.922-18.506-5.25L1902.617,571.247z"/>
						
							<linearGradient id="SVGID_00000009562096050684405280000012817117319321638326_" gradientUnits="userSpaceOnUse" x1="2192.2048" y1="356.5461" x2="1393.418" y2="757.3128">
							<stop  offset="0" style="stop-color:#53D8FF"/>
							<stop  offset="0.7009" style="stop-color:#406EFA"/>
							<stop  offset="0.844" style="stop-color:#3C58F9"/>
							<stop  offset="0.92" style="stop-color:#3A4CF8"/>
							<stop  offset="1" style="stop-color:#3840F7"/>
						</linearGradient>
						<path style="fill:url(#SVGID_00000009562096050684405280000012817117319321638326_);" d="M1784.924,563.27
							c5.058,7.425,13.579,12.303,23.241,12.303c15.521,0,28.104-12.582,28.104-28.104c0-15.521-12.582-28.103-28.104-28.103
							c-0.475,0-0.948,0.013-1.417,0.036v-7.124c0.47-0.019,0.943-0.031,1.417-0.031c19.453,0,35.222,15.77,35.222,35.222
							c0,19.453-15.77,35.222-35.222,35.222c-12.034,0-22.656-6.036-29.01-15.245L1784.924,563.27z"/>
					</g>
				</g>
				<g style="opacity:0.69;">
					<path style="fill:#FFFFFF;" d="M1990.202,608.323h71.299c4.476,0,8.103,3.628,8.103,8.103s-3.628,8.103-8.103,8.103h-71.299
						c-4.475,0-8.103-3.628-8.103-8.103S1985.727,608.323,1990.202,608.323z"/>
					<path style="fill:#FFFFFF;" d="M1881.465,608.323h71.299c4.475,0,8.103,3.628,8.103,8.103s-3.628,8.103-8.103,8.103h-71.299
						c-4.475,0-8.103-3.628-8.103-8.103S1876.989,608.323,1881.465,608.323z"/>
					<path style="fill:#FFFFFF;" d="M1844.026,624.53h-71.299c-4.475,0-8.103-3.628-8.103-8.103s3.628-8.103,8.103-8.103h71.299
						c4.475,0,8.103,3.628,8.103,8.103S1848.501,624.53,1844.026,624.53z"/>
					<path style="fill:#FFFFFF;" d="M1990.202,633.533h71.299c4.476,0,8.103,3.628,8.103,8.103v47.718
						c0,4.475-3.628,8.103-8.103,8.103h-71.299c-4.475,0-8.103-3.628-8.103-8.103v-47.718
						C1982.099,637.161,1985.727,633.533,1990.202,633.533z"/>
					<path style="fill:#FFFFFF;" d="M1881.465,633.533h71.299c4.475,0,8.103,3.628,8.103,8.103v47.718
						c0,4.475-3.628,8.103-8.103,8.103h-71.299c-4.475,0-8.103-3.628-8.103-8.103v-47.718
						C1873.362,637.161,1876.989,633.533,1881.465,633.533z"/>
					<path style="fill:#FFFFFF;" d="M1772.727,633.533h71.299c4.475,0,8.103,3.628,8.103,8.103v47.718
						c0,4.475-3.628,8.103-8.103,8.103h-71.299c-4.475,0-8.103-3.628-8.103-8.103v-47.718
						C1764.624,637.161,1768.252,633.533,1772.727,633.533z"/>
				</g>
			</g>
			<g>
				
					<linearGradient id="SVGID_00000133496179591597018780000009391074825502137275_" gradientUnits="userSpaceOnUse" x1="1594.1188" y1="438.6965" x2="2458.9121" y2="323.3908">
					<stop  offset="0" style="stop-color:#53D8FF"/>
					<stop  offset="0.7009" style="stop-color:#406EFA"/>
					<stop  offset="0.844" style="stop-color:#3C58F9"/>
					<stop  offset="0.92" style="stop-color:#3A4CF8"/>
					<stop  offset="1" style="stop-color:#3840F7"/>
				</linearGradient>
				<path style="fill:url(#SVGID_00000133496179591597018780000009391074825502137275_);" d="M1670.76,331.14l397.903-4.734
					c7.803-0.093,9.639,6.123,9.622,9.547l0.875,130.441c-0.017,3.448-3.498,6.34-11.351,6.3
					c-71.952-0.368-385.813-1.73-399.911-1.359c-13.932,0.367-8.336-103.044-6.468-129.621
					C1661.661,338.429,1663.273,331.229,1670.76,331.14z"/>
				<g>
					<path style="fill:#FFFFFF;" d="M2068.201,468.435l-0.062-0.001c-57.203-0.195-345.225-1.161-398.046-1.024l-0.29,0.001
						l-0.124-0.262c-5.096-10.73-5.356-54.576-0.663-111.701c0.062-0.738,1.137-1.011,2.04-1.021l397.903-4.528
						c0.658-0.006,1.072,0.106,1.323,0.201c0.638,0.238,0.77,0.602,0.768,0.864l-0.815,116.394
						C2070.229,468.091,2069.209,468.427,2068.201,468.435z M1683.431,466.482c76.356,0,331.268,0.855,384.711,1.037l0.059,0.001
						c0.586-0.005,0.994-0.151,1.119-0.245l0.814-116.236c-0.03-0.019-0.084-0.048-0.173-0.082
						c-0.179-0.067-0.479-0.148-0.992-0.142l-397.902,4.528c-0.722,0.008-1.108,0.201-1.167,0.27
						c-4.613,56.429-4.427,99.845,0.487,110.883C1673.815,466.486,1678.208,466.482,1683.431,466.482z"/>
					<g>
						<path style="fill:#FFFFFF;" d="M1866.26,384.726c-1.623-1.68-3.859-2.627-6.194-2.623l-158.177,0.278
							c-2.318,0.004-4.536,0.945-6.151,2.609c-1.614,1.664-2.488,3.909-2.422,6.227l1.558,54.872
							c0.132,4.639,3.923,8.334,8.563,8.348l154.584,0.455c4.633,0.014,8.44-3.648,8.609-8.278l2.033-55.605
							C1868.749,388.674,1867.883,386.406,1866.26,384.726z"/>
						<path style="fill:#FFFFFF;" d="M1891.178,362.326l-199.025,1.94c-2.238,0.022-3.764,2.311-3.764,5.11v0.09
							c0,2.799,1.561,5.072,3.798,5.079l199.164,0.589c3.495,0.01,6.272-2.841,6.26-6.368l-0.033-0.114
							C1897.567,365.124,1894.674,362.292,1891.178,362.326z"/>
						<path style="fill:#FFFFFF;" d="M2051.872,385.433c-1.058-1.101-2.759-1.734-4.286-1.74l-159.543-0.562
							c-1.566-0.005-3.125,0.639-4.195,1.783c-1.07,1.143-1.646,2.68-1.537,4.242l0.208,3.192c0.207,2.968,2.678,5.263,5.653,5.242
							l159.623-1.098c3.017-0.021,5.961-2.397,6.072-5.412l0.055-1.52C2053.978,388.035,2052.929,386.534,2051.872,385.433z"/>
						<path style="fill:#FFFFFF;" d="M2051.077,407.154c-1.058-1.101-2.759-1.734-4.286-1.74l-159.543-0.562
							c-1.566-0.005-3.125,0.639-4.195,1.783c-1.07,1.143-1.646,2.68-1.537,4.242l0.208,3.192c0.207,2.968,2.678,5.263,5.653,5.242
							l159.623-1.098c3.016-0.021,5.961-2.397,6.071-5.412l0.056-1.52C2053.184,409.756,2052.135,408.255,2051.077,407.154z"/>
						<path style="fill:#FFFFFF;" d="M2050.283,428.875c-1.058-1.101-2.759-1.734-4.286-1.74l-159.543-0.562
							c-1.566-0.005-3.125,0.639-4.195,1.783c-1.07,1.143-1.646,2.68-1.537,4.242l0.208,3.192c0.207,2.968,2.678,5.263,5.653,5.242
							l159.623-1.098c3.016-0.021,5.961-2.397,6.071-5.412l0.056-1.52C2052.39,431.477,2051.341,429.975,2050.283,428.875z"/>
					</g>
					<g>
						<path style="fill:#FFFFFF;" d="M2016.989,338.125c-0.037,4.185-3.693,7.559-7.879,7.538l-5.688-0.03
							c-4.185-0.021-7.964-3.434-7.927-7.619l0.002-0.186c0.037-4.185,3.686-7.559,7.871-7.538l5.692,0.03
							c4.185,0.021,7.968,3.434,7.931,7.619L2016.989,338.125z"/>
						<path style="fill:#FFFFFF;" d="M2040.871,338.243c-0.037,4.185-3.488,7.56-7.673,7.539l-5.193-0.026
							c-4.185-0.021-7.47-3.43-7.433-7.615l0.002-0.187c0.037-4.185,3.294-7.562,7.479-7.541l5.29,0.027
							c4.185,0.021,7.567,3.431,7.53,7.616L2040.871,338.243z"/>
						<path style="fill:#FFFFFF;" d="M2064.752,338.362c-0.037,4.185-3.283,7.562-7.468,7.541l-5.296-0.027
							c-4.185-0.021-7.572-3.431-7.535-7.616l0.002-0.187c0.037-4.185,3.5-7.56,7.685-7.539l5.188,0.025
							c4.185,0.021,7.464,3.43,7.427,7.615L2064.752,338.362z"/>
					</g>
				</g>
				<g>
					
						<linearGradient id="SVGID_00000044860686444473759740000005066590881902068925_" gradientUnits="userSpaceOnUse" x1="1638.6744" y1="247.9884" x2="2335.998" y2="352.3124">
						<stop  offset="0" style="stop-color:#53D8FF"/>
						<stop  offset="0.7009" style="stop-color:#406EFA"/>
						<stop  offset="0.844" style="stop-color:#3C58F9"/>
						<stop  offset="0.92" style="stop-color:#3A4CF8"/>
					</linearGradient>
					<path style="fill:url(#SVGID_00000044860686444473759740000005066590881902068925_);" d="M2068.479,304.421h-398.765
						c-6.039,0-10.98-4.941-10.98-10.98v-21.959c0-6.039,4.941-10.98,10.98-10.98h398.765c6.039,0,10.98,4.941,10.98,10.98v21.959
						C2079.459,299.479,2074.518,304.421,2068.479,304.421z"/>
					<g>
						<path style="fill:#FFFFFF;" d="M2005.085,281.678c-0.047,5.311-4.688,9.593-9.999,9.566l-7.219-0.038
							c-5.312-0.027-10.108-4.359-10.06-9.67l0.002-0.237c0.047-5.311,4.678-9.593,9.99-9.566l7.224,0.038
							c5.311,0.027,10.112,4.359,10.065,9.67L2005.085,281.678z"/>
						<path style="fill:#FFFFFF;" d="M2035.394,281.828c-0.047,5.312-4.427,9.595-9.739,9.569l-6.591-0.033
							c-5.312-0.027-9.48-4.353-9.433-9.664l0.002-0.237c0.047-5.311,4.181-9.598,9.493-9.571l6.714,0.034
							c5.312,0.027,9.604,4.354,9.556,9.666L2035.394,281.828z"/>
						<path style="fill:#FFFFFF;" d="M2065.703,281.978c-0.047,5.311-4.167,9.598-9.478,9.571l-6.721-0.034
							c-5.312-0.027-9.611-4.354-9.563-9.666l0.002-0.237c0.047-5.311,4.442-9.595,9.753-9.568l6.584,0.032
							c5.311,0.027,9.473,4.353,9.426,9.664L2065.703,281.978z"/>
						<path style="fill:#FFFFFF;" d="M1962.106,288.804h-118.393c-3.829,0-6.962-3.133-6.962-6.962l0,0
							c0-3.829,3.133-6.962,6.962-6.962h118.393c3.829,0,6.962,3.133,6.962,6.962l0,0
							C1969.068,285.672,1965.935,288.804,1962.106,288.804z"/>
					</g>
				</g>
			</g>
		</g>
		
			<linearGradient id="SVGID_00000017515730693358066360000016163152763209354113_" gradientUnits="userSpaceOnUse" x1="944.612" y1="1303.2729" x2="942.9781" y2="1305.3176">
			<stop  offset="0" style="stop-color:#CB236D"/>
			<stop  offset="1" style="stop-color:#4C246D"/>
		</linearGradient>
		<polygon style="fill:url(#SVGID_00000017515730693358066360000016163152763209354113_);" points="943.538,1304.02 
			943.87,1304.766 944.493,1304.02 		"/>
		<g>
			<g>
				
					<linearGradient id="SVGID_00000178918512707713413440000015730408993624527009_" gradientUnits="userSpaceOnUse" x1="1425.5714" y1="532.9605" x2="568.8514" y2="1605.0571">
					<stop  offset="0" style="stop-color:#CB236D"/>
					<stop  offset="1" style="stop-color:#4C246D"/>
				</linearGradient>
				<path style="fill:url(#SVGID_00000178918512707713413440000015730408993624527009_);" d="M1271.818,881.546
					c-9.027-23.069-22.468-40.959-37.223-58.602c-11.114-13.288-28.416-19.713-45.528-17.01
					c-80.5,12.718-191.274,23.794-240.51,29.997c-17.193,2.166-32.919,10.821-44.25,23.933
					c-42.249,48.893-131.779,177.628-45.873,313.137c0.899,1.418,2.473,2.272,4.151,2.272h62.513
					c1.946-3.007,2.558-3.953,4.505-6.96c-18.179-40.496-15.641-84.872,4.703-133.586c1.773-4.246,7.886-3.975,9.267,0.415l0,0
					c15.895,50.355,25.336,96.54,30.935,135.895c0.345,2.428,2.416,4.236,4.869,4.236h190.959c2.392,0,4.426-1.721,4.839-4.078
					c17.619-100.446,64.74-208.99,80.187-243.007c3.07-6.759,8.479-12.286,15.244-15.346c2.108-0.954,4.189-1.939,6.251-2.927
					c2.188-1.048,3.279-3.523,2.596-5.851C1277.228,896.485,1274.715,888.95,1271.818,881.546z"/>
				
					<linearGradient id="SVGID_00000023977447106899075420000016769783550862597277_" gradientUnits="userSpaceOnUse" x1="2005.8273" y1="188.6407" x2="1087.3203" y2="1484.556" gradientTransform="matrix(0.9849 -0.1731 0.1731 0.9849 -223.2522 546.6218)">
					<stop  offset="0" style="stop-color:#2B3582"/>
					<stop  offset="1" style="stop-color:#150E42"/>
				</linearGradient>
				<path style="fill:url(#SVGID_00000023977447106899075420000016769783550862597277_);" d="M1441.683,777.924
					c-4.429-4.308-4.225-11.482,0.441-15.531l551.27-491.865c1.546-1.379,3.769-1.695,5.639-0.801l0,0
					c3.28,1.57,3.936,5.957,1.258,8.418L1456.18,778.13C1452.058,781.918,1445.696,781.827,1441.683,777.924L1441.683,777.924z"/>
				
					<linearGradient id="SVGID_00000097486494435020317310000016918146997911240344_" gradientUnits="userSpaceOnUse" x1="1092.6379" y1="650.8468" x2="937.4946" y2="935.8778">
					<stop  offset="0" style="stop-color:#CB236D"/>
					<stop  offset="1" style="stop-color:#4C246D"/>
				</linearGradient>
				<path style="fill:url(#SVGID_00000097486494435020317310000016918146997911240344_);" d="M931.544,1010.197
					c-16.305-46.929-12.902-101.334-11.803-114.125c0.132-1.531,1.5-2.645,3.027-2.471l0,0c1.467,0.168,2.535,1.467,2.408,2.938
					c-1.066,12.359-4.459,65.852,11.511,111.831c0.491,1.414-0.226,2.961-1.632,3.475l-0.003,0.001
					C933.629,1012.365,932.042,1011.629,931.544,1010.197z"/>
				<g>
					
						<linearGradient id="SVGID_00000131334044286030705910000015833651690714510495_" gradientUnits="userSpaceOnUse" x1="1542.7615" y1="612.8435" x2="666.1199" y2="1709.8698">
						<stop  offset="0" style="stop-color:#CB236D"/>
						<stop  offset="1" style="stop-color:#4C246D"/>
					</linearGradient>
					<path style="fill:url(#SVGID_00000131334044286030705910000015833651690714510495_);" d="M1453.384,832.458
						c-76.611,27.999-248.529-26.471-248.529-26.471l-2.57,128.745c130.732,41.333,215.803,29.299,271.123-5.39
						C1476.849,889.916,1464.999,855.601,1453.384,832.458z"/>
					
						<linearGradient id="SVGID_00000034810904261458374300000010879812020370912404_" gradientUnits="userSpaceOnUse" x1="1582.316" y1="573.9966" x2="1499.6392" y2="844.1876">
						<stop  offset="0" style="stop-color:#F9B776"/>
						<stop  offset="1" style="stop-color:#F47960"/>
					</linearGradient>
					<path style="fill:url(#SVGID_00000034810904261458374300000010879812020370912404_);" d="M1575.359,694.798l-32.061-6.35
						c0,0-8.744,102.013-80.153,139.723c-3.06,1.617-6.33,3.032-9.761,4.286c11.615,23.143,23.465,57.458,20.025,96.884
						C1585.824,858.852,1575.359,694.798,1575.359,694.798z"/>
					
						<linearGradient id="SVGID_00000056426942956863937240000009533169450656149638_" gradientUnits="userSpaceOnUse" x1="1615.0128" y1="581.5425" x2="1530.8434" y2="856.6115">
						<stop  offset="0" style="stop-color:#F9B776"/>
						<stop  offset="1" style="stop-color:#F47960"/>
					</linearGradient>
					<path style="fill:url(#SVGID_00000056426942956863937240000009533169450656149638_);" d="M1544.925,697.34l-1.627-8.892
						c0,0-6.687-21.72,11.003-43.101c25.57-30.906,43.606-21.951,43.606-21.951s-0.649,9.021-0.559,14.882
						c0.073,4.73,3.883,6.564,7.367,3.363l43.604-40.068c0,0,11.671,63.184-77.824,105.046L1544.925,697.34z"/>
				</g>
			</g>
			<g>
				
					<linearGradient id="SVGID_00000087384695492777147440000001589619848500513941_" gradientUnits="userSpaceOnUse" x1="1088.2428" y1="700.6612" x2="1006.1447" y2="1055.442">
					<stop  offset="0" style="stop-color:#F9B776"/>
					<stop  offset="1" style="stop-color:#F47960"/>
				</linearGradient>
				<path style="fill:url(#SVGID_00000087384695492777147440000001589619848500513941_);" d="M1030.178,728.036l-5.747,100.265
					c-0.169,2.956,1.758,5.624,4.629,6.348c12.724,3.211,47.894,9.597,78.503-7.821c3.965-2.257,5.802-7.013,4.555-11.402
					l-25.598-90.091L1030.178,728.036z"/>
				<g>
					
						<linearGradient id="SVGID_00000095334582402446326310000018156795818659581615_" gradientUnits="userSpaceOnUse" x1="1115.7559" y1="682.6155" x2="955.4625" y2="805.2644">
						<stop  offset="0" style="stop-color:#F9B776"/>
						<stop  offset="1" style="stop-color:#F47960"/>
					</linearGradient>
					<path style="fill:url(#SVGID_00000095334582402446326310000018156795818659581615_);" d="M1109.878,625.919
						c0,0,28.04,64.412,29.923,98.219c1.883,33.808,9.168,55.744-29.923,62.552c-39.09,6.808-72.021-12.665-89.861-46.342
						c0,0-27.952-51.891-21.682-73.143C1004.606,645.956,1109.878,625.919,1109.878,625.919z"/>
					
						<linearGradient id="SVGID_00000152246668959088641700000004609760592608196264_" gradientUnits="userSpaceOnUse" x1="1033.7314" y1="625.1786" x2="1183.0194" y2="817.3866">
						<stop  offset="0" style="stop-color:#2B3582"/>
						<stop  offset="1" style="stop-color:#150E42"/>
					</linearGradient>
					<path style="fill:url(#SVGID_00000152246668959088641700000004609760592608196264_);" d="M1033.375,716.136l2.225-0.981
						c2.833-1.249,4.045-4.621,2.622-7.37c-5.512-10.651-16.258-35.057-2.376-40.75c17.891-7.337,88.758-21.789,104.049-46.935
						c14.695-24.168,1.674-55.364-17.894-64.237c-1.309-0.594-2.853-0.122-3.525,1.149l-1.631,3.085
						c-1.116,2.112-4.236,1.792-4.9-0.503l0,0c-0.638-2.203-3.568-2.631-4.783-0.685c-4.7,7.523-17.389,19.719-51.322,25.982
						c-48.225,8.9-80.108,28.416-80.902,61.74c-0.05,2.117-2.303,3.294-4.111,2.192c-3.561-2.17-9.259-3.188-16.874,3.215
						c-13.244,11.136-7.825,40.024,21.209,63.787c1.379,1.129,1.368,3.282-0.126,4.254c-5.263,3.426-13.11,11.579,7.221,22.447
						c21.029,11.241,36.732,10.319,42.779,9.321c1.504-0.248,2.474-1.705,2.146-3.193l-6.454-29.289
						c-0.365-1.658,0.897-3.228,2.594-3.228H1033.375z"/>
					
						<linearGradient id="SVGID_00000137823318199675960420000012984768742014145211_" gradientUnits="userSpaceOnUse" x1="1095.8734" y1="656.6304" x2="935.5799" y2="779.2794">
						<stop  offset="0" style="stop-color:#F9B776"/>
						<stop  offset="1" style="stop-color:#F47960"/>
					</linearGradient>
					<path style="fill:url(#SVGID_00000137823318199675960420000012984768742014145211_);" d="M1034.589,722.317
						c0,0-10.697-41.145-29.144-29.609c-18.447,11.536,9.573,46.101,24.403,47.641L1034.589,722.317z"/>
				</g>
			</g>
		</g>
		<g>
			<path style="fill:#FFFFFF;" d="M1225.37,1007.765l1.455,2.325c0.144,0.228,0.076,0.528-0.151,0.672
				c-0.227,0.144-0.528,0.076-0.672-0.151c-0.001-0.002-0.005-0.009-0.007-0.011l-1.407-2.36c-0.129-0.217-0.058-0.498,0.159-0.627
				C1224.961,1007.486,1225.238,1007.555,1225.37,1007.765z"/>
			<path style="fill:#FFFFFF;" d="M1230.267,1015.486l1.496,2.298c0.178,0.27,0.103,0.633-0.167,0.812
				c-0.27,0.178-0.634,0.103-0.812-0.167c-0.002-0.003-0.007-0.011-0.009-0.014l-1.449-2.335c-0.162-0.261-0.082-0.604,0.179-0.766
				C1229.763,1015.154,1230.102,1015.233,1230.267,1015.486z"/>
			<path style="fill:#FFFFFF;" d="M1235.299,1023.114l1.536,2.273c0.209,0.306,0.132,0.723-0.174,0.932
				c-0.305,0.209-0.723,0.132-0.932-0.174c-0.001-0.002-0.007-0.01-0.008-0.013l-1.505-2.304c-0.196-0.3-0.111-0.702,0.189-0.898
				C1234.701,1022.737,1235.101,1022.821,1235.299,1023.114z"/>
			<path style="fill:#FFFFFF;" d="M1240.476,1030.645l1.586,2.234l0.003,0.005c0.238,0.335,0.159,0.8-0.176,1.038
				c-0.335,0.238-0.8,0.159-1.038-0.176c-0.002-0.002-0.005-0.008-0.007-0.01l-1.557-2.268c-0.226-0.329-0.142-0.778,0.187-1.004
				c0.326-0.223,0.769-0.144,0.997,0.177L1240.476,1030.645z"/>
			<path style="fill:#FFFFFF;" d="M1245.835,1038.036l1.648,2.186l0.004,0.006c0.272,0.361,0.2,0.874-0.161,1.145
				c-0.361,0.272-0.873,0.2-1.145-0.161c-0.002-0.002-0.006-0.008-0.008-0.01l-1.621-2.224c-0.259-0.355-0.181-0.853,0.174-1.112
				c0.351-0.256,0.843-0.182,1.104,0.163L1245.835,1038.036z"/>
			<path style="fill:#FFFFFF;" d="M1251.405,1045.264l1.713,2.134l0.005,0.006c0.308,0.384,0.247,0.945-0.137,1.253
				c-0.384,0.308-0.945,0.247-1.253-0.137c-0.002-0.002-0.007-0.009-0.009-0.011l-1.689-2.175c-0.294-0.379-0.226-0.925,0.153-1.219
				c0.375-0.292,0.914-0.227,1.21,0.142L1251.405,1045.264z"/>
			<path style="fill:#FFFFFF;" d="M1257.194,1052.313l1.781,2.077l0.006,0.007c0.347,0.405,0.3,1.014-0.104,1.361
				c-0.404,0.347-1.014,0.3-1.36-0.104c-0.002-0.002-0.008-0.009-0.01-0.012l-1.759-2.12c-0.333-0.401-0.277-0.995,0.123-1.327
				c0.397-0.329,0.983-0.279,1.317,0.111L1257.194,1052.313z"/>
			<path style="fill:#FFFFFF;" d="M1263.209,1059.165l1.844,2.019l0.008,0.008c0.382,0.419,0.353,1.068-0.066,1.451
				c-0.419,0.383-1.068,0.353-1.451-0.065l-0.007-0.008l-1.839-2.053c-0.374-0.417-0.338-1.058,0.079-1.431
				c0.414-0.371,1.05-0.339,1.424,0.071L1263.209,1059.165z"/>
			<path style="fill:#FFFFFF;" d="M1269.441,1065.813l1.917,1.948l0.009,0.009c0.415,0.422,0.41,1.101-0.012,1.516
				s-1.101,0.41-1.516-0.012l-0.007-0.008l-1.915-1.984c-0.406-0.421-0.394-1.091,0.027-1.497c0.418-0.404,1.082-0.394,1.489,0.019
				L1269.441,1065.813z"/>
			<path style="fill:#FFFFFF;" d="M1275.92,1072.216l1.993,1.868l0.01,0.01c0.45,0.422,0.473,1.129,0.051,1.579
				c-0.422,0.45-1.129,0.473-1.579,0.051l-0.008-0.008l-1.994-1.907c-0.44-0.421-0.456-1.119-0.035-1.56
				c0.418-0.438,1.111-0.456,1.552-0.043L1275.92,1072.216z"/>
			<path style="fill:#FFFFFF;" d="M1282.653,1078.341l2.071,1.779l0.012,0.01c0.487,0.418,0.542,1.152,0.124,1.638
				c-0.418,0.487-1.151,0.542-1.638,0.125l-0.009-0.008l-2.077-1.819c-0.477-0.418-0.525-1.143-0.107-1.62
				c0.415-0.474,1.134-0.524,1.611-0.115L1282.653,1078.341z"/>
			<path style="fill:#FFFFFF;" d="M1289.649,1084.154l2.151,1.677l0.014,0.011c0.526,0.41,0.62,1.168,0.21,1.694
				s-1.168,0.619-1.694,0.21l-0.009-0.007l-2.162-1.72c-0.516-0.41-0.601-1.161-0.191-1.677c0.408-0.512,1.151-0.6,1.667-0.198
				L1289.649,1084.154z"/>
			<path style="fill:#FFFFFF;" d="M1296.914,1089.615l2.233,1.563l0.017,0.011c0.566,0.396,0.704,1.177,0.308,1.743
				c-0.396,0.566-1.177,0.704-1.743,0.308l-0.01-0.007l-2.25-1.608c-0.556-0.398-0.685-1.171-0.287-1.727
				c0.395-0.553,1.161-0.683,1.717-0.295L1296.914,1089.615z"/>
			<path style="fill:#FFFFFF;" d="M1304.453,1094.677l2.315,1.433l0.019,0.012c0.609,0.377,0.797,1.176,0.42,1.785
				c-0.377,0.609-1.176,0.797-1.785,0.42l-0.011-0.007l-2.339-1.48c-0.599-0.379-0.777-1.171-0.398-1.77
				c0.377-0.595,1.161-0.775,1.759-0.405L1304.453,1094.677z"/>
			<path style="fill:#FFFFFF;" d="M1312.264,1099.288l2.396,1.287l0.023,0.012c0.653,0.351,0.897,1.164,0.547,1.817
				s-1.164,0.897-1.817,0.547l-0.012-0.006l-2.428-1.335c-0.643-0.354-0.877-1.161-0.524-1.803c0.351-0.639,1.151-0.874,1.791-0.53
				L1312.264,1099.288z"/>
			<path style="fill:#FFFFFF;" d="M1320.342,1103.393l2.473,1.124l0.026,0.012c0.697,0.317,1.005,1.139,0.689,1.836
				c-0.317,0.697-1.139,1.005-1.836,0.689l-0.012-0.006l-2.514-1.172c-0.687-0.321-0.984-1.137-0.664-1.824
				c0.318-0.683,1.127-0.981,1.811-0.67L1320.342,1103.393z"/>
			<path style="fill:#FFFFFF;" d="M1328.664,1106.951l2.545,0.953l0.029,0.011c0.725,0.271,1.093,1.08,0.822,1.805
				c-0.271,0.726-1.08,1.094-1.805,0.822l-0.004-0.002l-2.601-0.983c-0.722-0.273-1.086-1.08-0.813-1.802
				c0.273-0.722,1.08-1.086,1.802-0.813L1328.664,1106.951z"/>
			<path style="fill:#FFFFFF;" d="M1337.216,1109.896l2.602,0.752l0.032,0.009c0.752,0.218,1.185,1.003,0.968,1.755
				c-0.218,0.752-1.003,1.185-1.755,0.968l-0.004-0.001l-2.664-0.78c-0.749-0.219-1.178-1.004-0.959-1.753
				c0.219-0.749,1.004-1.178,1.753-0.959L1337.216,1109.896z"/>
			<path style="fill:#FFFFFF;" d="M1345.959,1112.161l2.654,0.539l0.035,0.007c0.775,0.158,1.276,0.914,1.118,1.689
				c-0.157,0.775-0.914,1.276-1.689,1.118l-0.005-0.001l-2.721-0.563c-0.772-0.16-1.269-0.915-1.109-1.687
				c0.16-0.772,0.915-1.269,1.687-1.109L1345.959,1112.161z"/>
			<path style="fill:#FFFFFF;" d="M1354.853,1113.701l2.69,0.317l0.035,0.004c0.794,0.094,1.361,0.813,1.268,1.607
				s-0.813,1.361-1.607,1.268l-0.005,0l-2.76-0.335c-0.791-0.096-1.354-0.815-1.258-1.606c0.096-0.791,0.815-1.354,1.606-1.259
				L1354.853,1113.701z"/>
			<path style="fill:#FFFFFF;" d="M1363.847,1114.503l2.708,0.1l0.034,0.001c0.807,0.03,1.437,0.708,1.407,1.515
				s-0.708,1.437-1.515,1.407h-0.005l-2.776-0.112c-0.804-0.032-1.43-0.711-1.397-1.515c0.032-0.804,0.711-1.43,1.515-1.397
				L1363.847,1114.503z"/>
			<path style="fill:#FFFFFF;" d="M1372.879,1114.594l2.709-0.105l0.032-0.001c0.815-0.032,1.501,0.603,1.533,1.418
				s-0.603,1.501-1.418,1.533h-0.005l-2.775,0.099c-0.813,0.029-1.495-0.606-1.524-1.419c-0.029-0.813,0.606-1.495,1.419-1.524
				L1372.879,1114.594z"/>
			<path style="fill:#FFFFFF;" d="M1381.899,1114.015l2.697-0.297l0.03-0.003c0.819-0.09,1.556,0.5,1.646,1.319
				c0.09,0.819-0.501,1.556-1.319,1.646l-0.005,0l-2.758,0.295c-0.817,0.087-1.549-0.504-1.637-1.321
				c-0.087-0.817,0.504-1.549,1.321-1.636L1381.899,1114.015z"/>
			<path style="fill:#FFFFFF;" d="M1390.865,1112.817l2.675-0.472l0.027-0.005c0.819-0.145,1.601,0.402,1.745,1.222
				c0.145,0.82-0.402,1.601-1.222,1.746l-0.005,0.001l-2.731,0.473c-0.817,0.141-1.595-0.406-1.736-1.224s0.406-1.595,1.224-1.736
				L1390.865,1112.817z"/>
			<path style="fill:#FFFFFF;" d="M1399.748,1111.055l2.645-0.63l0.025-0.006c0.817-0.195,1.638,0.31,1.833,1.127
				s-0.31,1.638-1.127,1.833l-0.005,0.001l-2.697,0.634c-0.816,0.192-1.632-0.314-1.823-1.13c-0.192-0.816,0.314-1.632,1.13-1.823
				L1399.748,1111.055z"/>
			<path style="fill:#FFFFFF;" d="M1408.523,1108.784l2.609-0.772l0.023-0.007c0.814-0.241,1.668,0.224,1.909,1.037
				c0.241,0.814-0.224,1.668-1.037,1.909l-0.005,0.001l-2.657,0.777c-0.812,0.237-1.663-0.228-1.9-1.04
				c-0.237-0.812,0.228-1.663,1.04-1.9L1408.523,1108.784z"/>
			<path style="fill:#FFFFFF;" d="M1417.177,1106.059l2.571-0.899l0.02-0.007c0.809-0.283,1.693,0.144,1.976,0.952
				c0.283,0.809-0.144,1.694-0.953,1.976l-0.005,0.002l-2.614,0.904c-0.807,0.279-1.688-0.149-1.967-0.956
				c-0.279-0.807,0.149-1.688,0.956-1.967L1417.177,1106.059z"/>
			<path style="fill:#FFFFFF;" d="M1425.702,1102.931l2.534-1.003l0.018-0.007c0.799-0.316,1.703,0.075,2.02,0.874
				c0.316,0.799-0.071,1.701-0.87,2.018l-2.568,1.025c-0.8,0.319-1.708-0.07-2.027-0.87c-0.319-0.8,0.071-1.708,0.87-2.027
				l0.004-0.002L1425.702,1102.931z"/>
			<path style="fill:#FFFFFF;" d="M1434.103,1099.467l2.491-1.102l0.016-0.007c0.779-0.345,1.691,0.008,2.036,0.787
				c0.345,0.78-0.004,1.689-0.783,2.034l-2.52,1.122c-0.78,0.348-1.695-0.003-2.043-0.784c-0.348-0.781,0.003-1.695,0.784-2.043
				l0.004-0.002L1434.103,1099.467z"/>
			<path style="fill:#FFFFFF;" d="M1442.368,1095.687l2.457-1.192l0.014-0.007c0.761-0.369,1.676-0.052,2.045,0.709
				c0.369,0.761,0.055,1.675-0.705,2.043l-2.481,1.212c-0.761,0.372-1.68,0.056-2.052-0.705c-0.372-0.761-0.056-1.68,0.705-2.052
				l0.004-0.002L1442.368,1095.687z"/>
			<path style="fill:#FFFFFF;" d="M1450.514,1091.619l2.42-1.271l0.012-0.006c0.742-0.39,1.66-0.104,2.05,0.638
				c0.39,0.742,0.108,1.658-0.635,2.048l-2.441,1.29c-0.743,0.393-1.664,0.109-2.057-0.634c-0.393-0.743-0.109-1.664,0.634-2.057
				l0.004-0.002L1450.514,1091.619z"/>
			<path style="fill:#FFFFFF;" d="M1458.532,1087.305l2.384-1.338l0.009-0.005c0.725-0.407,1.643-0.149,2.05,0.576
				c0.407,0.725,0.152,1.641-0.573,2.047l-2.4,1.355c-0.726,0.41-1.646,0.154-2.056-0.572c-0.41-0.726-0.154-1.646,0.572-2.056
				l0.004-0.002L1458.532,1087.305z"/>
			<path style="fill:#FFFFFF;" d="M1466.447,1082.78l2.357-1.391l0.007-0.004c0.71-0.419,1.625-0.183,2.044,0.527
				s0.187,1.623-0.523,2.042l-2.368,1.406c-0.711,0.422-1.629,0.188-2.051-0.523c-0.422-0.711-0.188-1.629,0.523-2.051l0.004-0.002
				L1466.447,1082.78z"/>
			<path style="fill:#FFFFFF;" d="M1474.274,1078.093l2.332-1.432l0.006-0.004c0.697-0.427,1.608-0.21,2.036,0.487
				c0.428,0.697,0.213,1.606-0.483,2.033l-2.339,1.446c-0.697,0.431-1.612,0.215-2.042-0.482c-0.431-0.697-0.215-1.612,0.482-2.042
				l0.004-0.002L1474.274,1078.093z"/>
			<path style="fill:#FFFFFF;" d="M1482.029,1073.278l2.318-1.466c0.684-0.436,1.591-0.234,2.026,0.449
				c0.436,0.684,0.234,1.591-0.45,2.027l-2.322,1.478c-0.686,0.436-1.595,0.234-2.031-0.451c-0.436-0.686-0.234-1.595,0.451-2.031
				l0.003-0.002L1482.029,1073.278z"/>
			<path style="fill:#FFFFFF;" d="M1489.736,1068.366l2.304-1.487c0.674-0.437,1.575-0.245,2.012,0.429s0.246,1.574-0.429,2.011
				l-2.305,1.497c-0.676,0.438-1.579,0.246-2.018-0.429c-0.439-0.676-0.247-1.579,0.429-2.018L1489.736,1068.366z"/>
			<path style="fill:#FFFFFF;" d="M1497.407,1063.393l2.298-1.499c0.667-0.436,1.56-0.249,1.996,0.418
				c0.436,0.667,0.251,1.559-0.416,1.995l-2.296,1.507c-0.668,0.438-1.564,0.252-2.002-0.416c-0.438-0.668-0.252-1.564,0.416-2.002
				L1497.407,1063.393z"/>
			<path style="fill:#FFFFFF;" d="M1505.066,1058.39l2.298-1.502c0.661-0.432,1.547-0.246,1.979,0.415
				c0.432,0.661,0.249,1.545-0.412,1.977l-2.293,1.508c-0.661,0.435-1.55,0.252-1.985-0.409c-0.435-0.661-0.252-1.55,0.41-1.985
				L1505.066,1058.39z"/>
			<path style="fill:#FFFFFF;" d="M1512.733,1053.388l2.304-1.496c0.656-0.426,1.534-0.239,1.96,0.417
				c0.426,0.656,0.241,1.533-0.416,1.959l-2.297,1.5c-0.656,0.43-1.537,0.247-1.967-0.41c-0.43-0.656-0.247-1.537,0.41-1.967
				L1512.733,1053.388z"/>
			<path style="fill:#FFFFFF;" d="M1520.427,1048.418l2.317-1.48c0.654-0.417,1.522-0.226,1.939,0.427
				c0.417,0.654,0.226,1.522-0.428,1.939l-2.306,1.482c-0.653,0.422-1.525,0.235-1.947-0.418s-0.235-1.525,0.418-1.947
				L1520.427,1048.418z"/>
			<path style="fill:#FFFFFF;" d="M1528.169,1043.513l2.335-1.454c0.652-0.406,1.511-0.207,1.917,0.446s0.207,1.51-0.446,1.917
				l-0.002,0.001l-2.321,1.455l-0.005,0.003c-0.653,0.409-1.514,0.212-1.923-0.441c-0.409-0.653-0.211-1.514,0.442-1.923
				L1528.169,1043.513z"/>
			<path style="fill:#FFFFFF;" d="M1535.985,1038.714l2.363-1.412c0.645-0.385,1.48-0.175,1.865,0.47
				c0.383,0.641,0.177,1.471-0.46,1.859l-0.007,0.004l-2.339,1.424l-0.006,0.004c-0.647,0.394-1.491,0.189-1.885-0.458
				c-0.394-0.647-0.189-1.491,0.458-1.885L1535.985,1038.714z"/>
			<path style="fill:#FFFFFF;" d="M1543.894,1034.06l2.395-1.367c0.634-0.362,1.441-0.141,1.803,0.493
				c0.36,0.631,0.144,1.433-0.483,1.797l-0.008,0.005l-2.368,1.378l-0.008,0.004c-0.636,0.37-1.452,0.155-1.823-0.482
				c-0.37-0.636-0.155-1.452,0.482-1.823L1543.894,1034.06z"/>
			<path style="fill:#FFFFFF;" d="M1551.911,1029.571l2.426-1.307c0.624-0.336,1.402-0.103,1.739,0.521
				c0.335,0.621,0.106,1.394-0.511,1.733l-0.01,0.005l-2.397,1.318l-0.009,0.005c-0.627,0.345-1.414,0.116-1.759-0.511
				c-0.345-0.627-0.116-1.414,0.511-1.759L1551.911,1029.571z"/>
			<path style="fill:#FFFFFF;" d="M1560.047,1025.295l2.476-1.226c0.616-0.305,1.363-0.053,1.668,0.563
				c0.304,0.613,0.056,1.355-0.553,1.664l-0.017,0.008l-2.434,1.231l-0.015,0.008c-0.619,0.313-1.375,0.065-1.689-0.554
				s-0.065-1.375,0.554-1.688L1560.047,1025.295z"/>
			<path style="fill:#FFFFFF;" d="M1568.384,1021.36l2.554-1.079c0.614-0.259,1.322,0.028,1.581,0.642
				c0.258,0.611-0.025,1.314-0.632,1.577l-0.026,0.011l-2.495,1.079l-0.024,0.01c-0.618,0.267-1.335-0.017-1.602-0.635
				c-0.267-0.618,0.017-1.335,0.635-1.602L1568.384,1021.36z"/>
			<path style="fill:#FFFFFF;" d="M1577.008,1018.01l2.65-0.848c0.615-0.197,1.272,0.142,1.469,0.757
				c0.196,0.612-0.138,1.265-0.747,1.466l-0.037,0.012l-2.572,0.847l-0.035,0.011c-0.619,0.204-1.286-0.133-1.49-0.752
				c-0.204-0.619,0.133-1.286,0.752-1.49L1577.008,1018.01z"/>
			<path style="fill:#FFFFFF;" d="M1585.959,1015.543l2.749-0.517c0.613-0.115,1.204,0.289,1.319,0.902
				c0.115,0.61-0.284,1.198-0.892,1.317l-0.048,0.01l-2.65,0.521l-0.047,0.009c-0.619,0.121-1.219-0.281-1.341-0.9
				c-0.122-0.619,0.281-1.219,0.9-1.341L1585.959,1015.543z"/>
			<path style="fill:#FFFFFF;" d="M1595.197,1014.31l2.801-0.076c0.603-0.016,1.104,0.459,1.121,1.062
				c0.016,0.599-0.454,1.099-1.052,1.12l-0.058,0.002l-2.686,0.095l-0.057,0.002c-0.609,0.021-1.12-0.455-1.142-1.064
				c-0.022-0.609,0.455-1.12,1.064-1.142L1595.197,1014.31z"/>
			<path style="fill:#FFFFFF;" d="M1604.534,1014.695l2.766,0.477c0.573,0.099,0.958,0.644,0.859,1.217
				c-0.098,0.57-0.638,0.954-1.208,0.861l-0.062-0.01l-2.646-0.434l-0.062-0.01c-0.581-0.095-0.974-0.643-0.879-1.223
				c0.095-0.58,0.643-0.974,1.223-0.879L1604.534,1014.695z"/>
			<path style="fill:#FFFFFF;" d="M1613.606,1016.894l2.621,0.982c0.525,0.197,0.791,0.782,0.594,1.307
				c-0.196,0.522-0.776,0.788-1.298,0.598l-0.051-0.019l-2.527-0.923l-0.052-0.019c-0.533-0.195-0.807-0.784-0.612-1.317
				c0.195-0.533,0.784-0.807,1.317-0.612L1613.606,1016.894z"/>
			<path style="fill:#FFFFFF;" d="M1622.104,1020.695l2.407,1.412c0.454,0.266,0.606,0.85,0.34,1.304
				c-0.264,0.449-0.839,0.603-1.29,0.347l-0.04-0.023l-2.348-1.33l-0.041-0.023c-0.468-0.265-0.632-0.859-0.367-1.326
				c0.265-0.467,0.859-0.632,1.326-0.367C1622.094,1020.69,1622.101,1020.694,1622.104,1020.695z"/>
			<path style="fill:#FFFFFF;" d="M1629.848,1025.821l2.161,1.756c0.379,0.308,0.437,0.865,0.129,1.244
				c-0.305,0.375-0.854,0.436-1.233,0.137l-0.031-0.024l-2.125-1.675l-0.031-0.024c-0.393-0.31-0.46-0.879-0.151-1.271
				c0.31-0.393,0.879-0.46,1.271-0.151C1629.84,1025.814,1629.846,1025.819,1629.848,1025.821z"/>
			<path style="fill:#FFFFFF;" d="M1636.74,1032.014l1.889,2.033c0.307,0.331,0.288,0.847-0.042,1.154
				c-0.327,0.304-0.837,0.288-1.145-0.033l-0.023-0.024l-1.873-1.957l-0.023-0.024c-0.32-0.334-0.308-0.864,0.026-1.184
				c0.334-0.32,0.864-0.308,1.184,0.026C1636.733,1032.007,1636.738,1032.012,1636.74,1032.014z"/>
			<path style="fill:#FFFFFF;" d="M1642.71,1039.074l1.603,2.263c0.239,0.337,0.159,0.804-0.178,1.043
				c-0.334,0.237-0.796,0.161-1.037-0.168l-0.018-0.024l-1.602-2.191l-0.018-0.024c-0.251-0.343-0.176-0.824,0.167-1.075
				c0.343-0.251,0.824-0.176,1.075,0.167C1642.705,1039.066,1642.709,1039.072,1642.71,1039.074z"/>
			<path style="fill:#FFFFFF;" d="M1647.705,1046.845l1.298,2.448c0.176,0.332,0.05,0.744-0.282,0.92
				c-0.329,0.174-0.736,0.052-0.915-0.273l-0.013-0.024l-1.309-2.382l-0.013-0.023c-0.186-0.34-0.063-0.766,0.277-0.952
				c0.339-0.187,0.766-0.063,0.952,0.277C1647.701,1046.837,1647.704,1046.843,1647.705,1046.845z"/>
			<path style="fill:#FFFFFF;" d="M1651.656,1055.187l0.971,2.594c0.119,0.317-0.042,0.67-0.359,0.788
				c-0.314,0.117-0.663-0.039-0.785-0.35l-0.009-0.023l-0.992-2.533l-0.009-0.023c-0.127-0.326,0.033-0.693,0.359-0.82
				c0.326-0.128,0.693,0.033,0.82,0.359C1651.654,1055.18,1651.656,1055.185,1651.656,1055.187z"/>
			<path style="fill:#FFFFFF;" d="M1654.49,1063.965l0.62,2.697c0.067,0.293-0.116,0.585-0.409,0.653
				c-0.29,0.067-0.58-0.112-0.651-0.4l-0.005-0.022l-0.649-2.644l-0.005-0.022c-0.074-0.303,0.111-0.609,0.414-0.684
				s0.609,0.111,0.684,0.414C1654.489,1063.958,1654.49,1063.963,1654.49,1063.965z"/>
			<path style="fill:#FFFFFF;" d="M1656.127,1073.036l0.247,2.756c0.023,0.262-0.17,0.494-0.432,0.517
				c-0.26,0.023-0.489-0.167-0.516-0.425l-0.002-0.02l-0.283-2.711l-0.002-0.021c-0.029-0.273,0.17-0.518,0.443-0.546
				s0.518,0.17,0.546,0.443C1656.126,1073.031,1656.127,1073.035,1656.127,1073.036z"/>
		</g>
		<g>
			
				<linearGradient id="SVGID_00000036236387312114839750000012314008843916062336_" gradientUnits="userSpaceOnUse" x1="624.1069" y1="507.9606" x2="1063.3497" y2="597.5563" gradientTransform="matrix(0.9364 0.013 -0.0112 0.8069 99.6206 -71.8115)">
				<stop  offset="0" style="stop-color:#B37CFF"/>
				<stop  offset="1" style="stop-color:#F895E7"/>
			</linearGradient>
			<path style="opacity:0.6;fill:url(#SVGID_00000036236387312114839750000012314008843916062336_);" d="M720.979,371.102
				c-4.028-34.438,35.173-83.023,106.088-40.1c1.948-16.304,90.915-67.033,132.12,39.688c7.047-25.883,71.621-12.906,83.238,30.845
				c24.271-10.798,82.651,43.419,5.392,52.779c-98.665,11.953-324.717,8.493-365.249-50.711
				C642.037,344.399,720.979,371.102,720.979,371.102z"/>
			
				<linearGradient id="SVGID_00000109009979619368483390000005105081486809232007_" gradientUnits="userSpaceOnUse" x1="1098.8456" y1="666.973" x2="1341.6178" y2="716.493" gradientTransform="matrix(0.9364 0.013 -0.0112 0.8069 99.6206 -71.8115)">
				<stop  offset="0" style="stop-color:#B37CFF"/>
				<stop  offset="1" style="stop-color:#F895E7"/>
			</linearGradient>
			<path style="opacity:0.6;fill:url(#SVGID_00000109009979619368483390000005105081486809232007_);" d="M1144.674,494.431
				c-2.226-19.034,19.44-45.887,58.636-22.164c1.077-9.011,50.25-37.05,73.023,21.936c3.895-14.306,39.586-7.133,46.006,17.048
				c13.415-5.968,45.682,23.998,2.98,29.171c-54.533,6.606-179.473,4.694-201.875-28.028
				C1101.042,479.672,1144.674,494.431,1144.674,494.431z"/>
		</g>
		<g>
			<g>
				<g>
					<g>
						
							<linearGradient id="SVGID_00000047037173164725837800000006371931001289059479_" gradientUnits="userSpaceOnUse" x1="10073.8164" y1="1269.3829" x2="9715.6377" y2="1501.5721" gradientTransform="matrix(-1 0 0 1 10626.3076 0)">
							<stop  offset="0" style="stop-color:#53D8FF"/>
							<stop  offset="1" style="stop-color:#3840F7"/>
						</linearGradient>
						<path style="fill:url(#SVGID_00000047037173164725837800000006371931001289059479_);" d="M412.23,1342.033l388.975,0.001
							v-74.996l-388.975,0C420.556,1267.038,420.556,1342.033,412.23,1342.033z"/>
						
							<linearGradient id="SVGID_00000177451441342482024350000004461519987979093422_" gradientUnits="userSpaceOnUse" x1="669.0501" y1="1058.9017" x2="619.361" y2="1281.1943">
							<stop  offset="0" style="stop-color:#A737D5"/>
							<stop  offset="1" style="stop-color:#EF497A"/>
						</linearGradient>
						<path style="fill:url(#SVGID_00000177451441342482024350000004461519987979093422_);" d="M801.205,1323.266v-34.322
							c0-12.099-7.687-21.907-17.169-21.907H413.87c-7.457,0-13.502-5.823-13.502-13.006c0-2.182,1.837-3.952,4.102-3.952h404.563
							c9.278,0,24.008,14.052,24.008,31.385v47.934c0,16.343-14.301,29.591-23.048,29.591H406.599c-3.441,0-6.231-2.687-6.231-6.002
							c0-6.051,5.092-10.956,11.373-10.956h374.756C794.62,1342.033,801.205,1333.631,801.205,1323.266z"/>
					</g>
					<path style="fill:#FFFFFF;" d="M790.417,1283.34H425.7c-0.505,0-0.915-0.41-0.915-0.915s0.41-0.915,0.915-0.915h364.717
						c0.505,0,0.915,0.41,0.915,0.915S790.923,1283.34,790.417,1283.34z"/>
					<path style="fill:#FFFFFF;" d="M790.417,1294.472H425.7c-0.505,0-0.915-0.41-0.915-0.915s0.41-0.915,0.915-0.915h364.717
						c0.505,0,0.915,0.41,0.915,0.915S790.923,1294.472,790.417,1294.472z"/>
					<path style="fill:#FFFFFF;" d="M790.417,1305.604H425.7c-0.505,0-0.915-0.41-0.915-0.915s0.41-0.915,0.915-0.915h364.717
						c0.505,0,0.915,0.41,0.915,0.915S790.923,1305.604,790.417,1305.604z"/>
					<path style="fill:#FFFFFF;" d="M790.417,1316.736H425.7c-0.505,0-0.915-0.41-0.915-0.915s0.41-0.915,0.915-0.915h364.717
						c0.505,0,0.915,0.41,0.915,0.915S790.923,1316.736,790.417,1316.736z"/>
					<path style="fill:#FFFFFF;" d="M790.417,1327.867H425.7c-0.505,0-0.915-0.41-0.915-0.915s0.41-0.915,0.915-0.915h364.717
						c0.505,0,0.915,0.41,0.915,0.915S790.923,1327.867,790.417,1327.867z"/>
				</g>
				<g>
					
						<linearGradient id="SVGID_00000005245687030753538170000018279631971482058656_" gradientUnits="userSpaceOnUse" x1="561.2604" y1="1300.4733" x2="548.3253" y2="1515.1943">
						<stop  offset="0" style="stop-color:#53D8FF"/>
						<stop  offset="1" style="stop-color:#3840F7"/>
					</linearGradient>
					<path style="fill:url(#SVGID_00000005245687030753538170000018279631971482058656_);" d="M794.003,1483.502H314.015
						c-10.81,0-19.573-8.763-19.573-19.573v-86.164c0-10.81,8.763-19.573,19.573-19.573h479.988c10.81,0,19.573,8.763,19.573,19.573
						v86.164C813.576,1474.739,804.813,1483.502,794.003,1483.502z"/>
					
						<linearGradient id="SVGID_00000103958379174437607240000011113013861893227446_" gradientUnits="userSpaceOnUse" x1="313.3554" y1="1334.7997" x2="535.4427" y2="1606.8302">
						<stop  offset="0" style="stop-color:#53D8FF"/>
						<stop  offset="1" style="stop-color:#3840F7"/>
					</linearGradient>
					<path style="fill:url(#SVGID_00000103958379174437607240000011113013861893227446_);" d="M407.471,1469.1h-47.734
						c-3.66,0-6.626-2.967-6.626-6.626v-83.254c0-3.66,2.967-6.626,6.626-6.626h47.734c3.66,0,6.627,2.967,6.627,6.627v83.254
						C414.098,1466.133,411.131,1469.1,407.471,1469.1z"/>
					
						<linearGradient id="SVGID_00000183223767086179867170000017455479184687502004_" gradientUnits="userSpaceOnUse" x1="343.9012" y1="1309.8618" x2="565.9887" y2="1581.8927">
						<stop  offset="0" style="stop-color:#53D8FF"/>
						<stop  offset="1" style="stop-color:#3840F7"/>
					</linearGradient>
					<path style="fill:url(#SVGID_00000183223767086179867170000017455479184687502004_);" d="M440.561,1469.1h-12.104
						c-2.976,0-5.389-2.413-5.389-5.39v-85.728c0-2.977,2.413-5.39,5.389-5.39h12.104c2.977,0,5.39,2.413,5.39,5.39v85.728
						C445.951,1466.687,443.538,1469.1,440.561,1469.1z"/>
				</g>
			</g>
			<g>
				<g>
					<g>
						<g>
							<g>
								
									<linearGradient id="SVGID_00000036961153072755394140000011300170638141051788_" gradientUnits="userSpaceOnUse" x1="855.0662" y1="1447.5974" x2="947.1693" y2="1447.5974">
									<stop  offset="0" style="stop-color:#CB236D"/>
									<stop  offset="1" style="stop-color:#4C246D"/>
								</linearGradient>
								<path style="fill:url(#SVGID_00000036961153072755394140000011300170638141051788_);" d="M892.102,1447.983
									c-22.579,0-32.569-1.937-37.036-3.704c0.868,3.708,4.171,6.635,8.344,6.635h79.878c2.69,0,4.388-2.575,3.745-4.906
									C937.928,1446.741,918.589,1447.983,892.102,1447.983z"/>
								
									<linearGradient id="SVGID_00000027600514919351394470000011210942834297620894_" gradientUnits="userSpaceOnUse" x1="926.0281" y1="1270.4923" x2="900.8629" y2="1444.3618">
									<stop  offset="0" style="stop-color:#CB236D"/>
									<stop  offset="1" style="stop-color:#4C246D"/>
								</linearGradient>
								<path style="fill:url(#SVGID_00000027600514919351394470000011210942834297620894_);" d="M947.033,1446.009
									c-0.129-0.47-0.32-0.933-0.654-1.359c-6.085-7.768-18.307-19.969-34.934-19.735c-23.83,0.336-31.713,2.726-49.768,0.174
									c-0.703-0.099-1.385,0.305-1.62,0.974l-4.855,13.801c-0.455,1.509-0.463,3.016-0.135,4.415
									c4.466,1.767,14.457,3.704,37.036,3.704C918.589,1447.983,937.928,1446.741,947.033,1446.009z"/>
							</g>
							
								<linearGradient id="SVGID_00000049218919660528225490000004552695961921170347_" gradientUnits="userSpaceOnUse" x1="861.0043" y1="1418.5303" x2="886.3881" y2="1418.5303">
								<stop  offset="0" style="stop-color:#F9B776"/>
								<stop  offset="1" style="stop-color:#F47960"/>
							</linearGradient>
							<path style="fill:url(#SVGID_00000049218919660528225490000004552695961921170347_);" d="M866.264,1409.182l-5.26,16.075
								c0,0,12.262,5.285,22.942,0.847l2.442-13.607L866.264,1409.182z"/>
							
								<linearGradient id="SVGID_00000012449099334383672660000010894052431904705462_" gradientUnits="userSpaceOnUse" x1="723.2999" y1="1307.4249" x2="919.142" y2="1307.4249">
								<stop  offset="0" style="stop-color:#2B3582"/>
								<stop  offset="1" style="stop-color:#150E42"/>
							</linearGradient>
							<path style="fill:url(#SVGID_00000012449099334383672660000010894052431904705462_);" d="M747.377,1197.325
								c0.325-0.379,0.812-0.578,1.31-0.536c11.105,0.927,135.632,11.557,162.121,24.026
								c26.682,12.561-18.931,182.42-22.421,195.255c-0.14,0.513-0.525,0.911-1.031,1.072c-2.292,0.729-9.439,2.242-22.266-1.514
								c-0.728-0.213-1.192-0.923-1.099-1.676c1.705-13.764,16.055-133.148,4.578-162.207c-0.198-0.502-0.656-0.852-1.189-0.939
								l-142.773-23.352c-1.199-0.196-1.721-1.629-0.929-2.55L747.377,1197.325z"/>
						</g>
						<g>
							<g>
								
									<linearGradient id="SVGID_00000052097476158304810610000015689856968520479663_" gradientUnits="userSpaceOnUse" x1="999.525" y1="1429.345" x2="1073.8876" y2="1429.345">
									<stop  offset="0" style="stop-color:#CB236D"/>
									<stop  offset="1" style="stop-color:#4C246D"/>
								</linearGradient>
								<path style="fill:url(#SVGID_00000052097476158304810610000015689856968520479663_);" d="M1030.705,1436.243
									c-17.601,14.143-26.597,18.897-31.18,20.324c2.988,2.333,7.387,2.536,10.641-0.078l62.268-50.032
									c2.097-1.685,1.815-4.746-0.139-6.152C1065.653,1406.577,1051.352,1419.654,1030.705,1436.243z"/>
								
									<linearGradient id="SVGID_00000133493557418208524900000005352160345021064375_" gradientUnits="userSpaceOnUse" x1="1050.675" y1="1288.5348" x2="1025.51" y2="1462.4025">
									<stop  offset="0" style="stop-color:#CB236D"/>
									<stop  offset="1" style="stop-color:#4C246D"/>
								</linearGradient>
								<path style="fill:url(#SVGID_00000133493557418208524900000005352160345021064375_);" d="M1072.295,1400.306
									c-0.394-0.283-0.831-0.523-1.357-0.645c-9.586-2.216-26.72-4.026-39.535,6.57c-18.774,15.523-23.747,22.892-40.27,32.547
									l5.745,14.28c0.586,1.456,1.519,2.63,2.647,3.51c4.583-1.427,13.579-6.182,31.18-20.324
									C1051.352,1419.654,1065.653,1406.577,1072.295,1400.306z"/>
							</g>
							
								<linearGradient id="SVGID_00000165949059447754689990000010389869266323382156_" gradientUnits="userSpaceOnUse" x1="977.701" y1="1421.9392" x2="1007.4522" y2="1421.9392">
								<stop  offset="0" style="stop-color:#F9B776"/>
								<stop  offset="1" style="stop-color:#F47960"/>
							</linearGradient>
							<path style="fill:url(#SVGID_00000165949059447754689990000010389869266323382156_);" d="M977.701,1413.076
								c1.255,1.144,13.431,25.702,13.431,25.702s13.555-2.933,16.32-11.511l-12.197-22.165L977.701,1413.076z"/>
							
								<linearGradient id="SVGID_00000173860800302342137220000002128540228503918514_" gradientUnits="userSpaceOnUse" x1="901.0624" y1="1225.2037" x2="684.4904" y2="1470.7538">
								<stop  offset="0" style="stop-color:#2B3582"/>
								<stop  offset="1" style="stop-color:#150E42"/>
							</linearGradient>
							<path style="fill:url(#SVGID_00000173860800302342137220000002128540228503918514_);" d="M666.476,1195.593
								c0,0-4.405,10.6-4.226,24.686c0.249,19.481,15.91,35.289,35.368,36.26l159.807,7.288c3.375,0.154,6.23,2.489,7.076,5.76
								c3.755,14.526,22.111,59.131,111.837,148.138c2.387,2.368,6.106,2.771,8.949,0.975l12.773-8.068
								c1.341-0.847,1.769-2.605,0.967-3.973l-93.048-158.893c-4.887-8.065-12.743-13.892-21.88-16.227l-136.205-34.817
								L666.476,1195.593z"/>
						</g>
					</g>
					
						<linearGradient id="SVGID_00000147931149930418787220000009881691410330819519_" gradientUnits="userSpaceOnUse" x1="868.6309" y1="989.0927" x2="799.3931" y2="972.0121">
						<stop  offset="0" style="stop-color:#F9B776"/>
						<stop  offset="1" style="stop-color:#F47960"/>
					</linearGradient>
					<path style="fill:url(#SVGID_00000147931149930418787220000009881691410330819519_);" d="M851.868,950.953
						c0,0-45.023,26.703-62.477,41.367l36.077,20.129c0,0,19.495-22.52,38.068-31.903L851.868,950.953z"/>
					<g>
						
							<linearGradient id="SVGID_00000002380842093420075430000006565310157213810831_" gradientUnits="userSpaceOnUse" x1="1093.764" y1="898.7323" x2="707.0137" y2="1198.3279">
							<stop  offset="0" style="stop-color:#53D8FF"/>
							<stop  offset="1" style="stop-color:#3840F7"/>
						</linearGradient>
						<path style="fill:url(#SVGID_00000002380842093420075430000006565310157213810831_);" d="M666.252,1197.082
							c13.371,1.757,73.438,9.227,103.42,5.78c0.933-0.107,1.727-0.715,2.089-1.581c4.429-10.588,33.271-78.48,53.787-100.797
							c1.112-1.21,3.054-1.095,4.023,0.233c7.973,10.929,43.262,53.794,111.046,61.326c1.128,0.125,2.211-0.501,2.674-1.536
							l2.6-5.81c0.573-1.28,0.036-2.785-1.22-3.408c-11.416-5.666-62.943-32.994-80.15-72.584
							c-19.398-44.63-27.188-63.664-44.836-75.309c-9.689-6.393-15.95-11-19.628-13.855c-2.733-2.122-6.491-2.309-9.421-0.468
							c-21.543,13.539-104.688,73.546-126.629,204.985C663.765,1195.516,664.786,1196.889,666.252,1197.082z"/>
						
							<linearGradient id="SVGID_00000031192084607035581490000014970753533052669596_" gradientUnits="userSpaceOnUse" x1="938.2021" y1="1147.4606" x2="1006.4774" y2="1147.4606">
							<stop  offset="0" style="stop-color:#F9B776"/>
							<stop  offset="1" style="stop-color:#F47960"/>
						</linearGradient>
						<path style="fill:url(#SVGID_00000031192084607035581490000014970753533052669596_);" d="M938.202,1148.024l8.462-2.256
							l27.049-6.263c3.256-0.754,6.678-0.177,9.507,1.603l23.257,14.632l-64.227-0.108
							C941.583,1153.507,940.003,1150.832,938.202,1148.024z"/>
					</g>
					<g>
						
							<linearGradient id="SVGID_00000065752689120848284220000017090809320717843639_" gradientUnits="userSpaceOnUse" x1="890.9738" y1="948.9443" x2="817.1611" y2="979.4454">
							<stop  offset="0" style="stop-color:#F9B776"/>
							<stop  offset="1" style="stop-color:#F47960"/>
						</linearGradient>
						<path style="fill:url(#SVGID_00000065752689120848284220000017090809320717843639_);" d="M895.812,931.37
							c0.126,0.872-11.53,57.989-11.53,57.989l-32.471-7.348l3.004-55.775C854.816,926.235,893.704,916.761,895.812,931.37z"/>
						<path style="fill:#FFFFFF;" d="M862.119,938.664l-3.881,29.238c-0.05,0.375-0.049,0.745,0.004,1.12
							c0.328,2.292,2.033,10.094,9.909,7.863c7.147-2.024,13.699-3.765,18.226-2.381c2.032,0.621,3.258,2.68,2.833,4.762
							c-1.06,5.189-3.666,16.838-7.474,26.614c-0.773,1.984-2.945,3.025-4.989,2.43c-6.158-1.796-19.041-5.946-28.623-11.712
							c-1.298-0.781-2.072-2.193-2.008-3.707c0.312-7.381,1.175-29.818,0.448-36.107c-0.682-5.904-7.927-9.44-11.075-10.708
							c-1.032-0.416-1.841-1.229-2.253-2.262c-1.458-3.653-3.467-12.106,7.185-15.569c2.229-0.725,3.404-3.129,2.612-5.335
							c-1.577-4.392-2.243-11.095,5.998-14.788c8.376-3.754,14.631,0.712,18.009,4.34c1.366,1.467,3.557,1.691,5.252,0.62
							c0.965-0.61,2.208-0.809,3.709,0.126c2.023,1.26,4.703,0.401,5.747-1.742c2.006-4.117,6.094-8.527,14.294-7.123
							c14.551,2.492,16.199,18.616,12.36,28.065c-3.839,9.449-19.46,5.85-27.297,1.087c-5.959-3.622-13.688,0.174-17.051,2.202
							C862.988,936.337,862.282,937.431,862.119,938.664z"/>
						
							<linearGradient id="SVGID_00000078046813599748798770000000638802868852639617_" gradientUnits="userSpaceOnUse" x1="866.9493" y1="934.1841" x2="832.6357" y2="963.3126">
							<stop  offset="0" style="stop-color:#F9B776"/>
							<stop  offset="1" style="stop-color:#F47960"/>
						</linearGradient>
						<path style="fill:url(#SVGID_00000078046813599748798770000000638802868852639617_);" d="M846.843,966.8
							c0,0,4.396-16.109-1.75-20.211c-6.146-4.102-15.248-1.973-13.244,10.162C834.342,971.845,846.843,966.8,846.843,966.8z"/>
					</g>
				</g>
				<g>
					<g>
						
							<linearGradient id="SVGID_00000027586477225539233750000003263711078275011775_" gradientUnits="userSpaceOnUse" x1="5938.293" y1="-10069.457" x2="5754.5015" y2="-9891.7656" gradientTransform="matrix(-1.388 -0.0686 -0.0685 1.3855 -6236.5127 -215.9469)">
							<stop  offset="0" style="stop-color:#2B3582"/>
							<stop  offset="1" style="stop-color:#150E42"/>
						</linearGradient>
						<path style="fill:url(#SVGID_00000027586477225539233750000003263711078275011775_);" d="M912.942,1167.424
							c0.105,0.005,0.21,0.008,0.315,0.007l137.21-0.137c3.391-0.002,6.138-2.75,6.134-6.136c-0.004-3.387-2.766-6.185-6.149-6.124
							l-137.209,0.137c-3.392,0.003-6.138,2.75-6.135,6.135C907.112,1164.588,909.697,1167.264,912.942,1167.424z"/>
					</g>
					<g>
						
							<linearGradient id="SVGID_00000150796453550226502550000003224140747020520329_" gradientUnits="userSpaceOnUse" x1="3342.186" y1="-9869.1836" x2="3158.4023" y2="-9691.5" gradientTransform="matrix(0.6475 -1.2297 -1.2274 -0.6463 7293.9038 -7927.8447)">
							<stop  offset="0" style="stop-color:#2B3582"/>
							<stop  offset="1" style="stop-color:#150E42"/>
						</linearGradient>
						<path style="fill:url(#SVGID_00000150796453550226502550000003224140747020520329_);" d="M1103.604,1033.053
							c-0.049,0.093-0.096,0.187-0.14,0.283l-57.732,124.473c-1.428,3.077-0.095,6.725,2.977,8.15
							c3.073,1.425,6.775,0.099,8.146-2.993l57.732-124.473c1.428-3.077,0.095-6.725-2.977-8.15
							C1108.634,1028.963,1105.117,1030.178,1103.604,1033.053z"/>
					</g>
				</g>
				<g>
					
						<linearGradient id="SVGID_00000035509628798190291520000016140268069574118573_" gradientUnits="userSpaceOnUse" x1="949.2856" y1="1475.8926" x2="963.0118" y2="1799.6079">
						<stop  offset="0" style="stop-color:#9CFFFB"/>
						<stop  offset="1" style="stop-color:#9BFFFA"/>
					</linearGradient>
					<path style="fill:url(#SVGID_00000035509628798190291520000016140268069574118573_);" d="M974.037,1174.311
						c-0.6,2.483-57.851,217.204-72.366,271.639c-1.673,6.274,2.999,12.434,9.419,12.434l0,0c4.477,0,8.379-3.085,9.464-7.481
						l63.553-257.674L974.037,1174.311z"/>
					
						<linearGradient id="SVGID_00000173856142515528854610000002605952059517794705_" gradientUnits="userSpaceOnUse" x1="1043.1147" y1="1471.9132" x2="1056.8408" y2="1795.6268">
						<stop  offset="0" style="stop-color:#9CFFFB"/>
						<stop  offset="1" style="stop-color:#9BFFFA"/>
					</linearGradient>
					<path style="fill:url(#SVGID_00000173856142515528854610000002605952059517794705_);" d="M1005.387,1174.311
						c0.6,2.483,57.852,217.204,72.367,271.639c1.673,6.274-2.999,12.434-9.42,12.434l0,0c-4.477,0-8.379-3.085-9.464-7.481
						l-63.553-257.674L1005.387,1174.311z"/>
					
						<linearGradient id="SVGID_00000135655629533742239150000010395305627865378211_" gradientUnits="userSpaceOnUse" x1="1002.3241" y1="1473.6442" x2="1016.0502" y2="1797.3595">
						<stop  offset="0" style="stop-color:#9CFFFB"/>
						<stop  offset="1" style="stop-color:#9BFFFA"/>
					</linearGradient>
					<path style="fill:url(#SVGID_00000135655629533742239150000010395305627865378211_);" d="M1007.773,1167.29h-35.657v28.635
						c0,4.115,3.296,7.452,7.363,7.452h4.891v64.319c0,3.116,2.496,5.641,5.574,5.641l0,0c3.079,0,5.574-2.526,5.574-5.641v-64.319
						h2.482c5.397,0,9.772-4.428,9.772-9.89V1167.29z"/>
					
						<linearGradient id="SVGID_00000010282090937262447260000003357551631219754912_" gradientUnits="userSpaceOnUse" x1="1094.377" y1="1133.1783" x2="664.9209" y2="1286.2942">
						<stop  offset="0" style="stop-color:#9CFFFB"/>
						<stop  offset="1" style="stop-color:#9BFFFA"/>
					</linearGradient>
					<path style="fill:url(#SVGID_00000010282090937262447260000003357551631219754912_);" d="M884.443,1160.412h199.096
						c2.783,0,5.213,1.905,5.908,4.632l2.78,10.9c1,3.923-1.94,7.742-5.943,7.718l-204.294-1.189
						c-3.96-0.023-6.849-3.798-5.882-7.684l2.418-9.712C879.21,1162.335,881.648,1160.412,884.443,1160.412z"/>
				</g>
			</g>
		</g>
	</g>
</g>
</svg>
